<svg xmlns="http://www.w3.org/2000/svg" xmlns:xlink="http://www.w3.org/1999/xlink" version="1.1" class="marks" width="496" height="250" viewBox="0 0 496 250"><rect width="496" height="250" fill="white"/><g fill="none" stroke-miterlimit="10" transform="translate(91,10)"><g class="mark-group role-frame root" role="graphics-object" aria-roledescription="group mark container"><g transform="translate(0,0)"><path class="background" aria-hidden="true" d="M0.5,0.5h400v200h-400Z" stroke="#ddd"/><g><g class="mark-group role-axis" role="graphics-symbol" aria-roledescription="axis" aria-label="Y-axis for a log scale with values from 1 to 100,000,000"><g transform="translate(0.5,0.5)"><path class="background" aria-hidden="true" d="M0,0h0v0h0Z" pointer-events="none"/><g><g class="mark-rule role-axis-grid" pointer-events="none"><line transform="translate(0,200)" x2="400" y2="0" stroke="#ddd" stroke-width="1" opacity="1"/><line transform="translate(0,192)" x2="400" y2="0" stroke="#ddd" stroke-width="1" opacity="1"/><line transform="translate(0,188)" x2="400" y2="0" stroke="#ddd" stroke-width="1" opacity="1"/><line transform="translate(0,185)" x2="400" y2="0" stroke="#ddd" stroke-width="1" opacity="1"/><line transform="translate(0,183)" x2="400" y2="0" stroke="#ddd" stroke-width="1" opacity="1"/><line transform="translate(0,181)" x2="400" y2="0" stroke="#ddd" stroke-width="1" opacity="1"/><line transform="translate(0,179)" x2="400" y2="0" stroke="#ddd" stroke-width="1" opacity="1"/><line transform="translate(0,177)" x2="400" y2="0" stroke="#ddd" stroke-width="1" opacity="1"/><line transform="translate(0,176)" x2="400" y2="0" stroke="#ddd" stroke-width="1" opacity="1"/><line transform="translate(0,175)" x2="400" y2="0" stroke="#ddd" stroke-width="1" opacity="1"/><line transform="translate(0,167)" x2="400" y2="0" stroke="#ddd" stroke-width="1" opacity="1"/><line transform="translate(0,163)" x2="400" y2="0" stroke="#ddd" stroke-width="1" opacity="1"/><line transform="translate(0,160)" x2="400" y2="0" stroke="#ddd" stroke-width="1" opacity="1"/><line transform="translate(0,158)" x2="400" y2="0" stroke="#ddd" stroke-width="1" opacity="1"/><line transform="translate(0,156)" x2="400" y2="0" stroke="#ddd" stroke-width="1" opacity="1"/><line transform="translate(0,154)" x2="400" y2="0" stroke="#ddd" stroke-width="1" opacity="1"/><line transform="translate(0,152)" x2="400" y2="0" stroke="#ddd" stroke-width="1" opacity="1"/><line transform="translate(0,151)" x2="400" y2="0" stroke="#ddd" stroke-width="1" opacity="1"/><line transform="translate(0,150)" x2="400" y2="0" stroke="#ddd" stroke-width="1" opacity="1"/><line transform="translate(0,142)" x2="400" y2="0" stroke="#ddd" stroke-width="1" opacity="1"/><line transform="translate(0,138)" x2="400" y2="0" stroke="#ddd" stroke-width="1" opacity="1"/><line transform="translate(0,135)" x2="400" y2="0" stroke="#ddd" stroke-width="1" opacity="1"/><line transform="translate(0,133)" x2="400" y2="0" stroke="#ddd" stroke-width="1" opacity="1"/><line transform="translate(0,131)" x2="400" y2="0" stroke="#ddd" stroke-width="1" opacity="1"/><line transform="translate(0,129)" x2="400" y2="0" stroke="#ddd" stroke-width="1" opacity="1"/><line transform="translate(0,127)" x2="400" y2="0" stroke="#ddd" stroke-width="1" opacity="1"/><line transform="translate(0,126)" x2="400" y2="0" stroke="#ddd" stroke-width="1" opacity="1"/><line transform="translate(0,125)" x2="400" y2="0" stroke="#ddd" stroke-width="1" opacity="1"/><line transform="translate(0,117)" x2="400" y2="0" stroke="#ddd" stroke-width="1" opacity="1"/><line transform="translate(0,113)" x2="400" y2="0" stroke="#ddd" stroke-width="1" opacity="1"/><line transform="translate(0,110)" x2="400" y2="0" stroke="#ddd" stroke-width="1" opacity="1"/><line transform="translate(0,108)" x2="400" y2="0" stroke="#ddd" stroke-width="1" opacity="1"/><line transform="translate(0,106)" x2="400" y2="0" stroke="#ddd" stroke-width="1" opacity="1"/><line transform="translate(0,104)" x2="400" y2="0" stroke="#ddd" stroke-width="1" opacity="1"/><line transform="translate(0,102)" x2="400" y2="0" stroke="#ddd" stroke-width="1" opacity="1"/><line transform="translate(0,101)" x2="400" y2="0" stroke="#ddd" stroke-width="1" opacity="1"/><line transform="translate(0,100)" x2="400" y2="0" stroke="#ddd" stroke-width="1" opacity="1"/><line transform="translate(0,92)" x2="400" y2="0" stroke="#ddd" stroke-width="1" opacity="1"/><line transform="translate(0,88)" x2="400" y2="0" stroke="#ddd" stroke-width="1" opacity="1"/><line transform="translate(0,85)" x2="400" y2="0" stroke="#ddd" stroke-width="1" opacity="1"/><line transform="translate(0,83)" x2="400" y2="0" stroke="#ddd" stroke-width="1" opacity="1"/><line transform="translate(0,81)" x2="400" y2="0" stroke="#ddd" stroke-width="1" opacity="1"/><line transform="translate(0,79)" x2="400" y2="0" stroke="#ddd" stroke-width="1" opacity="1"/><line transform="translate(0,77)" x2="400" y2="0" stroke="#ddd" stroke-width="1" opacity="1"/><line transform="translate(0,76)" x2="400" y2="0" stroke="#ddd" stroke-width="1" opacity="1"/><line transform="translate(0,75)" x2="400" y2="0" stroke="#ddd" stroke-width="1" opacity="1"/><line transform="translate(0,67)" x2="400" y2="0" stroke="#ddd" stroke-width="1" opacity="1"/><line transform="translate(0,63)" x2="400" y2="0" stroke="#ddd" stroke-width="1" opacity="1"/><line transform="translate(0,60)" x2="400" y2="0" stroke="#ddd" stroke-width="1" opacity="1"/><line transform="translate(0,58)" x2="400" y2="0" stroke="#ddd" stroke-width="1" opacity="1"/><line transform="translate(0,56)" x2="400" y2="0" stroke="#ddd" stroke-width="1" opacity="1"/><line transform="translate(0,54)" x2="400" y2="0" stroke="#ddd" stroke-width="1" opacity="1"/><line transform="translate(0,52)" x2="400" y2="0" stroke="#ddd" stroke-width="1" opacity="1"/><line transform="translate(0,51)" x2="400" y2="0" stroke="#ddd" stroke-width="1" opacity="1"/><line transform="translate(0,50)" x2="400" y2="0" stroke="#ddd" stroke-width="1" opacity="1"/><line transform="translate(0,42)" x2="400" y2="0" stroke="#ddd" stroke-width="1" opacity="1"/><line transform="translate(0,38)" x2="400" y2="0" stroke="#ddd" stroke-width="1" opacity="1"/><line transform="translate(0,35)" x2="400" y2="0" stroke="#ddd" stroke-width="1" opacity="1"/><line transform="translate(0,33)" x2="400" y2="0" stroke="#ddd" stroke-width="1" opacity="1"/><line transform="translate(0,31)" x2="400" y2="0" stroke="#ddd" stroke-width="1" opacity="1"/><line transform="translate(0,29)" x2="400" y2="0" stroke="#ddd" stroke-width="1" opacity="1"/><line transform="translate(0,27)" x2="400" y2="0" stroke="#ddd" stroke-width="1" opacity="1"/><line transform="translate(0,26)" x2="400" y2="0" stroke="#ddd" stroke-width="1" opacity="1"/><line transform="translate(0,25)" x2="400" y2="0" stroke="#ddd" stroke-width="1" opacity="1"/><line transform="translate(0,17)" x2="400" y2="0" stroke="#ddd" stroke-width="1" opacity="1"/><line transform="translate(0,13)" x2="400" y2="0" stroke="#ddd" stroke-width="1" opacity="1"/><line transform="translate(0,10)" x2="400" y2="0" stroke="#ddd" stroke-width="1" opacity="1"/><line transform="translate(0,8)" x2="400" y2="0" stroke="#ddd" stroke-width="1" opacity="1"/><line transform="translate(0,6)" x2="400" y2="0" stroke="#ddd" stroke-width="1" opacity="1"/><line transform="translate(0,4)" x2="400" y2="0" stroke="#ddd" stroke-width="1" opacity="1"/><line transform="translate(0,2)" x2="400" y2="0" stroke="#ddd" stroke-width="1" opacity="1"/><line transform="translate(0,1)" x2="400" y2="0" stroke="#ddd" stroke-width="1" opacity="1"/><line transform="translate(0,0)" x2="400" y2="0" stroke="#ddd" stroke-width="1" opacity="1"/></g></g><path class="foreground" aria-hidden="true" d="" pointer-events="none" display="none"/></g></g><g class="mark-group role-axis" role="graphics-symbol" aria-roledescription="axis" aria-label="X-axis titled 'Polyomino size' for a discrete scale with 98 values: 0, 1, 2, 3, 4, ending with 98"><g transform="translate(0.5,200.5)"><path class="background" aria-hidden="true" d="M0,0h0v0h0Z" pointer-events="none"/><g><g class="mark-rule role-axis-tick" pointer-events="none"><line transform="translate(2,0)" x2="0" y2="5" stroke="#888" stroke-width="1" opacity="1"/><line transform="translate(18,0)" x2="0" y2="5" stroke="#888" stroke-width="1" opacity="1"/><line transform="translate(34,0)" x2="0" y2="5" stroke="#888" stroke-width="1" opacity="1"/><line transform="translate(51,0)" x2="0" y2="5" stroke="#888" stroke-width="1" opacity="1"/><line transform="translate(67,0)" x2="0" y2="5" stroke="#888" stroke-width="1" opacity="1"/><line transform="translate(83,0)" x2="0" y2="5" stroke="#888" stroke-width="1" opacity="1"/><line transform="translate(99,0)" x2="0" y2="5" stroke="#888" stroke-width="1" opacity="1"/><line transform="translate(116,0)" x2="0" y2="5" stroke="#888" stroke-width="1" opacity="1"/><line transform="translate(132,0)" x2="0" y2="5" stroke="#888" stroke-width="1" opacity="1"/><line transform="translate(148,0)" x2="0" y2="5" stroke="#888" stroke-width="1" opacity="1"/><line transform="translate(165,0)" x2="0" y2="5" stroke="#888" stroke-width="1" opacity="1"/><line transform="translate(181,0)" x2="0" y2="5" stroke="#888" stroke-width="1" opacity="1"/><line transform="translate(197,0)" x2="0" y2="5" stroke="#888" stroke-width="1" opacity="1"/><line transform="translate(214,0)" x2="0" y2="5" stroke="#888" stroke-width="1" opacity="1"/><line transform="translate(230,0)" x2="0" y2="5" stroke="#888" stroke-width="1" opacity="1"/><line transform="translate(246,0)" x2="0" y2="5" stroke="#888" stroke-width="1" opacity="1"/><line transform="translate(263,0)" x2="0" y2="5" stroke="#888" stroke-width="1" opacity="1"/><line transform="translate(279,0)" x2="0" y2="5" stroke="#888" stroke-width="1" opacity="1"/><line transform="translate(295,0)" x2="0" y2="5" stroke="#888" stroke-width="1" opacity="1"/><line transform="translate(312,0)" x2="0" y2="5" stroke="#888" stroke-width="1" opacity="1"/><line transform="translate(328,0)" x2="0" y2="5" stroke="#888" stroke-width="1" opacity="1"/><line transform="translate(344,0)" x2="0" y2="5" stroke="#888" stroke-width="1" opacity="1"/><line transform="translate(361,0)" x2="0" y2="5" stroke="#888" stroke-width="1" opacity="1"/><line transform="translate(377,0)" x2="0" y2="5" stroke="#888" stroke-width="1" opacity="1"/><line transform="translate(393,0)" x2="0" y2="5" stroke="#888" stroke-width="1" opacity="1"/></g><g class="mark-text role-axis-label" pointer-events="none"><text text-anchor="end" transform="translate(1.540816326530594,7) rotate(270) translate(0,3)" font-family="sans-serif" font-size="10px" fill="#000" opacity="1">0</text><text text-anchor="end" transform="translate(17.867346938775494,7) rotate(270) translate(0,3)" font-family="sans-serif" font-size="10px" fill="#000" opacity="1">4</text><text text-anchor="end" transform="translate(34.19387755102039,7) rotate(270) translate(0,3)" font-family="sans-serif" font-size="10px" fill="#000" opacity="1">8</text><text text-anchor="end" transform="translate(50.520408163265294,7) rotate(270) translate(0,3)" font-family="sans-serif" font-size="10px" fill="#000" opacity="1">12</text><text text-anchor="end" transform="translate(66.84693877551018,7) rotate(270) translate(0,3)" font-family="sans-serif" font-size="10px" fill="#000" opacity="1">16</text><text text-anchor="end" transform="translate(83.17346938775508,7) rotate(270) translate(0,3)" font-family="sans-serif" font-size="10px" fill="#000" opacity="1">20</text><text text-anchor="end" transform="translate(99.49999999999999,7) rotate(270) translate(0,3)" font-family="sans-serif" font-size="10px" fill="#000" opacity="1">24</text><text text-anchor="end" transform="translate(115.82653061224488,7) rotate(270) translate(0,3)" font-family="sans-serif" font-size="10px" fill="#000" opacity="1">28</text><text text-anchor="end" transform="translate(132.1530612244898,7) rotate(270) translate(0,3)" font-family="sans-serif" font-size="10px" fill="#000" opacity="1">32</text><text text-anchor="end" transform="translate(148.4795918367347,7) rotate(270) translate(0,3)" font-family="sans-serif" font-size="10px" fill="#000" opacity="1">36</text><text text-anchor="end" transform="translate(164.80612244897958,7) rotate(270) translate(0,3)" font-family="sans-serif" font-size="10px" fill="#000" opacity="1">40</text><text text-anchor="end" transform="translate(181.1326530612245,7) rotate(270) translate(0,3)" font-family="sans-serif" font-size="10px" fill="#000" opacity="1">44</text><text text-anchor="end" transform="translate(197.4591836734694,7) rotate(270) translate(0,3)" font-family="sans-serif" font-size="10px" fill="#000" opacity="1">48</text><text text-anchor="end" transform="translate(213.78571428571428,7) rotate(270) translate(0,3)" font-family="sans-serif" font-size="10px" fill="#000" opacity="1">52</text><text text-anchor="end" transform="translate(230.1122448979592,7) rotate(270) translate(0,3)" font-family="sans-serif" font-size="10px" fill="#000" opacity="1">56</text><text text-anchor="end" transform="translate(246.43877551020407,7) rotate(270) translate(0,3)" font-family="sans-serif" font-size="10px" fill="#000" opacity="1">60</text><text text-anchor="end" transform="translate(262.765306122449,7) rotate(270) translate(0,3)" font-family="sans-serif" font-size="10px" fill="#000" opacity="1">64</text><text text-anchor="end" transform="translate(279.0918367346938,7) rotate(270) translate(0,3)" font-family="sans-serif" font-size="10px" fill="#000" opacity="1">68</text><text text-anchor="end" transform="translate(295.41836734693874,7) rotate(270) translate(0,3)" font-family="sans-serif" font-size="10px" fill="#000" opacity="1">72</text><text text-anchor="end" transform="translate(311.7448979591837,7) rotate(270) translate(0,3)" font-family="sans-serif" font-size="10px" fill="#000" opacity="1">76</text><text text-anchor="end" transform="translate(328.0714285714285,7) rotate(270) translate(0,3)" font-family="sans-serif" font-size="10px" fill="#000" opacity="1">80</text><text text-anchor="end" transform="translate(344.39795918367344,7) rotate(270) translate(0,3)" font-family="sans-serif" font-size="10px" fill="#000" opacity="1">84</text><text text-anchor="end" transform="translate(360.7244897959184,7) rotate(270) translate(0,3)" font-family="sans-serif" font-size="10px" fill="#000" opacity="1">88</text><text text-anchor="end" transform="translate(377.0510204081632,7) rotate(270) translate(0,3)" font-family="sans-serif" font-size="10px" fill="#000" opacity="1">92</text><text text-anchor="end" transform="translate(393.37755102040813,7) rotate(270) translate(0,3)" font-family="sans-serif" font-size="10px" fill="#000" opacity="1">96</text></g><g class="mark-rule role-axis-domain" pointer-events="none"><line transform="translate(0,0)" x2="400" y2="0" stroke="#888" stroke-width="1" opacity="1"/></g><g class="mark-text role-axis-title" pointer-events="none"><text text-anchor="middle" transform="translate(200,32.733333587646484)" font-family="sans-serif" font-size="11px" font-weight="bold" fill="#000" opacity="1">Polyomino size</text></g></g><path class="foreground" aria-hidden="true" d="" pointer-events="none" display="none"/></g></g><g class="mark-group role-axis" role="graphics-symbol" aria-roledescription="axis" aria-label="Y-axis titled 'Polyomino count' for a log scale with values from 1 to 100,000,000"><g transform="translate(0.5,0.5)"><path class="background" aria-hidden="true" d="M0,0h0v0h0Z" pointer-events="none"/><g><g class="mark-rule role-axis-tick" pointer-events="none"><line transform="translate(0,200)" x2="-5" y2="0" stroke="#888" stroke-width="1" opacity="1"/><line transform="translate(0,192)" x2="-5" y2="0" stroke="#888" stroke-width="1" opacity="1"/><line transform="translate(0,188)" x2="-5" y2="0" stroke="#888" stroke-width="1" opacity="1"/><line transform="translate(0,185)" x2="-5" y2="0" stroke="#888" stroke-width="1" opacity="1"/><line transform="translate(0,183)" x2="-5" y2="0" stroke="#888" stroke-width="1" opacity="1"/><line transform="translate(0,181)" x2="-5" y2="0" stroke="#888" stroke-width="1" opacity="1"/><line transform="translate(0,179)" x2="-5" y2="0" stroke="#888" stroke-width="1" opacity="1"/><line transform="translate(0,177)" x2="-5" y2="0" stroke="#888" stroke-width="1" opacity="1"/><line transform="translate(0,176)" x2="-5" y2="0" stroke="#888" stroke-width="1" opacity="1"/><line transform="translate(0,175)" x2="-5" y2="0" stroke="#888" stroke-width="1" opacity="1"/><line transform="translate(0,167)" x2="-5" y2="0" stroke="#888" stroke-width="1" opacity="1"/><line transform="translate(0,163)" x2="-5" y2="0" stroke="#888" stroke-width="1" opacity="1"/><line transform="translate(0,160)" x2="-5" y2="0" stroke="#888" stroke-width="1" opacity="1"/><line transform="translate(0,158)" x2="-5" y2="0" stroke="#888" stroke-width="1" opacity="1"/><line transform="translate(0,156)" x2="-5" y2="0" stroke="#888" stroke-width="1" opacity="1"/><line transform="translate(0,154)" x2="-5" y2="0" stroke="#888" stroke-width="1" opacity="1"/><line transform="translate(0,152)" x2="-5" y2="0" stroke="#888" stroke-width="1" opacity="1"/><line transform="translate(0,151)" x2="-5" y2="0" stroke="#888" stroke-width="1" opacity="1"/><line transform="translate(0,150)" x2="-5" y2="0" stroke="#888" stroke-width="1" opacity="1"/><line transform="translate(0,142)" x2="-5" y2="0" stroke="#888" stroke-width="1" opacity="1"/><line transform="translate(0,138)" x2="-5" y2="0" stroke="#888" stroke-width="1" opacity="1"/><line transform="translate(0,135)" x2="-5" y2="0" stroke="#888" stroke-width="1" opacity="1"/><line transform="translate(0,133)" x2="-5" y2="0" stroke="#888" stroke-width="1" opacity="1"/><line transform="translate(0,131)" x2="-5" y2="0" stroke="#888" stroke-width="1" opacity="1"/><line transform="translate(0,129)" x2="-5" y2="0" stroke="#888" stroke-width="1" opacity="1"/><line transform="translate(0,127)" x2="-5" y2="0" stroke="#888" stroke-width="1" opacity="1"/><line transform="translate(0,126)" x2="-5" y2="0" stroke="#888" stroke-width="1" opacity="1"/><line transform="translate(0,125)" x2="-5" y2="0" stroke="#888" stroke-width="1" opacity="1"/><line transform="translate(0,117)" x2="-5" y2="0" stroke="#888" stroke-width="1" opacity="1"/><line transform="translate(0,113)" x2="-5" y2="0" stroke="#888" stroke-width="1" opacity="1"/><line transform="translate(0,110)" x2="-5" y2="0" stroke="#888" stroke-width="1" opacity="1"/><line transform="translate(0,108)" x2="-5" y2="0" stroke="#888" stroke-width="1" opacity="1"/><line transform="translate(0,106)" x2="-5" y2="0" stroke="#888" stroke-width="1" opacity="1"/><line transform="translate(0,104)" x2="-5" y2="0" stroke="#888" stroke-width="1" opacity="1"/><line transform="translate(0,102)" x2="-5" y2="0" stroke="#888" stroke-width="1" opacity="1"/><line transform="translate(0,101)" x2="-5" y2="0" stroke="#888" stroke-width="1" opacity="1"/><line transform="translate(0,100)" x2="-5" y2="0" stroke="#888" stroke-width="1" opacity="1"/><line transform="translate(0,92)" x2="-5" y2="0" stroke="#888" stroke-width="1" opacity="1"/><line transform="translate(0,88)" x2="-5" y2="0" stroke="#888" stroke-width="1" opacity="1"/><line transform="translate(0,85)" x2="-5" y2="0" stroke="#888" stroke-width="1" opacity="1"/><line transform="translate(0,83)" x2="-5" y2="0" stroke="#888" stroke-width="1" opacity="1"/><line transform="translate(0,81)" x2="-5" y2="0" stroke="#888" stroke-width="1" opacity="1"/><line transform="translate(0,79)" x2="-5" y2="0" stroke="#888" stroke-width="1" opacity="1"/><line transform="translate(0,77)" x2="-5" y2="0" stroke="#888" stroke-width="1" opacity="1"/><line transform="translate(0,76)" x2="-5" y2="0" stroke="#888" stroke-width="1" opacity="1"/><line transform="translate(0,75)" x2="-5" y2="0" stroke="#888" stroke-width="1" opacity="1"/><line transform="translate(0,67)" x2="-5" y2="0" stroke="#888" stroke-width="1" opacity="1"/><line transform="translate(0,63)" x2="-5" y2="0" stroke="#888" stroke-width="1" opacity="1"/><line transform="translate(0,60)" x2="-5" y2="0" stroke="#888" stroke-width="1" opacity="1"/><line transform="translate(0,58)" x2="-5" y2="0" stroke="#888" stroke-width="1" opacity="1"/><line transform="translate(0,56)" x2="-5" y2="0" stroke="#888" stroke-width="1" opacity="1"/><line transform="translate(0,54)" x2="-5" y2="0" stroke="#888" stroke-width="1" opacity="1"/><line transform="translate(0,52)" x2="-5" y2="0" stroke="#888" stroke-width="1" opacity="1"/><line transform="translate(0,51)" x2="-5" y2="0" stroke="#888" stroke-width="1" opacity="1"/><line transform="translate(0,50)" x2="-5" y2="0" stroke="#888" stroke-width="1" opacity="1"/><line transform="translate(0,42)" x2="-5" y2="0" stroke="#888" stroke-width="1" opacity="1"/><line transform="translate(0,38)" x2="-5" y2="0" stroke="#888" stroke-width="1" opacity="1"/><line transform="translate(0,35)" x2="-5" y2="0" stroke="#888" stroke-width="1" opacity="1"/><line transform="translate(0,33)" x2="-5" y2="0" stroke="#888" stroke-width="1" opacity="1"/><line transform="translate(0,31)" x2="-5" y2="0" stroke="#888" stroke-width="1" opacity="1"/><line transform="translate(0,29)" x2="-5" y2="0" stroke="#888" stroke-width="1" opacity="1"/><line transform="translate(0,27)" x2="-5" y2="0" stroke="#888" stroke-width="1" opacity="1"/><line transform="translate(0,26)" x2="-5" y2="0" stroke="#888" stroke-width="1" opacity="1"/><line transform="translate(0,25)" x2="-5" y2="0" stroke="#888" stroke-width="1" opacity="1"/><line transform="translate(0,17)" x2="-5" y2="0" stroke="#888" stroke-width="1" opacity="1"/><line transform="translate(0,13)" x2="-5" y2="0" stroke="#888" stroke-width="1" opacity="1"/><line transform="translate(0,10)" x2="-5" y2="0" stroke="#888" stroke-width="1" opacity="1"/><line transform="translate(0,8)" x2="-5" y2="0" stroke="#888" stroke-width="1" opacity="1"/><line transform="translate(0,6)" x2="-5" y2="0" stroke="#888" stroke-width="1" opacity="1"/><line transform="translate(0,4)" x2="-5" y2="0" stroke="#888" stroke-width="1" opacity="1"/><line transform="translate(0,2)" x2="-5" y2="0" stroke="#888" stroke-width="1" opacity="1"/><line transform="translate(0,1)" x2="-5" y2="0" stroke="#888" stroke-width="1" opacity="1"/><line transform="translate(0,0)" x2="-5" y2="0" stroke="#888" stroke-width="1" opacity="1"/></g><g class="mark-text role-axis-label" pointer-events="none"><text text-anchor="end" transform="translate(-7,203)" font-family="sans-serif" font-size="10px" fill="#000" opacity="1">1</text><text text-anchor="end" transform="translate(-7,195.47425010840047)" font-family="sans-serif" font-size="10px" fill="#000" opacity="1"/><text text-anchor="end" transform="translate(-7,191.07196863200843)" font-family="sans-serif" font-size="10px" fill="#000" opacity="1"/><text text-anchor="end" transform="translate(-7,187.94850021680094)" font-family="sans-serif" font-size="10px" fill="#000" opacity="1"/><text text-anchor="end" transform="translate(-7,185.52574989159953)" font-family="sans-serif" font-size="10px" fill="#000" opacity="1"/><text text-anchor="end" transform="translate(-7,183.5462187404089)" font-family="sans-serif" font-size="10px" fill="#000" opacity="1"/><text text-anchor="end" transform="translate(-7,181.87254899964358)" font-family="sans-serif" font-size="10px" fill="#000" opacity="1"/><text text-anchor="end" transform="translate(-7,180.4227503252014)" font-family="sans-serif" font-size="10px" fill="#000" opacity="1"/><text text-anchor="end" transform="translate(-7,179.14393726401687)" font-family="sans-serif" font-size="10px" fill="#000" opacity="1"/><text text-anchor="end" transform="translate(-7,178)" font-family="sans-serif" font-size="10px" fill="#000" opacity="1">10</text><text text-anchor="end" transform="translate(-7,170.47425010840047)" font-family="sans-serif" font-size="10px" fill="#000" opacity="1"/><text text-anchor="end" transform="translate(-7,166.07196863200843)" font-family="sans-serif" font-size="10px" fill="#000" opacity="1"/><text text-anchor="end" transform="translate(-7,162.94850021680094)" font-family="sans-serif" font-size="10px" fill="#000" opacity="1"/><text text-anchor="end" transform="translate(-7,160.52574989159953)" font-family="sans-serif" font-size="10px" fill="#000" opacity="1"/><text text-anchor="end" transform="translate(-7,158.5462187404089)" font-family="sans-serif" font-size="10px" fill="#000" opacity="1"/><text text-anchor="end" transform="translate(-7,156.87254899964358)" font-family="sans-serif" font-size="10px" fill="#000" opacity="1"/><text text-anchor="end" transform="translate(-7,155.4227503252014)" font-family="sans-serif" font-size="10px" fill="#000" opacity="1"/><text text-anchor="end" transform="translate(-7,154.14393726401687)" font-family="sans-serif" font-size="10px" fill="#000" opacity="1"/><text text-anchor="end" transform="translate(-7,153)" font-family="sans-serif" font-size="10px" fill="#000" opacity="1">100</text><text text-anchor="end" transform="translate(-7,145.47425010840047)" font-family="sans-serif" font-size="10px" fill="#000" opacity="1"/><text text-anchor="end" transform="translate(-7,141.07196863200843)" font-family="sans-serif" font-size="10px" fill="#000" opacity="1"/><text text-anchor="end" transform="translate(-7,137.94850021680094)" font-family="sans-serif" font-size="10px" fill="#000" opacity="1"/><text text-anchor="end" transform="translate(-7,135.52574989159953)" font-family="sans-serif" font-size="10px" fill="#000" opacity="1"/><text text-anchor="end" transform="translate(-7,133.5462187404089)" font-family="sans-serif" font-size="10px" fill="#000" opacity="1"/><text text-anchor="end" transform="translate(-7,131.87254899964358)" font-family="sans-serif" font-size="10px" fill="#000" opacity="1"/><text text-anchor="end" transform="translate(-7,130.4227503252014)" font-family="sans-serif" font-size="10px" fill="#000" opacity="1"/><text text-anchor="end" transform="translate(-7,129.14393726401687)" font-family="sans-serif" font-size="10px" fill="#000" opacity="1"/><text text-anchor="end" transform="translate(-7,128)" font-family="sans-serif" font-size="10px" fill="#000" opacity="1">1,000</text><text text-anchor="end" transform="translate(-7,120.47425010840047)" font-family="sans-serif" font-size="10px" fill="#000" opacity="1"/><text text-anchor="end" transform="translate(-7,116.07196863200846)" font-family="sans-serif" font-size="10px" fill="#000" opacity="1"/><text text-anchor="end" transform="translate(-7,112.94850021680094)" font-family="sans-serif" font-size="10px" fill="#000" opacity="1"/><text text-anchor="end" transform="translate(-7,110.52574989159953)" font-family="sans-serif" font-size="10px" fill="#000" opacity="1"/><text text-anchor="end" transform="translate(-7,108.54621874040893)" font-family="sans-serif" font-size="10px" fill="#000" opacity="1"/><text text-anchor="end" transform="translate(-7,106.87254899964358)" font-family="sans-serif" font-size="10px" fill="#000" opacity="1"/><text text-anchor="end" transform="translate(-7,105.4227503252014)" font-family="sans-serif" font-size="10px" fill="#000" opacity="1"/><text text-anchor="end" transform="translate(-7,104.14393726401687)" font-family="sans-serif" font-size="10px" fill="#000" opacity="1"/><text text-anchor="end" transform="translate(-7,103)" font-family="sans-serif" font-size="10px" fill="#000" opacity="1">10,000</text><text text-anchor="end" transform="translate(-7,95.4742501084005)" font-family="sans-serif" font-size="10px" fill="#000" opacity="1"/><text text-anchor="end" transform="translate(-7,91.07196863200846)" font-family="sans-serif" font-size="10px" fill="#000" opacity="1"/><text text-anchor="end" transform="translate(-7,87.94850021680097)" font-family="sans-serif" font-size="10px" fill="#000" opacity="1"/><text text-anchor="end" transform="translate(-7,85.52574989159953)" font-family="sans-serif" font-size="10px" fill="#000" opacity="1"/><text text-anchor="end" transform="translate(-7,83.54621874040893)" font-family="sans-serif" font-size="10px" fill="#000" opacity="1"/><text text-anchor="end" transform="translate(-7,81.8725489996436)" font-family="sans-serif" font-size="10px" fill="#000" opacity="1"/><text text-anchor="end" transform="translate(-7,80.42275032520143)" font-family="sans-serif" font-size="10px" fill="#000" opacity="1"/><text text-anchor="end" transform="translate(-7,79.1439372640169)" font-family="sans-serif" font-size="10px" fill="#000" opacity="1"/><text text-anchor="end" transform="translate(-7,78)" font-family="sans-serif" font-size="10px" fill="#000" opacity="1">100,000</text><text text-anchor="end" transform="translate(-7,70.47425010840047)" font-family="sans-serif" font-size="10px" fill="#000" opacity="1"/><text text-anchor="end" transform="translate(-7,66.07196863200846)" font-family="sans-serif" font-size="10px" fill="#000" opacity="1"/><text text-anchor="end" transform="translate(-7,62.94850021680096)" font-family="sans-serif" font-size="10px" fill="#000" opacity="1"/><text text-anchor="end" transform="translate(-7,60.52574989159955)" font-family="sans-serif" font-size="10px" fill="#000" opacity="1"/><text text-anchor="end" transform="translate(-7,58.546218740408925)" font-family="sans-serif" font-size="10px" fill="#000" opacity="1"/><text text-anchor="end" transform="translate(-7,56.8725489996436)" font-family="sans-serif" font-size="10px" fill="#000" opacity="1"/><text text-anchor="end" transform="translate(-7,55.42275032520143)" font-family="sans-serif" font-size="10px" fill="#000" opacity="1"/><text text-anchor="end" transform="translate(-7,54.14393726401689)" font-family="sans-serif" font-size="10px" fill="#000" opacity="1"/><text text-anchor="end" transform="translate(-7,53.00000000000002)" font-family="sans-serif" font-size="10px" fill="#000" opacity="1">1,000,000</text><text text-anchor="end" transform="translate(-7,45.47425010840049)" font-family="sans-serif" font-size="10px" fill="#000" opacity="1"/><text text-anchor="end" transform="translate(-7,41.071968632008456)" font-family="sans-serif" font-size="10px" fill="#000" opacity="1"/><text text-anchor="end" transform="translate(-7,37.94850021680096)" font-family="sans-serif" font-size="10px" fill="#000" opacity="1"/><text text-anchor="end" transform="translate(-7,35.52574989159953)" font-family="sans-serif" font-size="10px" fill="#000" opacity="1"/><text text-anchor="end" transform="translate(-7,33.546218740408925)" font-family="sans-serif" font-size="10px" fill="#000" opacity="1"/><text text-anchor="end" transform="translate(-7,31.872548999643598)" font-family="sans-serif" font-size="10px" fill="#000" opacity="1"/><text text-anchor="end" transform="translate(-7,30.422750325201427)" font-family="sans-serif" font-size="10px" fill="#000" opacity="1"/><text text-anchor="end" transform="translate(-7,29.143937264016913)" font-family="sans-serif" font-size="10px" fill="#000" opacity="1"/><text text-anchor="end" transform="translate(-7,28)" font-family="sans-serif" font-size="10px" fill="#000" opacity="1">10,000,000</text><text text-anchor="end" transform="translate(-7,20.47425010840049)" font-family="sans-serif" font-size="10px" fill="#000" opacity="1"/><text text-anchor="end" transform="translate(-7,16.071968632008478)" font-family="sans-serif" font-size="10px" fill="#000" opacity="1"/><text text-anchor="end" transform="translate(-7,12.948500216800959)" font-family="sans-serif" font-size="10px" fill="#000" opacity="1"/><text text-anchor="end" transform="translate(-7,10.525749891599553)" font-family="sans-serif" font-size="10px" fill="#000" opacity="1"/><text text-anchor="end" transform="translate(-7,8.546218740408925)" font-family="sans-serif" font-size="10px" fill="#000" opacity="1"/><text text-anchor="end" transform="translate(-7,6.872548999643599)" font-family="sans-serif" font-size="10px" fill="#000" opacity="1"/><text text-anchor="end" transform="translate(-7,5.422750325201428)" font-family="sans-serif" font-size="10px" fill="#000" opacity="1"/><text text-anchor="end" transform="translate(-7,4.143937264016892)" font-family="sans-serif" font-size="10px" fill="#000" opacity="1"/><text text-anchor="end" transform="translate(-7,3)" font-family="sans-serif" font-size="10px" fill="#000" opacity="1">100,000,000</text></g><g class="mark-rule role-axis-domain" pointer-events="none"><line transform="translate(0,200)" x2="0" y2="-200" stroke="#888" stroke-width="1" opacity="1"/></g><g class="mark-text role-axis-title" pointer-events="none"><text text-anchor="middle" transform="translate(-74.66666793823242,100) rotate(-90) translate(0,-2)" font-family="sans-serif" font-size="11px" font-weight="bold" fill="#000" opacity="1">Polyomino count</text></g></g><path class="foreground" aria-hidden="true" d="" pointer-events="none" display="none"/></g></g><g class="mark-rect role-mark layer_0_marks" role="graphics-symbol" aria-roledescription="rect mark container"><path d="M4.285714285714268,200h3.673469387755102v0h-3.673469387755102Z" fill="#4c78a8"/><path d="M41.02040816326529,112.23972629974557h3.673469387755102v87.76027370025443h-3.673469387755102Z" fill="#4c78a8"/><path d="M45.102040816326515,106.88286529406601h3.673469387755102v93.11713470593399h-3.673469387755102Z" fill="#4c78a8"/><path d="M49.18367346938774,102.99681694458438h3.673469387755102v97.00318305541562h-3.673469387755102Z" fill="#4c78a8"/><path d="M53.26530612244896,102.2210597815006h3.673469387755102v97.7789402184994h-3.673469387755102Z" fill="#4c78a8"/><path d="M57.34693877551019,101.69196170026768h3.673469387755102v98.30803829973232h-3.673469387755102Z" fill="#4c78a8"/><path d="M61.42857142857141,103.06283679825998h3.673469387755102v96.93716320174002h-3.673469387755102Z" fill="#4c78a8"/><path d="M65.51020408163264,104.14584290143452h3.673469387755102v95.85415709856548h-3.673469387755102Z" fill="#4c78a8"/><path d="M69.59183673469386,105.63160293620616h3.673469387755102v94.36839706379384h-3.673469387755102Z" fill="#4c78a8"/><path d="M73.67346938775509,107.21536552253875h3.673469387755102v92.78463447746125h-3.673469387755102Z" fill="#4c78a8"/><path d="M77.75510204081631,108.63115166867674h3.673469387755102v91.36884833132326h-3.673469387755102Z" fill="#4c78a8"/><path d="M8.367346938775492,200h3.673469387755102v0h-3.673469387755102Z" fill="#4c78a8"/><path d="M81.83673469387753,109.96208040874977h3.673469387755102v90.03791959125023h-3.673469387755102Z" fill="#4c78a8"/><path d="M85.91836734693877,112.07340316293366h3.673469387755102v87.92659683706634h-3.673469387755102Z" fill="#4c78a8"/><path d="M89.99999999999999,112.88538676792894h3.673469387755102v87.11461323207106h-3.673469387755102Z" fill="#4c78a8"/><path d="M94.0816326530612,114.81947767681508h3.673469387755102v85.18052232318492h-3.673469387755102Z" fill="#4c78a8"/><path d="M98.16326530612244,115.67719992574735h3.673469387755102v84.32280007425265h-3.673469387755102Z" fill="#4c78a8"/><path d="M102.24489795918366,116.75996879108703h3.673469387755102v83.24003120891297h-3.673469387755102Z" fill="#4c78a8"/><path d="M106.32653061224488,117.93444717804844h3.673469387755102v82.06555282195156h-3.673469387755102Z" fill="#4c78a8"/><path d="M110.4081632653061,118.99875569718381h3.673469387755102v81.00124430281619h-3.673469387755102Z" fill="#4c78a8"/><path d="M114.48979591836734,118.44465736308958h3.673469387755102v81.55534263691042h-3.673469387755102Z" fill="#4c78a8"/><path d="M118.57142857142856,121.5345391525127h3.673469387755102v78.4654608474873h-3.673469387755102Z" fill="#4c78a8"/><path d="M12.448979591836718,192.47425010840047h3.673469387755102v7.525749891599531h-3.673469387755102Z" fill="#4c78a8"/><path d="M122.65306122448978,123.96518287104439h3.673469387755102v76.03481712895561h-3.673469387755102Z" fill="#4c78a8"/><path d="M126.73469387755101,124.70017213351858h3.673469387755102v75.29982786648142h-3.673469387755102Z" fill="#4c78a8"/><path d="M130.81632653061223,121.37786454282144h3.673469387755102v78.62213545717856h-3.673469387755102Z" fill="#4c78a8"/><path d="M134.89795918367346,125.78792628615163h3.673469387755102v74.21207371384837h-3.673469387755102Z" fill="#4c78a8"/><path d="M138.97959183673467,127.7814759829277h3.673469387755102v72.2185240170723h-3.673469387755102Z" fill="#4c78a8"/><path d="M143.0612244897959,129.61055629189332h3.673469387755102v70.38944370810668h-3.673469387755102Z" fill="#4c78a8"/><path d="M147.14285714285714,123.98494149714818h3.673469387755102v76.01505850285182h-3.673469387755102Z" fill="#4c78a8"/><path d="M151.22448979591834,130.95180403948677h3.673469387755102v69.04819596051323h-3.673469387755102Z" fill="#4c78a8"/><path d="M155.30612244897958,134.1380682459817h3.673469387755102v65.86193175401829h-3.673469387755102Z" fill="#4c78a8"/><path d="M159.3877551020408,134.68040358200662h3.673469387755102v65.31959641799338h-3.673469387755102Z" fill="#4c78a8"/><path d="M16.53061224489794,182.52574989159953h3.673469387755102v17.47425010840047h-3.673469387755102Z" fill="#4c78a8"/><path d="M163.46938775510202,127.20774603115348h3.673469387755102v72.79225396884652h-3.673469387755102Z" fill="#4c78a8"/><path d="M167.55102040816325,135.47687560810954h3.673469387755102v64.52312439189046h-3.673469387755102Z" fill="#4c78a8"/><path d="M171.6326530612245,138.21770722352653h3.673469387755102v61.78229277647347h-3.673469387755102Z" fill="#4c78a8"/><path d="M175.7142857142857,140.0950163226066h3.673469387755102v59.9049836773934h-3.673469387755102Z" fill="#4c78a8"/><path d="M179.79591836734693,131.33414502656055h3.673469387755102v68.66585497343945h-3.673469387755102Z" fill="#4c78a8"/><path d="M183.87755102040816,141.79050991403156h3.673469387755102v58.20949008596844h-3.673469387755102Z" fill="#4c78a8"/><path d="M187.95918367346937,143.32070678992466h3.673469387755102v56.67929321007534h-3.673469387755102Z" fill="#4c78a8"/><path d="M192.0408163265306,143.80066834095484h3.673469387755102v56.19933165904516h-3.673469387755102Z" fill="#4c78a8"/><path d="M196.12244897959184,134.70691729981644h3.673469387755102v65.29308270018356h-3.673469387755102Z" fill="#4c78a8"/><path d="M200.20408163265304,143.03115997617928h3.673469387755102v56.96884002382072h-3.673469387755102Z" fill="#4c78a8"/><path d="M20.612244897959165,172.15141619232907h3.673469387755102v27.848583807670934h-3.673469387755102Z" fill="#4c78a8"/><path d="M204.28571428571428,146.58198582108983h3.673469387755102v53.41801417891017h-3.673469387755102Z" fill="#4c78a8"/><path d="M208.36734693877548,147.75237221401505h3.673469387755102v52.247627785984946h-3.673469387755102Z" fill="#4c78a8"/><path d="M212.44897959183672,139.87915708450154h3.673469387755102v60.12084291549846h-3.673469387755102Z" fill="#4c78a8"/><path d="M216.53061224489795,150.10912013506126h3.673469387755102v49.89087986493874h-3.673469387755102Z" fill="#4c78a8"/><path d="M220.61224489795916,152.83773187068795h3.673469387755102v47.162268129312054h-3.673469387755102Z" fill="#4c78a8"/><path d="M224.6938775510204,152.697634932738h3.673469387755102v47.302365067262h-3.673469387755102Z" fill="#4c78a8"/><path d="M228.77551020408163,141.58850665378674h3.673469387755102v58.41149334621326h-3.673469387755102Z" fill="#4c78a8"/><path d="M232.85714285714283,152.1546536904071h3.673469387755102v47.84534630959291h-3.673469387755102Z" fill="#4c78a8"/><path d="M236.93877551020407,156.89310325998028h3.673469387755102v43.10689674001972h-3.673469387755102Z" fill="#4c78a8"/><path d="M241.0204081632653,159.4187677400525h3.673469387755102v40.58123225994751h-3.673469387755102Z" fill="#4c78a8"/><path d="M24.693877551020393,161.09243748081784h3.673469387755102v38.907562519182164h-3.673469387755102Z" fill="#4c78a8"/><path d="M245.1020408163265,145.96579994412565h3.673469387755102v54.03420005587435h-3.673469387755102Z" fill="#4c78a8"/><path d="M249.18367346938774,157.74509799928717h3.673469387755102v42.25490200071283h-3.673469387755102Z" fill="#4c78a8"/><path d="M253.26530612244898,158.43105420796064h3.673469387755102v41.56894579203936h-3.673469387755102Z" fill="#4c78a8"/><path d="M257.34693877551024,158.1975535516071h3.673469387755102v41.802446448392914h-3.673469387755102Z" fill="#4c78a8"/><path d="M261.42857142857144,151.6375387189108h3.673469387755102v48.362461281089196h-3.673469387755102Z" fill="#4c78a8"/><path d="M265.51020408163265,165.05149978319906h3.673469387755102v34.94850021680094h-3.673469387755102Z" fill="#4c78a8"/><path d="M269.59183673469386,165.49471895720984h3.673469387755102v34.50528104279016h-3.673469387755102Z" fill="#4c78a8"/><path d="M273.67346938775506,164.62566630072953h3.673469387755102v35.374333699270466h-3.673469387755102Z" fill="#4c78a8"/><path d="M277.75510204081627,154.5114016114533h3.673469387755102v45.488598388546706h-3.673469387755102Z" fill="#4c78a8"/><path d="M281.8367346938776,164.62566630072953h3.673469387755102v35.374333699270466h-3.673469387755102Z" fill="#4c78a8"/><path d="M28.775510204081616,149.16440611282627h3.673469387755102v50.83559388717373h-3.673469387755102Z" fill="#4c78a8"/><path d="M285.9183673469388,166.94451763165202h3.673469387755102v33.05548236834798h-3.673469387755102Z" fill="#4c78a8"/><path d="M290,166.94451763165202h3.673469387755102v33.05548236834798h-3.673469387755102Z" fill="#4c78a8"/><path d="M294.0816326530612,155.5462187404089h3.673469387755102v44.453781259591096h-3.673469387755102Z" fill="#4c78a8"/><path d="M298.1632653061224,173.02046884880937h3.673469387755102v26.979531151190628h-3.673469387755102Z" fill="#4c78a8"/><path d="M302.2448979591836,172.15141619232907h3.673469387755102v27.848583807670934h-3.673469387755102Z" fill="#4c78a8"/><path d="M306.32653061224494,184.94850021680094h3.673469387755102v15.051499783199063h-3.673469387755102Z" fill="#4c78a8"/><path d="M310.40816326530614,162.37125054200234h3.673469387755102v37.62874945799766h-3.673469387755102Z" fill="#4c78a8"/><path d="M314.48979591836735,171.34679910804405h3.673469387755102v28.653200891955947h-3.673469387755102Z" fill="#4c78a8"/><path d="M318.57142857142856,182.52574989159953h3.673469387755102v17.47425010840047h-3.673469387755102Z" fill="#4c78a8"/><path d="M322.65306122448976,188.07196863200843h3.673469387755102v11.928031367991565h-3.673469387755102Z" fill="#4c78a8"/><path d="M32.85714285714284,135.79495689832513h3.673469387755102v64.20504310167487h-3.673469387755102Z" fill="#4c78a8"/><path d="M326.73469387755097,162.37125054200234h3.673469387755102v37.62874945799766h-3.673469387755102Z" fill="#4c78a8"/><path d="M330.8163265306123,178.87254899964358h3.673469387755102v21.127451000356416h-3.673469387755102Z" fill="#4c78a8"/><path d="M334.8979591836735,192.47425010840047h3.673469387755102v7.525749891599531h-3.673469387755102Z" fill="#4c78a8"/><path d="M338.9795918367347,184.94850021680094h3.673469387755102v15.051499783199063h-3.673469387755102Z" fill="#4c78a8"/><path d="M343.0612244897959,165.49471895720984h3.673469387755102v34.50528104279016h-3.673469387755102Z" fill="#4c78a8"/><path d="M347.1428571428571,184.94850021680094h3.673469387755102v15.051499783199063h-3.673469387755102Z" fill="#4c78a8"/><path d="M351.2244897959183,180.5462187404089h3.673469387755102v19.453781259591096h-3.673469387755102Z" fill="#4c78a8"/><path d="M355.30612244897964,188.07196863200843h3.673469387755102v11.928031367991565h-3.673469387755102Z" fill="#4c78a8"/><path d="M359.38775510204084,176.14393726401687h3.673469387755102v23.85606273598313h-3.673469387755102Z" fill="#4c78a8"/><path d="M363.46938775510205,200h3.673469387755102v0h-3.673469387755102Z" fill="#4c78a8"/><path d="M36.93877551020407,122.61204894192123h3.673469387755102v77.38795105807877h-3.673469387755102Z" fill="#4c78a8"/><path d="M367.55102040816325,200h3.673469387755102v0h-3.673469387755102Z" fill="#4c78a8"/><path d="M371.63265306122446,188.07196863200843h3.673469387755102v11.928031367991565h-3.673469387755102Z" fill="#4c78a8"/><path d="M375.71428571428567,176.14393726401687h3.673469387755102v23.85606273598313h-3.673469387755102Z" fill="#4c78a8"/><path d="M379.795918367347,192.47425010840047h3.673469387755102v7.525749891599531h-3.673469387755102Z" fill="#4c78a8"/><path d="M383.8775510204082,200h3.673469387755102v0h-3.673469387755102Z" fill="#4c78a8"/><path d="M387.9591836734694,200h3.673469387755102v0h-3.673469387755102Z" fill="#4c78a8"/><path d="M392.0408163265306,175h3.673469387755102v25h-3.673469387755102Z" fill="#4c78a8"/><path d="M396.1224489795918,200h3.673469387755102v0h-3.673469387755102Z" fill="#4c78a8"/></g><g class="mark-line role-mark layer_1_marks" role="graphics-symbol" aria-roledescription="line mark container"><path d="M2.040816326530594,200L6.122448979591819,200L10.204081632653043,200L14.285714285714269,192.47425010840047L18.367346938775494,178.87254899964358L22.448979591836718,168.61818737241737L26.530612244897945,155.5462187404089L30.61224489795917,142.6935982160881L34.69387755102039,128.8106835214472L38.77551020408162,115.05149978319906L42.85714285714284,100.91829371184413L46.93877551020407,86.74628872517667L51.020408163265294,72.42552989028479L55.102040816326515,58.05366934026968L59.18367346938774,43.60425064261677L63.26530612244896,29.108089177090555L67.34693877551018,14.562203773637039" stroke="red" stroke-width="2"/></g></g><path class="foreground" aria-hidden="true" d="" display="none"/></g></g></g></svg>