<svg xmlns="http://www.w3.org/2000/svg" xmlns:xlink="http://www.w3.org/1999/xlink" version="1.1" class="marks" width="294" height="216" viewBox="0 0 294 216"><rect width="294" height="216" fill="white"/><g fill="none" stroke-miterlimit="10" transform="translate(34,22)"><g class="mark-group role-frame root" role="graphics-object" aria-roledescription="group mark container"><g transform="translate(0,0)"><path class="background" aria-hidden="true" d="M0.5,0.5h180v160h-180Z" stroke="#ddd"/><g><g class="mark-rect role-mark layer_0_marks" role="graphics-symbol" aria-roledescription="rect mark container"><a xlink:href="https://akodiat.github.io/polycubes?rule=None"><path d="M0,60h20v20h-20Z" fill="#E41A1C"/></a><a xlink:href="https://akodiat.github.io/polycubes?rule=None"><path d="M20,40h20v20h-20Z" fill="#E41A1C"/></a><a xlink:href="https://akodiat.github.io/polycubes?rule=None"><path d="M100,0h20v20h-20Z" fill="#E41A1C"/></a><a xlink:href="https://akodiat.github.io/polycubes?rule=None"><path d="M20,120h20v20h-20Z" fill="#E41A1C"/></a><a xlink:href="https://akodiat.github.io/polycubes?rule=0.06"><path d="M120,100h20v20h-20Z" fill="#377EB8"/></a><a xlink:href="https://akodiat.github.io/polycubes?rule=0.01"><path d="M120,120h20v20h-20Z" fill="#377EB8"/></a><a xlink:href="https://akodiat.github.io/polycubes?rule=None"><path d="M0,0h20v20h-20Z" fill="#E41A1C"/></a><a xlink:href="https://akodiat.github.io/polycubes?rule=-1:0|0:0|-6:1|-4:1|-2:2|7:0_0:0|0:0|0:0|0:0|-3:2|-5:0_0:0|5:3|0:0|0:0|-1:3|0:0_3:0|0:0|0:0|-7:3|0:0|0:0_0:0|0:0|0:0|0:0|0:0|6:0_0:0|1:0|0:0|0:0|0:0|0:0_0:0|0:0|0:0|0:0|2:0|0:0_0:0|0:0|0:0|4:3|0:0|0:0"><path d="M140,20h20v20h-20Z" fill="#4DAF4A"/></a><a xlink:href="https://akodiat.github.io/polycubes?rule=0.11"><path d="M120,60h20v20h-20Z" fill="#377EB8"/></a><a xlink:href="https://akodiat.github.io/polycubes?rule=0.02"><path d="M160,120h20v20h-20Z" fill="#377EB8"/></a><a xlink:href="https://akodiat.github.io/polycubes?rule=None"><path d="M0,100h20v20h-20Z" fill="#E41A1C"/></a><a xlink:href="https://akodiat.github.io/polycubes?rule=None"><path d="M0,20h20v20h-20Z" fill="#E41A1C"/></a><a xlink:href="https://akodiat.github.io/polycubes?rule=None"><path d="M20,80h20v20h-20Z" fill="#E41A1C"/></a><a xlink:href="https://akodiat.github.io/polycubes?rule=None"><path d="M60,60h20v20h-20Z" fill="#E41A1C"/></a><a xlink:href="https://akodiat.github.io/polycubes?rule=0.13"><path d="M160,80h20v20h-20Z" fill="#377EB8"/></a><a xlink:href="https://akodiat.github.io/polycubes?rule=-4:3|-5:0|-1:3|-2:0|-1:0|0:0_0:0|0:0|0:0|5:1|0:0|-3:0_0:0|-6:0|0:0|0:0|0:0|-2:1_3:2|6:0|0:0|0:0|0:0|0:0_1:0|0:0|0:0|0:0|0:0|0:0_0:0|0:0|0:0|0:0|4:0|0:0_0:0|0:0|2:1|0:0|0:0|0:0"><path d="M120,40h20v20h-20Z" fill="#4DAF4A"/></a><a xlink:href="https://akodiat.github.io/polycubes?rule=None"><path d="M60,80h20v20h-20Z" fill="#E41A1C"/></a><a xlink:href="https://akodiat.github.io/polycubes?rule=0.01"><path d="M160,140h20v20h-20Z" fill="#377EB8"/></a><a xlink:href="https://akodiat.github.io/polycubes?rule=None"><path d="M40,20h20v20h-20Z" fill="#E41A1C"/></a><a xlink:href="https://akodiat.github.io/polycubes?rule=None"><path d="M100,40h20v20h-20Z" fill="#E41A1C"/></a><a xlink:href="https://akodiat.github.io/polycubes?rule=0.23"><path d="M140,60h20v20h-20Z" fill="#377EB8"/></a><a xlink:href="https://akodiat.github.io/polycubes?rule=-3:3|2:3|2:0|2:3|0:0|2:3_2:3|0:0|0:0|0:0|4:2|0:0_-1:3|-4:1|0:0|0:0|0:0|0:0_3:0|0:0|1:1|0:0|0:0|0:0_0:0|0:0|-2:0|0:0|0:0|0:0"><path d="M80,80h20v20h-20Z" fill="#4DAF4A"/></a><a xlink:href="https://akodiat.github.io/polycubes?rule=0.01"><path d="M140,100h20v20h-20Z" fill="#377EB8"/></a><a xlink:href="https://akodiat.github.io/polycubes?rule=None"><path d="M80,20h20v20h-20Z" fill="#E41A1C"/></a><a xlink:href="https://akodiat.github.io/polycubes?rule=0.63"><path d="M100,80h20v20h-20Z" fill="#377EB8"/></a><a xlink:href="https://akodiat.github.io/polycubes?rule=None"><path d="M20,0h20v20h-20Z" fill="#E41A1C"/></a><a xlink:href="https://akodiat.github.io/polycubes?rule=0.26"><path d="M160,40h20v20h-20Z" fill="#377EB8"/></a><a xlink:href="https://akodiat.github.io/polycubes?rule=0.01"><path d="M140,120h20v20h-20Z" fill="#377EB8"/></a><a xlink:href="https://akodiat.github.io/polycubes?rule=None"><path d="M120,0h20v20h-20Z" fill="#E41A1C"/></a><a xlink:href="https://akodiat.github.io/polycubes?rule=None"><path d="M60,100h20v20h-20Z" fill="#E41A1C"/></a><a xlink:href="https://akodiat.github.io/polycubes?rule=None"><path d="M60,0h20v20h-20Z" fill="#E41A1C"/></a><a xlink:href="https://akodiat.github.io/polycubes?rule=None"><path d="M80,60h20v20h-20Z" fill="#E41A1C"/></a><a xlink:href="https://akodiat.github.io/polycubes?rule=0.02"><path d="M100,100h20v20h-20Z" fill="#377EB8"/></a><a xlink:href="https://akodiat.github.io/polycubes?rule=0.25"><path d="M160,60h20v20h-20Z" fill="#377EB8"/></a><a xlink:href="https://akodiat.github.io/polycubes?rule=None"><path d="M40,100h20v20h-20Z" fill="#E41A1C"/></a><a xlink:href="https://akodiat.github.io/polycubes?rule=None"><path d="M0,140h20v20h-20Z" fill="#E41A1C"/></a><a xlink:href="https://akodiat.github.io/polycubes?rule=0.01"><path d="M100,140h20v20h-20Z" fill="#377EB8"/></a><a xlink:href="https://akodiat.github.io/polycubes?rule=None"><path d="M80,0h20v20h-20Z" fill="#E41A1C"/></a><a xlink:href="https://akodiat.github.io/polycubes?rule=0.15"><path d="M160,100h20v20h-20Z" fill="#377EB8"/></a><a xlink:href="https://akodiat.github.io/polycubes?rule=None"><path d="M40,0h20v20h-20Z" fill="#E41A1C"/></a><a xlink:href="https://akodiat.github.io/polycubes?rule=None"><path d="M40,60h20v20h-20Z" fill="#E41A1C"/></a><a xlink:href="https://akodiat.github.io/polycubes?rule=0.34"><path d="M120,80h20v20h-20Z" fill="#377EB8"/></a><a xlink:href="https://akodiat.github.io/polycubes?rule=0.23"><path d="M140,40h20v20h-20Z" fill="#377EB8"/></a><a xlink:href="https://akodiat.github.io/polycubes?rule=0.03"><path d="M80,120h20v20h-20Z" fill="#377EB8"/></a><a xlink:href="https://akodiat.github.io/polycubes?rule=None"><path d="M60,40h20v20h-20Z" fill="#E41A1C"/></a><a xlink:href="https://akodiat.github.io/polycubes?rule=None"><path d="M80,40h20v20h-20Z" fill="#E41A1C"/></a><a xlink:href="https://akodiat.github.io/polycubes?rule=None"><path d="M40,40h20v20h-20Z" fill="#E41A1C"/></a><a xlink:href="https://akodiat.github.io/polycubes?rule=None"><path d="M20,100h20v20h-20Z" fill="#E41A1C"/></a><a xlink:href="https://akodiat.github.io/polycubes?rule=0"><path d="M80,140h20v20h-20Z" fill="#377EB8"/></a><a xlink:href="https://akodiat.github.io/polycubes?rule=0.01"><path d="M140,140h20v20h-20Z" fill="#377EB8"/></a><a xlink:href="https://akodiat.github.io/polycubes?rule=None"><path d="M120,20h20v20h-20Z" fill="#E41A1C"/></a><a xlink:href="https://akodiat.github.io/polycubes?rule=0.01"><path d="M120,140h20v20h-20Z" fill="#377EB8"/></a><a xlink:href="https://akodiat.github.io/polycubes?rule=None"><path d="M40,120h20v20h-20Z" fill="#E41A1C"/></a><a xlink:href="https://akodiat.github.io/polycubes?rule=4:0|-8:1|7:0|1:3|2:2|0:0_0:0|5:2|0:0|0:0|-1:3|0:0_-5:2|-6:3|0:0|0:0|0:0|0:0_0:0|3:0|6:1|0:0|0:0|0:0_0:0|0:0|-7:3|0:0|0:0|0:0_0:0|0:0|-3:3|0:0|0:0|0:0_0:0|0:0|0:0|0:0|0:0|-2:2_0:0|0:0|8:0|0:0|0:0|0:0_0:0|0:0|0:0|0:0|-4:3|0:0"><path d="M160,0h20v20h-20Z" fill="#4DAF4A"/></a><a xlink:href="https://akodiat.github.io/polycubes?rule=None"><path d="M20,20h20v20h-20Z" fill="#E41A1C"/></a><a xlink:href="https://akodiat.github.io/polycubes?rule=None"><path d="M0,40h20v20h-20Z" fill="#E41A1C"/></a><a xlink:href="https://akodiat.github.io/polycubes?rule=None"><path d="M60,20h20v20h-20Z" fill="#E41A1C"/></a><a xlink:href="https://akodiat.github.io/polycubes?rule=0:0|5:2|5:1|4:1|-1:2|4:1_0:0|0:0|-2:2|-3:3|0:0|0:0_1:0|0:0|0:0|3:1|0:0|0:0_4:0|0:0|0:0|0:0|0:0|2:3_0:0|0:0|0:0|-5:2|0:0|0:0_-4:3|0:0|0:0|0:0|0:0|0:0"><path d="M100,60h20v20h-20Z" fill="#4DAF4A"/></a><a xlink:href="https://akodiat.github.io/polycubes?rule=0.35"><path d="M160,20h20v20h-20Z" fill="#377EB8"/></a><a xlink:href="https://akodiat.github.io/polycubes?rule=None"><path d="M40,140h20v20h-20Z" fill="#E41A1C"/></a><a xlink:href="https://akodiat.github.io/polycubes?rule=None"><path d="M0,120h20v20h-20Z" fill="#E41A1C"/></a><a xlink:href="https://akodiat.github.io/polycubes?rule=None"><path d="M40,80h20v20h-20Z" fill="#E41A1C"/></a><a xlink:href="https://akodiat.github.io/polycubes?rule=0.07"><path d="M60,120h20v20h-20Z" fill="#377EB8"/></a><a xlink:href="https://akodiat.github.io/polycubes?rule=0.36"><path d="M80,100h20v20h-20Z" fill="#377EB8"/></a><a xlink:href="https://akodiat.github.io/polycubes?rule=None"><path d="M140,0h20v20h-20Z" fill="#E41A1C"/></a><a xlink:href="https://akodiat.github.io/polycubes?rule=None"><path d="M20,140h20v20h-20Z" fill="#E41A1C"/></a><a xlink:href="https://akodiat.github.io/polycubes?rule=None"><path d="M0,80h20v20h-20Z" fill="#E41A1C"/></a><a xlink:href="https://akodiat.github.io/polycubes?rule=None"><path d="M20,60h20v20h-20Z" fill="#E41A1C"/></a><a xlink:href="https://akodiat.github.io/polycubes?rule=0.17"><path d="M140,80h20v20h-20Z" fill="#377EB8"/></a><a xlink:href="https://akodiat.github.io/polycubes?rule=None"><path d="M100,20h20v20h-20Z" fill="#E41A1C"/></a><a xlink:href="https://akodiat.github.io/polycubes?rule=0.01"><path d="M60,140h20v20h-20Z" fill="#377EB8"/></a><a xlink:href="https://akodiat.github.io/polycubes?rule=0.04"><path d="M100,120h20v20h-20Z" fill="#377EB8"/></a></g><g class="mark-symbol role-mark layer_1_marks" role="graphics-symbol" aria-roledescription="symbol mark container"><a xlink:href="https://akodiat.github.io/polycubes?rule=None"><path transform="translate(10,70)" d="M0,0" fill="black" stroke-width="2" opacity="0.5"/></a><a xlink:href="https://akodiat.github.io/polycubes?rule=None"><path transform="translate(30,50)" d="M0,0" fill="black" stroke-width="2" opacity="0.5"/></a><a xlink:href="https://akodiat.github.io/polycubes?rule=None"><path transform="translate(110,10)" d="M0,0" fill="black" stroke-width="2" opacity="0.5"/></a><a xlink:href="https://akodiat.github.io/polycubes?rule=None"><path transform="translate(30,130)" d="M0,0" fill="black" stroke-width="2" opacity="0.5"/></a><a xlink:href="https://akodiat.github.io/polycubes?rule=0.06"><path transform="translate(130,110)" d="M2.327015255644019,0A2.327015255644019,2.327015255644019,0,1,1,-2.327015255644019,0A2.327015255644019,2.327015255644019,0,1,1,2.327015255644019,0" fill="black" stroke-width="2" opacity="0.5"/></a><a xlink:href="https://akodiat.github.io/polycubes?rule=0.01"><path transform="translate(130,130)" d="M0.95,0A0.95,0.95,0,1,1,-0.95,0A0.95,0.95,0,1,1,0.95,0" fill="black" stroke-width="2" opacity="0.5"/></a><a xlink:href="https://akodiat.github.io/polycubes?rule=None"><path transform="translate(10,10)" d="M0,0" fill="black" stroke-width="2" opacity="0.5"/></a><a xlink:href="https://akodiat.github.io/polycubes?rule=-1:0|0:0|-6:1|-4:1|-2:2|7:0_0:0|0:0|0:0|0:0|-3:2|-5:0_0:0|5:3|0:0|0:0|-1:3|0:0_3:0|0:0|0:0|-7:3|0:0|0:0_0:0|0:0|0:0|0:0|0:0|6:0_0:0|1:0|0:0|0:0|0:0|0:0_0:0|0:0|0:0|0:0|2:0|0:0_0:0|0:0|0:0|4:3|0:0|0:0"><path transform="translate(150,30)" d="M9.5,0A9.5,9.5,0,1,1,-9.5,0A9.5,9.5,0,1,1,9.5,0" fill="black" stroke-width="2" opacity="0.5"/></a><a xlink:href="https://akodiat.github.io/polycubes?rule=0.11"><path transform="translate(130,70)" d="M3.15079355083763,0A3.15079355083763,3.15079355083763,0,1,1,-3.15079355083763,0A3.15079355083763,3.15079355083763,0,1,1,3.15079355083763,0" fill="black" stroke-width="2" opacity="0.5"/></a><a xlink:href="https://akodiat.github.io/polycubes?rule=0.02"><path transform="translate(170,130)" d="M1.3435028842544403,0A1.3435028842544403,1.3435028842544403,0,1,1,-1.3435028842544403,0A1.3435028842544403,1.3435028842544403,0,1,1,1.3435028842544403,0" fill="black" stroke-width="2" opacity="0.5"/></a><a xlink:href="https://akodiat.github.io/polycubes?rule=None"><path transform="translate(10,110)" d="M0,0" fill="black" stroke-width="2" opacity="0.5"/></a><a xlink:href="https://akodiat.github.io/polycubes?rule=None"><path transform="translate(10,30)" d="M0,0" fill="black" stroke-width="2" opacity="0.5"/></a><a xlink:href="https://akodiat.github.io/polycubes?rule=None"><path transform="translate(30,90)" d="M0,0" fill="black" stroke-width="2" opacity="0.5"/></a><a xlink:href="https://akodiat.github.io/polycubes?rule=None"><path transform="translate(70,70)" d="M0,0" fill="black" stroke-width="2" opacity="0.5"/></a><a xlink:href="https://akodiat.github.io/polycubes?rule=0.13"><path transform="translate(170,90)" d="M3.4252737116907896,0A3.4252737116907896,3.4252737116907896,0,1,1,-3.4252737116907896,0A3.4252737116907896,3.4252737116907896,0,1,1,3.4252737116907896,0" fill="black" stroke-width="2" opacity="0.5"/></a><a xlink:href="https://akodiat.github.io/polycubes?rule=-4:3|-5:0|-1:3|-2:0|-1:0|0:0_0:0|0:0|0:0|5:1|0:0|-3:0_0:0|-6:0|0:0|0:0|0:0|-2:1_3:2|6:0|0:0|0:0|0:0|0:0_1:0|0:0|0:0|0:0|0:0|0:0_0:0|0:0|0:0|0:0|4:0|0:0_0:0|0:0|2:1|0:0|0:0|0:0"><path transform="translate(130,50)" d="M9.5,0A9.5,9.5,0,1,1,-9.5,0A9.5,9.5,0,1,1,9.5,0" fill="black" stroke-width="2" opacity="0.5"/></a><a xlink:href="https://akodiat.github.io/polycubes?rule=None"><path transform="translate(70,90)" d="M0,0" fill="black" stroke-width="2" opacity="0.5"/></a><a xlink:href="https://akodiat.github.io/polycubes?rule=0.01"><path transform="translate(170,150)" d="M0.95,0A0.95,0.95,0,1,1,-0.95,0A0.95,0.95,0,1,1,0.95,0" fill="black" stroke-width="2" opacity="0.5"/></a><a xlink:href="https://akodiat.github.io/polycubes?rule=None"><path transform="translate(50,30)" d="M0,0" fill="black" stroke-width="2" opacity="0.5"/></a><a xlink:href="https://akodiat.github.io/polycubes?rule=None"><path transform="translate(110,50)" d="M0,0" fill="black" stroke-width="2" opacity="0.5"/></a><a xlink:href="https://akodiat.github.io/polycubes?rule=0.23"><path transform="translate(150,70)" d="M4.556039947147084,0A4.556039947147084,4.556039947147084,0,1,1,-4.556039947147084,0A4.556039947147084,4.556039947147084,0,1,1,4.556039947147084,0" fill="black" stroke-width="2" opacity="0.5"/></a><a xlink:href="https://akodiat.github.io/polycubes?rule=-3:3|2:3|2:0|2:3|0:0|2:3_2:3|0:0|0:0|0:0|4:2|0:0_-1:3|-4:1|0:0|0:0|0:0|0:0_3:0|0:0|1:1|0:0|0:0|0:0_0:0|0:0|-2:0|0:0|0:0|0:0"><path transform="translate(90,90)" d="M9.5,0A9.5,9.5,0,1,1,-9.5,0A9.5,9.5,0,1,1,9.5,0" fill="black" stroke-width="2" opacity="0.5"/></a><a xlink:href="https://akodiat.github.io/polycubes?rule=0.01"><path transform="translate(150,110)" d="M0.95,0A0.95,0.95,0,1,1,-0.95,0A0.95,0.95,0,1,1,0.95,0" fill="black" stroke-width="2" opacity="0.5"/></a><a xlink:href="https://akodiat.github.io/polycubes?rule=None"><path transform="translate(90,30)" d="M0,0" fill="black" stroke-width="2" opacity="0.5"/></a><a xlink:href="https://akodiat.github.io/polycubes?rule=0.63"><path transform="translate(110,90)" d="M7.5403912365340835,0A7.5403912365340835,7.5403912365340835,0,1,1,-7.5403912365340835,0A7.5403912365340835,7.5403912365340835,0,1,1,7.5403912365340835,0" fill="black" stroke-width="2" opacity="0.5"/></a><a xlink:href="https://akodiat.github.io/polycubes?rule=None"><path transform="translate(30,10)" d="M0,0" fill="black" stroke-width="2" opacity="0.5"/></a><a xlink:href="https://akodiat.github.io/polycubes?rule=0.26"><path transform="translate(170,50)" d="M4.844068537913145,0A4.844068537913145,4.844068537913145,0,1,1,-4.844068537913145,0A4.844068537913145,4.844068537913145,0,1,1,4.844068537913145,0" fill="black" stroke-width="2" opacity="0.5"/></a><a xlink:href="https://akodiat.github.io/polycubes?rule=0.01"><path transform="translate(150,130)" d="M0.95,0A0.95,0.95,0,1,1,-0.95,0A0.95,0.95,0,1,1,0.95,0" fill="black" stroke-width="2" opacity="0.5"/></a><a xlink:href="https://akodiat.github.io/polycubes?rule=None"><path transform="translate(130,10)" d="M0,0" fill="black" stroke-width="2" opacity="0.5"/></a><a xlink:href="https://akodiat.github.io/polycubes?rule=None"><path transform="translate(70,110)" d="M0,0" fill="black" stroke-width="2" opacity="0.5"/></a><a xlink:href="https://akodiat.github.io/polycubes?rule=None"><path transform="translate(70,10)" d="M0,0" fill="black" stroke-width="2" opacity="0.5"/></a><a xlink:href="https://akodiat.github.io/polycubes?rule=None"><path transform="translate(90,70)" d="M0,0" fill="black" stroke-width="2" opacity="0.5"/></a><a xlink:href="https://akodiat.github.io/polycubes?rule=0.02"><path transform="translate(110,110)" d="M1.3435028842544403,0A1.3435028842544403,1.3435028842544403,0,1,1,-1.3435028842544403,0A1.3435028842544403,1.3435028842544403,0,1,1,1.3435028842544403,0" fill="black" stroke-width="2" opacity="0.5"/></a><a xlink:href="https://akodiat.github.io/polycubes?rule=0.25"><path transform="translate(170,70)" d="M4.75,0A4.75,4.75,0,1,1,-4.75,0A4.75,4.75,0,1,1,4.75,0" fill="black" stroke-width="2" opacity="0.5"/></a><a xlink:href="https://akodiat.github.io/polycubes?rule=None"><path transform="translate(50,110)" d="M0,0" fill="black" stroke-width="2" opacity="0.5"/></a><a xlink:href="https://akodiat.github.io/polycubes?rule=None"><path transform="translate(10,150)" d="M0,0" fill="black" stroke-width="2" opacity="0.5"/></a><a xlink:href="https://akodiat.github.io/polycubes?rule=0.01"><path transform="translate(110,150)" d="M0.95,0A0.95,0.95,0,1,1,-0.95,0A0.95,0.95,0,1,1,0.95,0" fill="black" stroke-width="2" opacity="0.5"/></a><a xlink:href="https://akodiat.github.io/polycubes?rule=None"><path transform="translate(90,10)" d="M0,0" fill="black" stroke-width="2" opacity="0.5"/></a><a xlink:href="https://akodiat.github.io/polycubes?rule=0.15"><path transform="translate(170,110)" d="M3.679334178897046,0A3.679334178897046,3.679334178897046,0,1,1,-3.679334178897046,0A3.679334178897046,3.679334178897046,0,1,1,3.679334178897046,0" fill="black" stroke-width="2" opacity="0.5"/></a><a xlink:href="https://akodiat.github.io/polycubes?rule=None"><path transform="translate(50,10)" d="M0,0" fill="black" stroke-width="2" opacity="0.5"/></a><a xlink:href="https://akodiat.github.io/polycubes?rule=None"><path transform="translate(50,70)" d="M0,0" fill="black" stroke-width="2" opacity="0.5"/></a><a xlink:href="https://akodiat.github.io/polycubes?rule=0.34"><path transform="translate(130,90)" d="M5.539404300103036,0A5.539404300103036,5.539404300103036,0,1,1,-5.539404300103036,0A5.539404300103036,5.539404300103036,0,1,1,5.539404300103036,0" fill="black" stroke-width="2" opacity="0.5"/></a><a xlink:href="https://akodiat.github.io/polycubes?rule=0.23"><path transform="translate(150,50)" d="M4.556039947147084,0A4.556039947147084,4.556039947147084,0,1,1,-4.556039947147084,0A4.556039947147084,4.556039947147084,0,1,1,4.556039947147084,0" fill="black" stroke-width="2" opacity="0.5"/></a><a xlink:href="https://akodiat.github.io/polycubes?rule=0.03"><path transform="translate(90,130)" d="M1.6454482671904334,0A1.6454482671904334,1.6454482671904334,0,1,1,-1.6454482671904334,0A1.6454482671904334,1.6454482671904334,0,1,1,1.6454482671904334,0" fill="black" stroke-width="2" opacity="0.5"/></a><a xlink:href="https://akodiat.github.io/polycubes?rule=None"><path transform="translate(70,50)" d="M0,0" fill="black" stroke-width="2" opacity="0.5"/></a><a xlink:href="https://akodiat.github.io/polycubes?rule=None"><path transform="translate(90,50)" d="M0,0" fill="black" stroke-width="2" opacity="0.5"/></a><a xlink:href="https://akodiat.github.io/polycubes?rule=None"><path transform="translate(50,50)" d="M0,0" fill="black" stroke-width="2" opacity="0.5"/></a><a xlink:href="https://akodiat.github.io/polycubes?rule=None"><path transform="translate(30,110)" d="M0,0" fill="black" stroke-width="2" opacity="0.5"/></a><a xlink:href="https://akodiat.github.io/polycubes?rule=0"><path transform="translate(90,150)" d="M0,0" fill="black" stroke-width="2" opacity="0.5"/></a><a xlink:href="https://akodiat.github.io/polycubes?rule=0.01"><path transform="translate(150,150)" d="M0.95,0A0.95,0.95,0,1,1,-0.95,0A0.95,0.95,0,1,1,0.95,0" fill="black" stroke-width="2" opacity="0.5"/></a><a xlink:href="https://akodiat.github.io/polycubes?rule=None"><path transform="translate(130,30)" d="M0,0" fill="black" stroke-width="2" opacity="0.5"/></a><a xlink:href="https://akodiat.github.io/polycubes?rule=0.01"><path transform="translate(130,150)" d="M0.95,0A0.95,0.95,0,1,1,-0.95,0A0.95,0.95,0,1,1,0.95,0" fill="black" stroke-width="2" opacity="0.5"/></a><a xlink:href="https://akodiat.github.io/polycubes?rule=None"><path transform="translate(50,130)" d="M0,0" fill="black" stroke-width="2" opacity="0.5"/></a><a xlink:href="https://akodiat.github.io/polycubes?rule=4:0|-8:1|7:0|1:3|2:2|0:0_0:0|5:2|0:0|0:0|-1:3|0:0_-5:2|-6:3|0:0|0:0|0:0|0:0_0:0|3:0|6:1|0:0|0:0|0:0_0:0|0:0|-7:3|0:0|0:0|0:0_0:0|0:0|-3:3|0:0|0:0|0:0_0:0|0:0|0:0|0:0|0:0|-2:2_0:0|0:0|8:0|0:0|0:0|0:0_0:0|0:0|0:0|0:0|-4:3|0:0"><path transform="translate(170,10)" d="M9.5,0A9.5,9.5,0,1,1,-9.5,0A9.5,9.5,0,1,1,9.5,0" fill="black" stroke-width="2" opacity="0.5"/></a><a xlink:href="https://akodiat.github.io/polycubes?rule=None"><path transform="translate(30,30)" d="M0,0" fill="black" stroke-width="2" opacity="0.5"/></a><a xlink:href="https://akodiat.github.io/polycubes?rule=None"><path transform="translate(10,50)" d="M0,0" fill="black" stroke-width="2" opacity="0.5"/></a><a xlink:href="https://akodiat.github.io/polycubes?rule=None"><path transform="translate(70,30)" d="M0,0" fill="black" stroke-width="2" opacity="0.5"/></a><a xlink:href="https://akodiat.github.io/polycubes?rule=0:0|5:2|5:1|4:1|-1:2|4:1_0:0|0:0|-2:2|-3:3|0:0|0:0_1:0|0:0|0:0|3:1|0:0|0:0_4:0|0:0|0:0|0:0|0:0|2:3_0:0|0:0|0:0|-5:2|0:0|0:0_-4:3|0:0|0:0|0:0|0:0|0:0"><path transform="translate(110,70)" d="M9.5,0A9.5,9.5,0,1,1,-9.5,0A9.5,9.5,0,1,1,9.5,0" fill="black" stroke-width="2" opacity="0.5"/></a><a xlink:href="https://akodiat.github.io/polycubes?rule=0.35"><path transform="translate(170,30)" d="M5.620275793944635,0A5.620275793944635,5.620275793944635,0,1,1,-5.620275793944635,0A5.620275793944635,5.620275793944635,0,1,1,5.620275793944635,0" fill="black" stroke-width="2" opacity="0.5"/></a><a xlink:href="https://akodiat.github.io/polycubes?rule=None"><path transform="translate(50,150)" d="M0,0" fill="black" stroke-width="2" opacity="0.5"/></a><a xlink:href="https://akodiat.github.io/polycubes?rule=None"><path transform="translate(10,130)" d="M0,0" fill="black" stroke-width="2" opacity="0.5"/></a><a xlink:href="https://akodiat.github.io/polycubes?rule=None"><path transform="translate(50,90)" d="M0,0" fill="black" stroke-width="2" opacity="0.5"/></a><a xlink:href="https://akodiat.github.io/polycubes?rule=0.07"><path transform="translate(70,130)" d="M2.5134637455113613,0A2.5134637455113613,2.5134637455113613,0,1,1,-2.5134637455113613,0A2.5134637455113613,2.5134637455113613,0,1,1,2.5134637455113613,0" fill="black" stroke-width="2" opacity="0.5"/></a><a xlink:href="https://akodiat.github.io/polycubes?rule=0.36"><path transform="translate(90,110)" d="M5.7,0A5.7,5.7,0,1,1,-5.7,0A5.7,5.7,0,1,1,5.7,0" fill="black" stroke-width="2" opacity="0.5"/></a><a xlink:href="https://akodiat.github.io/polycubes?rule=None"><path transform="translate(150,10)" d="M0,0" fill="black" stroke-width="2" opacity="0.5"/></a><a xlink:href="https://akodiat.github.io/polycubes?rule=None"><path transform="translate(30,150)" d="M0,0" fill="black" stroke-width="2" opacity="0.5"/></a><a xlink:href="https://akodiat.github.io/polycubes?rule=None"><path transform="translate(10,90)" d="M0,0" fill="black" stroke-width="2" opacity="0.5"/></a><a xlink:href="https://akodiat.github.io/polycubes?rule=None"><path transform="translate(30,70)" d="M0,0" fill="black" stroke-width="2" opacity="0.5"/></a><a xlink:href="https://akodiat.github.io/polycubes?rule=0.17"><path transform="translate(150,90)" d="M3.9169503443367777,0A3.9169503443367777,3.9169503443367777,0,1,1,-3.9169503443367777,0A3.9169503443367777,3.9169503443367777,0,1,1,3.9169503443367777,0" fill="black" stroke-width="2" opacity="0.5"/></a><a xlink:href="https://akodiat.github.io/polycubes?rule=None"><path transform="translate(110,30)" d="M0,0" fill="black" stroke-width="2" opacity="0.5"/></a><a xlink:href="https://akodiat.github.io/polycubes?rule=0.01"><path transform="translate(70,150)" d="M0.95,0A0.95,0.95,0,1,1,-0.95,0A0.95,0.95,0,1,1,0.95,0" fill="black" stroke-width="2" opacity="0.5"/></a><a xlink:href="https://akodiat.github.io/polycubes?rule=0.04"><path transform="translate(110,130)" d="M1.9,0A1.9,1.9,0,1,1,-1.9,0A1.9,1.9,0,1,1,1.9,0" fill="black" stroke-width="2" opacity="0.5"/></a></g><g class="mark-group role-legend" role="graphics-symbol" aria-roledescription="legend" aria-label="Symbol legend titled 'category' for fill color with 3 values: Solution, None, UND"><g transform="translate(198,0)"><path class="background" aria-hidden="true" d="M0,0h57v53h-57Z" pointer-events="none"/><g><g class="mark-group role-legend-entry"><g transform="translate(0,16)"><path class="background" aria-hidden="true" d="M0,0h0v0h0Z" pointer-events="none"/><g><g class="mark-group role-scope" role="graphics-object" aria-roledescription="group mark container"><g transform="translate(0,0)"><path class="background" aria-hidden="true" d="M0,0h56.733333587646484v11h-56.733333587646484Z" pointer-events="none" opacity="1"/><g><g class="mark-symbol role-legend-symbol" pointer-events="none"><path transform="translate(6,6)" d="M-5,-5h10v10h-10Z" fill="#4DAF4A" stroke-width="1.5" opacity="1"/></g><g class="mark-text role-legend-label" pointer-events="none"><text text-anchor="start" transform="translate(16,9)" font-family="sans-serif" font-size="10px" fill="#000" opacity="1">Solution</text></g></g><path class="foreground" aria-hidden="true" d="" pointer-events="none" display="none"/></g><g transform="translate(0,13)"><path class="background" aria-hidden="true" d="M0,0h56.733333587646484v11h-56.733333587646484Z" pointer-events="none" opacity="1"/><g><g class="mark-symbol role-legend-symbol" pointer-events="none"><path transform="translate(6,6)" d="M-5,-5h10v10h-10Z" fill="#E41A1C" stroke-width="1.5" opacity="1"/></g><g class="mark-text role-legend-label" pointer-events="none"><text text-anchor="start" transform="translate(16,9)" font-family="sans-serif" font-size="10px" fill="#000" opacity="1">None</text></g></g><path class="foreground" aria-hidden="true" d="" pointer-events="none" display="none"/></g><g transform="translate(0,26)"><path class="background" aria-hidden="true" d="M0,0h56.733333587646484v11h-56.733333587646484Z" pointer-events="none" opacity="1"/><g><g class="mark-symbol role-legend-symbol" pointer-events="none"><path transform="translate(6,6)" d="M-5,-5h10v10h-10Z" fill="#377EB8" stroke-width="1.5" opacity="1"/></g><g class="mark-text role-legend-label" pointer-events="none"><text text-anchor="start" transform="translate(16,9)" font-family="sans-serif" font-size="10px" fill="#000" opacity="1">UND</text></g></g><path class="foreground" aria-hidden="true" d="" pointer-events="none" display="none"/></g></g></g><path class="foreground" aria-hidden="true" d="" pointer-events="none" display="none"/></g></g><g class="mark-text role-legend-title" pointer-events="none"><text text-anchor="start" transform="translate(0,9)" font-family="sans-serif" font-size="11px" font-weight="bold" fill="#000" opacity="1">category</text></g></g><path class="foreground" aria-hidden="true" d="" pointer-events="none" display="none"/></g></g><g class="mark-group role-legend" role="graphics-symbol" aria-roledescription="legend" aria-label="Symbol legend titled 'ratio' for size with values from 0.0 to 1.0"><g transform="translate(198,61)"><path class="background" aria-hidden="true" d="M0,0h41v114h-41Z" pointer-events="none"/><g><g class="mark-group role-legend-entry"><g transform="translate(0,16)"><path class="background" aria-hidden="true" d="M0,0h0v0h0Z" pointer-events="none"/><g><g class="mark-group role-scope" role="graphics-object" aria-roledescription="group mark container"><g transform="translate(0,0)"><path class="background" aria-hidden="true" d="M0,0h40.916666984558105v10.7485291572496h-40.916666984558105Z" pointer-events="none" opacity="1"/><g><g class="mark-symbol role-legend-symbol" pointer-events="none"><path transform="translate(10.5,5)" d="M4.2485291572496005,0A4.2485291572496005,4.2485291572496005,0,1,1,-4.2485291572496005,0A4.2485291572496005,4.2485291572496005,0,1,1,4.2485291572496005,0" fill="black" stroke-width="1.5" opacity="0.5"/></g><g class="mark-text role-legend-label" pointer-events="none"><text text-anchor="start" transform="translate(25,8)" font-family="sans-serif" font-size="10px" fill="#000" opacity="1">0.2</text></g></g><path class="foreground" aria-hidden="true" d="" pointer-events="none" display="none"/></g><g transform="translate(0,14)"><path class="background" aria-hidden="true" d="M0,0h40.916666984558105v14.50832755431992h-40.916666984558105Z" pointer-events="none" opacity="1"/><g><g class="mark-symbol role-legend-symbol" pointer-events="none"><path transform="translate(10.5,7)" d="M6.008327554319921,0A6.008327554319921,6.008327554319921,0,1,1,-6.008327554319921,0A6.008327554319921,6.008327554319921,0,1,1,6.008327554319921,0" fill="black" stroke-width="1.5" opacity="0.5"/></g><g class="mark-text role-legend-label" pointer-events="none"><text text-anchor="start" transform="translate(25,10)" font-family="sans-serif" font-size="10px" fill="#000" opacity="1">0.4</text></g></g><path class="foreground" aria-hidden="true" d="" pointer-events="none" display="none"/></g><g transform="translate(0,32)"><path class="background" aria-hidden="true" d="M0,0h40.916666984558105v17.358668357794087h-40.916666984558105Z" pointer-events="none" opacity="1"/><g><g class="mark-symbol role-legend-symbol" pointer-events="none"><path transform="translate(10.5,8.5)" d="M7.358668357794092,0A7.358668357794092,7.358668357794092,0,1,1,-7.358668357794092,0A7.358668357794092,7.358668357794092,0,1,1,7.358668357794092,0" fill="black" stroke-width="1.5" opacity="0.5"/></g><g class="mark-text role-legend-label" pointer-events="none"><text text-anchor="start" transform="translate(25,11.5)" font-family="sans-serif" font-size="10px" fill="#000" opacity="1">0.6</text></g></g><path class="foreground" aria-hidden="true" d="" pointer-events="none" display="none"/></g><g transform="translate(0,53)"><path class="background" aria-hidden="true" d="M0,0h40.916666984558105v19.4970583144992h-40.916666984558105Z" pointer-events="none" opacity="1"/><g><g class="mark-symbol role-legend-symbol" pointer-events="none"><path transform="translate(10.5,9.5)" d="M8.497058314499201,0A8.497058314499201,8.497058314499201,0,1,1,-8.497058314499201,0A8.497058314499201,8.497058314499201,0,1,1,8.497058314499201,0" fill="black" stroke-width="1.5" opacity="0.5"/></g><g class="mark-text role-legend-label" pointer-events="none"><text text-anchor="start" transform="translate(25,12.5)" font-family="sans-serif" font-size="10px" fill="#000" opacity="1">0.8</text></g></g><path class="foreground" aria-hidden="true" d="" pointer-events="none" display="none"/></g><g transform="translate(0,76)"><path class="background" aria-hidden="true" d="M0,0h40.916666984558105v21.5h-40.916666984558105Z" pointer-events="none" opacity="1"/><g><g class="mark-symbol role-legend-symbol" pointer-events="none"><path transform="translate(10.5,10.5)" d="M9.5,0A9.5,9.5,0,1,1,-9.5,0A9.5,9.5,0,1,1,9.5,0" fill="black" stroke-width="1.5" opacity="0.5"/></g><g class="mark-text role-legend-label" pointer-events="none"><text text-anchor="start" transform="translate(25,13.5)" font-family="sans-serif" font-size="10px" fill="#000" opacity="1">1.0</text></g></g><path class="foreground" aria-hidden="true" d="" pointer-events="none" display="none"/></g></g></g><path class="foreground" aria-hidden="true" d="" pointer-events="none" display="none"/></g></g><g class="mark-text role-legend-title" pointer-events="none"><text text-anchor="start" transform="translate(0,9)" font-family="sans-serif" font-size="11px" font-weight="bold" fill="#000" opacity="1">ratio</text></g></g><path class="foreground" aria-hidden="true" d="" pointer-events="none" display="none"/></g></g><g class="mark-group role-title"><g transform="translate(90,-17)"><path class="background" aria-hidden="true" d="M0,0h0v0h0Z" pointer-events="none"/><g><g class="mark-text role-title-text" role="graphics-symbol" aria-roledescription="title" aria-label="Title text 'Swan'" pointer-events="none"><text text-anchor="middle" transform="translate(0,10)" font-family="sans-serif" font-size="13px" font-weight="bold" fill="#000" opacity="1">Swan</text></g></g><path class="foreground" aria-hidden="true" d="" pointer-events="none" display="none"/></g></g><g class="mark-group role-axis" role="graphics-symbol" aria-roledescription="axis" aria-label="X-axis titled '# of species' for a discrete scale with 9 values: 1, 2, 3, 4, 5, ending with 9"><g transform="translate(0.5,160.5)"><path class="background" aria-hidden="true" d="M0,0h0v0h0Z" pointer-events="none"/><g><g class="mark-rule role-axis-tick" pointer-events="none"><line transform="translate(10,0)" x2="0" y2="5" stroke="#888" stroke-width="1" opacity="1"/><line transform="translate(30,0)" x2="0" y2="5" stroke="#888" stroke-width="1" opacity="1"/><line transform="translate(50,0)" x2="0" y2="5" stroke="#888" stroke-width="1" opacity="1"/><line transform="translate(70,0)" x2="0" y2="5" stroke="#888" stroke-width="1" opacity="1"/><line transform="translate(90,0)" x2="0" y2="5" stroke="#888" stroke-width="1" opacity="1"/><line transform="translate(110,0)" x2="0" y2="5" stroke="#888" stroke-width="1" opacity="1"/><line transform="translate(130,0)" x2="0" y2="5" stroke="#888" stroke-width="1" opacity="1"/><line transform="translate(150,0)" x2="0" y2="5" stroke="#888" stroke-width="1" opacity="1"/><line transform="translate(170,0)" x2="0" y2="5" stroke="#888" stroke-width="1" opacity="1"/></g><g class="mark-text role-axis-label" pointer-events="none"><text text-anchor="end" transform="translate(9.5,7) rotate(270) translate(0,3)" font-family="sans-serif" font-size="10px" fill="#000" opacity="1">1</text><text text-anchor="end" transform="translate(29.5,7) rotate(270) translate(0,3)" font-family="sans-serif" font-size="10px" fill="#000" opacity="1">2</text><text text-anchor="end" transform="translate(49.5,7) rotate(270) translate(0,3)" font-family="sans-serif" font-size="10px" fill="#000" opacity="1">3</text><text text-anchor="end" transform="translate(69.5,7) rotate(270) translate(0,3)" font-family="sans-serif" font-size="10px" fill="#000" opacity="1">4</text><text text-anchor="end" transform="translate(89.5,7) rotate(270) translate(0,3)" font-family="sans-serif" font-size="10px" fill="#000" opacity="1">5</text><text text-anchor="end" transform="translate(109.5,7) rotate(270) translate(0,3)" font-family="sans-serif" font-size="10px" fill="#000" opacity="1">6</text><text text-anchor="end" transform="translate(129.5,7) rotate(270) translate(0,3)" font-family="sans-serif" font-size="10px" fill="#000" opacity="1">7</text><text text-anchor="end" transform="translate(149.5,7) rotate(270) translate(0,3)" font-family="sans-serif" font-size="10px" fill="#000" opacity="1">8</text><text text-anchor="end" transform="translate(169.5,7) rotate(270) translate(0,3)" font-family="sans-serif" font-size="10px" fill="#000" opacity="1">9</text></g><g class="mark-rule role-axis-domain" pointer-events="none"><line transform="translate(0,0)" x2="180" y2="0" stroke="#888" stroke-width="1" opacity="1"/></g><g class="mark-text role-axis-title" pointer-events="none"><text text-anchor="middle" transform="translate(90,26.366666793823242)" font-family="sans-serif" font-size="11px" font-weight="bold" fill="#000" opacity="1"># of species</text></g></g><path class="foreground" aria-hidden="true" d="" pointer-events="none" display="none"/></g></g><g class="mark-group role-axis" role="graphics-symbol" aria-roledescription="axis" aria-label="Y-axis titled '# of colors' for a discrete scale with 8 values: 8, 7, 6, 5, 4, ending with 1"><g transform="translate(0.5,0.5)"><path class="background" aria-hidden="true" d="M0,0h0v0h0Z" pointer-events="none"/><g><g class="mark-rule role-axis-tick" pointer-events="none"><line transform="translate(0,10)" x2="-5" y2="0" stroke="#888" stroke-width="1" opacity="1"/><line transform="translate(0,30)" x2="-5" y2="0" stroke="#888" stroke-width="1" opacity="1"/><line transform="translate(0,50)" x2="-5" y2="0" stroke="#888" stroke-width="1" opacity="1"/><line transform="translate(0,70)" x2="-5" y2="0" stroke="#888" stroke-width="1" opacity="1"/><line transform="translate(0,90)" x2="-5" y2="0" stroke="#888" stroke-width="1" opacity="1"/><line transform="translate(0,110)" x2="-5" y2="0" stroke="#888" stroke-width="1" opacity="1"/><line transform="translate(0,130)" x2="-5" y2="0" stroke="#888" stroke-width="1" opacity="1"/><line transform="translate(0,150)" x2="-5" y2="0" stroke="#888" stroke-width="1" opacity="1"/></g><g class="mark-text role-axis-label" pointer-events="none"><text text-anchor="end" transform="translate(-7,12.5)" font-family="sans-serif" font-size="10px" fill="#000" opacity="1">8</text><text text-anchor="end" transform="translate(-7,32.5)" font-family="sans-serif" font-size="10px" fill="#000" opacity="1">7</text><text text-anchor="end" transform="translate(-7,52.5)" font-family="sans-serif" font-size="10px" fill="#000" opacity="1">6</text><text text-anchor="end" transform="translate(-7,72.5)" font-family="sans-serif" font-size="10px" fill="#000" opacity="1">5</text><text text-anchor="end" transform="translate(-7,92.5)" font-family="sans-serif" font-size="10px" fill="#000" opacity="1">4</text><text text-anchor="end" transform="translate(-7,112.5)" font-family="sans-serif" font-size="10px" fill="#000" opacity="1">3</text><text text-anchor="end" transform="translate(-7,132.5)" font-family="sans-serif" font-size="10px" fill="#000" opacity="1">2</text><text text-anchor="end" transform="translate(-7,152.5)" font-family="sans-serif" font-size="10px" fill="#000" opacity="1">1</text></g><g class="mark-rule role-axis-domain" pointer-events="none"><line transform="translate(0,0)" x2="0" y2="160" stroke="#888" stroke-width="1" opacity="1"/></g><g class="mark-text role-axis-title" pointer-events="none"><text text-anchor="middle" transform="translate(-17.366666793823242,80) rotate(-90) translate(0,-2)" font-family="sans-serif" font-size="11px" font-weight="bold" fill="#000" opacity="1"># of colors</text></g></g><path class="foreground" aria-hidden="true" d="" pointer-events="none" display="none"/></g></g></g><path class="foreground" aria-hidden="true" d="" display="none"/></g></g></g></svg>