<?xml version="1.0" encoding="UTF-8" standalone="no"?>
<!-- Created with Inkscape (http://www.inkscape.org/) -->

<svg
   xmlns:dc="http://purl.org/dc/elements/1.1/"
   xmlns:cc="http://creativecommons.org/ns#"
   xmlns:rdf="http://www.w3.org/1999/02/22-rdf-syntax-ns#"
   xmlns:svg="http://www.w3.org/2000/svg"
   xmlns="http://www.w3.org/2000/svg"
   xmlns:sodipodi="http://sodipodi.sourceforge.net/DTD/sodipodi-0.dtd"
   xmlns:inkscape="http://www.inkscape.org/namespaces/inkscape"
   version="1.1"
   id="svg869"
   width="876.53363"
   height="879.20251"
   viewBox="0 0 876.53363 879.20251"
   sodipodi:docname="icon.svg"
   inkscape:version="0.92.3 (2405546, 2018-03-11)">
  <metadata
     id="metadata875">
    <rdf:RDF>
      <cc:Work
         rdf:about="">
        <dc:format>image/svg+xml</dc:format>
        <dc:type
           rdf:resource="http://purl.org/dc/dcmitype/StillImage" />
        <dc:title></dc:title>
      </cc:Work>
    </rdf:RDF>
  </metadata>
  <defs
     id="defs873" />
  <sodipodi:namedview
     pagecolor="#ffffff"
     bordercolor="#666666"
     borderopacity="1"
     objecttolerance="10"
     gridtolerance="10"
     guidetolerance="10"
     inkscape:pageopacity="0"
     inkscape:pageshadow="2"
     inkscape:window-width="1920"
     inkscape:window-height="1145"
     id="namedview871"
     showgrid="false"
     fit-margin-top="50"
     fit-margin-left="50"
     fit-margin-right="50"
     fit-margin-bottom="50"
     inkscape:zoom="1.0723026"
     inkscape:cx="308.58466"
     inkscape:cy="383.34212"
     inkscape:window-x="1280"
     inkscape:window-y="27"
     inkscape:window-maximized="1"
     inkscape:current-layer="svg869" />
  <g
     id="g929"
     transform="translate(-89.551249,18.94571)">
    <path
       style="fill:#d8d8d9"
       d="m 465.74689,775.34389 -61,-34.97265 -0.67434,-6.76135 c -0.37089,-3.71873 -1.44113,-35.11134 -2.37831,-69.76134 -0.93719,-34.65 -1.83481,-63.15108 -1.99473,-63.33573 -0.30761,-0.3552 -112.16816,41.17401 -116.46735,43.23952 -2.33634,1.12248 -6.87633,-1.18969 -64,-32.59452 l -61.48527,-33.80271 -0.77725,-4.75328 c -0.94191,-5.76024 -17.83007,-205.47929 -17.41071,-205.89865 0.1627,-0.16271 23.55905,-4.46957 51.99189,-9.5708 l 51.69607,-9.27498 0.007,-5.00443 c 0.004,-2.75243 -0.71362,-16.17424 -1.59486,-29.82623 -0.88123,-13.652 -1.42438,-24.99968 -1.20699,-25.21707 0.21739,-0.21739 30.21364,-4.61687 66.65832,-9.77662 l 66.26307,-9.38136 51.68653,9.34185 c 28.42759,5.13802 51.79903,9.34482 51.93653,9.34843 0.1375,0.004 0.25,1.13158 0.25,2.50658 0,1.375 0.3375,2.51286 0.75,2.52859 0.4125,0.0157 11.89374,-1.86645 25.51386,-4.1826 l 24.76386,-4.21119 24.73614,4.19416 c 13.60488,2.30679 25.07364,4.18896 25.48614,4.1826 0.4125,-0.006 0.75,-1.08342 0.75,-2.39348 0,-2.21811 0.63612,-2.49588 9.25,-4.03914 5.0875,-0.91148 28.73141,-5.15734 52.54203,-9.43526 l 43.29203,-7.77803 65.69782,9.39036 c 36.1338,5.1647 65.89375,9.58629 66.13322,9.82576 0.23947,0.23947 -0.35804,13.74196 -1.3278,30.00553 -0.96976,16.26358 -1.61112,29.71893 -1.42525,29.90078 0.18587,0.18185 23.28795,4.47097 51.33795,9.53139 28.05,5.06041 51.14956,9.33827 51.33236,9.50634 0.37285,0.34281 -16.70247,204.75519 -17.38564,208.12735 -0.34083,1.68237 -14.08522,9.58623 -62.86047,36.14859 l -62.42385,33.99545 -58.22959,-21.91668 c -32.02627,-12.05417 -58.40404,-21.74222 -58.61727,-21.52899 -0.21322,0.21322 -1.31977,31.38385 -2.45899,69.26807 -1.13921,37.88422 -2.13539,68.91009 -2.21373,68.94637 -0.0783,0.0363 -27.59242,15.64945 -61.14242,34.69593 -33.55,19.04647 -61.675,34.87208 -62.5,35.16802 -0.86336,0.3097 -27.39009,-14.30529 -62.5,-34.43458 z m 28.5,-232.48249 3.5,-1.29232 -2.5,-0.96614 c -15.72181,-6.07578 -33.2123,-12.37542 -33.51607,-12.07165 -0.20999,0.20999 -0.11319,6.06673 0.21512,13.01499 l 0.59691,12.6332 14.10202,-5.01288 c 7.75611,-2.75708 15.67702,-5.59442 17.60202,-6.3052 z m 99,-2.01285 c 0,-6.875 -0.3375,-12.49513 -0.75,-12.48918 -0.99813,0.0144 -34.89232,12.87248 -34.25,12.99306 0.275,0.0516 7.7,2.73031 16.5,5.95264 8.8,3.22233 16.5625,5.90034 17.25,5.95113 0.93826,0.0693 1.25,-3.02506 1.25,-12.40765 z M 498.77375,272.09568 c -15.91439,-2.65221 -29.11816,-5.0051 -29.34172,-5.22865 -0.22355,-0.22355 -0.64027,-3.31928 -0.92604,-6.8794 l -0.51958,-6.47294 -5.86976,-0.68126 c -4.04418,-0.46937 -5.86976,-1.11724 -5.86976,-2.08307 0,-0.77099 -0.21403,-1.40181 -0.47561,-1.40181 -1.47792,0 -65.92944,-10.07172 -66.20317,-10.34544 -0.25975,-0.25976 -6.31706,-195.033571 -6.32038,-203.232884 -8.4e-4,-2.067659 0.3211,-2.085423 62.74916,-3.46241 34.5125,-0.761248 70.4,-1.31236 79.75,-1.224693 20.95968,0.19652 146.82167,3.225627 147.03249,3.538615 0.1213,0.18007 -4.49818,157.353842 -5.73789,195.226812 l -0.2946,9 -39.5,5.95347 -39.5,5.95348 0.35042,4.85446 c 0.19273,2.66996 0.067,6.36496 -0.27929,8.21112 -0.72136,3.84519 3.5214,2.77911 -37.59008,9.44534 l -22.51894,3.65144 z"
       id="path947"
       inkscape:connector-curvature="0" />
    <path
       style="fill:#bdbdbe"
       d="m 466.24689,775.30909 c -33.275,-19.17074 -60.82781,-34.99193 -61.22846,-35.15821 -0.56403,-0.23409 -4.75357,-120.46384 -4.76835,-136.84011 l -0.003,-3.53778 14.75,-5.29416 c 25.65031,-9.20655 31.5528,-11.35338 39.5,-14.36675 l 7.75,-2.9386 0.004,-11.16247 0.004,-11.16246 18.05006,-6.39575 c 9.92754,-3.51766 17.68816,-6.70794 17.24582,-7.0895 -0.44234,-0.38156 -8.45425,-3.52106 -17.80425,-6.97667 -9.35,-3.4556 -17.30643,-6.56533 -17.68096,-6.9105 -0.37453,-0.34517 -1.22081,-36.40258 -1.88061,-80.12758 -0.6598,-43.725 -1.37571,-79.69734 -1.59091,-79.93854 -0.47499,-0.53238 -189.59001,41.02402 -190.46569,41.8532 -0.33999,0.32194 2.43245,53.23534 6.16099,117.58534 3.72854,64.35 6.64006,117.14165 6.47006,117.31477 -0.21608,0.22005 -120.8819,-65.64715 -123.23127,-67.26758 -0.21745,-0.14999 -16.99542,-197.034 -17.51091,-205.48493 l -0.2707,-4.43773 51.91582,-9.31142 c 28.5537,-5.12128 52.02676,-9.4243 52.16234,-9.56226 0.13559,-0.13797 -0.60156,-13.30085 -1.63812,-29.25085 -1.03656,-15.95 -1.89711,-29.5625 -1.91234,-30.25 -0.0152,-0.6875 0.9848,-1.24526 2.2223,-1.23948 1.2375,0.006 31.21198,-4.09063 66.60995,-9.10314 l 64.35994,-9.11367 48.14006,8.65898 c 26.47703,4.76245 49.47005,8.99479 51.09562,9.4052 2.1368,0.5395 -15.03877,3.72922 -62,11.51418 -35.72557,5.92238 -65.79484,11.00821 -66.82061,11.30185 -1.74918,0.50071 -1.82032,1.38165 -1.14502,14.17998 0.39601,7.50536 0.88766,13.82348 1.09254,14.04027 0.20489,0.2168 10.39515,2.81705 22.64502,5.77835 12.24988,2.96129 23.06,5.62674 24.0225,5.92321 1.61064,0.49612 1.75,-0.60842 1.75,-13.87003 v -14.40907 l 38.46094,-6.89386 38.46095,-6.89386 0.28905,-6.93078 0.28906,-6.93078 29.1142,-4.89337 29.1142,-4.89337 25.6358,4.39447 25.6358,4.39448 v -2.26739 c 0,-1.29409 0.7512,-2.49125 1.75,-2.78888 0.9625,-0.28682 24.68376,-4.62421 52.7139,-9.63864 l 50.9639,-9.11714 65.30951,9.31344 c 35.92023,5.1224 64.74492,9.50164 64.05487,9.73166 -0.69004,0.23001 -22.96755,5.213 -49.50557,11.0733 -26.53802,5.8603 -48.59647,10.99931 -49.01878,11.42002 -0.72478,0.72205 -1.79288,27.62344 -1.09531,27.58693 0.18011,-0.009 3.70248,-0.90171 7.82748,-1.98286 4.125,-1.08115 8.85,-1.95353 10.5,-1.93864 1.65,0.0149 43.5,7.36857 93,16.34148 l 90,16.3144 -63,20.74686 c -34.65,11.41078 -63.43413,21.15603 -63.96473,21.65611 -0.5306,0.50009 -3.9694,53.35392 -7.64178,117.45297 -3.67238,64.09904 -6.9375,116.80417 -7.25583,117.12249 -0.31832,0.31833 -33.25401,-11.67579 -73.19042,-26.65358 -43.34233,-16.25516 -73.41148,-27.0232 -74.59588,-26.71347 -1.09133,0.28539 -23.55433,9.88629 -49.91779,21.33534 l -47.93339,20.81646 v 88.75979 c 0,48.81788 -0.3375,88.71849 -0.75,88.668 -0.4125,-0.0505 -27.975,-15.77693 -61.25,-34.94767 z M 594.13496,512.53116 c 0.11017,-22.94992 0.0802,-23.3073 -1.90441,-22.67742 -1.92518,0.61102 -21.58297,-4.8198 -23.27078,-6.42899 -0.43292,-0.41274 -0.47418,-19.45331 -0.0917,-42.31237 l 0.69543,-41.56193 7.09169,-1.85095 7.0917,-1.85095 0.27283,-17.68986 c 0.24317,-15.76657 0.46061,-17.7423 2,-18.17221 0.94994,-0.2653 7.80217,-1.90457 15.22717,-3.64283 15.9568,-3.73562 19.00494,-3.3888 18.20357,2.07124 -0.44087,3.00386 -0.30273,3.19238 1.9106,2.60754 1.31221,-0.34673 11.24263,-2.74735 22.06762,-5.33469 l 19.68178,-4.70427 0.63958,-7.06746 c 0.35177,-3.8871 0.49496,-10.44246 0.31821,-14.56746 -0.2562,-5.97924 -0.62551,-7.45575 -1.82136,-7.28175 -0.825,0.12004 -31.15249,6.75754 -67.39443,14.75 -36.24194,7.99246 -66.05444,14.53175 -66.25,14.53175 -0.19556,0 -0.35557,45.17355 -0.35557,100.38567 v 100.38567 l 13.2007,-4.95826 c 7.26038,-2.72704 14.34788,-4.96769 15.75,-4.97922 1.40211,-0.0115 9.9743,2.67135 19.0493,5.96193 l 16.5,5.98288 0.63807,-9.13933 c 0.35094,-5.02664 0.68844,-19.63216 0.75,-32.45673 z M 498.5677,272.06134 c -15.80106,-2.63332 -28.91211,-4.97076 -29.13567,-5.19431 -0.22355,-0.22355 -0.64027,-3.31928 -0.92604,-6.8794 l -0.51958,-6.47294 -5.86976,-0.68126 c -3.88685,-0.45111 -5.86976,-1.13205 -5.86976,-2.01568 0,-1.83224 0.4195,-1.74774 -35.25,-7.10043 l -31.75,-4.76451 -0.0249,-5.55213 c -0.0137,-3.05367 -1.32727,-48.97607 -2.91902,-102.04978 -1.59176,-53.073718 -2.70699,-96.684775 -2.4783,-96.913468 0.52618,-0.526174 142.65815,-3.82401 143.67222,-3.333574 0.4125,0.199497 0.75,51.636169 0.75,114.303712 0,73.11707 0.34831,113.94098 0.97214,113.94098 1.17328,0 53.79017,-7.87892 56.27786,-8.42712 1.55653,-0.34301 1.75,0.52739 1.75,7.87307 v 8.25871 l -29.97499,4.89799 -29.97499,4.89799 z"
       id="path945"
       inkscape:connector-curvature="0" />
    <path
       style="fill:#a4a4a4"
       d="m 465.71601,774.40643 -60.96912,-34.94211 -2.06954,-69.30789 c -1.13825,-38.11933 -1.96806,-69.45307 -1.84402,-69.63053 0.12404,-0.17746 6.44204,-2.66633 14.04001,-5.53083 l 13.81448,-5.20818 49.27185,21.53083 49.27184,21.53083 0.008,88.25 c 0.004,48.5375 -0.11871,88.25 -0.27319,88.25 -0.15449,0 -27.71699,-15.72395 -61.25,-34.94212 z M 699.14473,616.53058 c -40.48118,-15.22512 -80.90455,-30.34937 -89.82971,-33.60946 l -16.22757,-5.92743 0.58793,-26.07257 c 0.32336,-14.33991 0.84485,-34.3267 1.15887,-44.41508 l 0.57096,-18.34251 -2.32916,0.74969 c -3.33302,1.0728 -3.29872,1.07856 -14.69137,-2.46738 l -10.3622,-3.22523 0.6122,-3.06103 c 0.33672,-1.68357 0.61221,-20.5164 0.61221,-41.85075 v -38.78971 l 7.36768,-1.73694 7.36768,-1.73693 0.47755,-17.36024 c 0.26265,-9.54814 0.74901,-17.63171 1.0808,-17.9635 1.35329,-1.35329 28.39881,-7.16098 31.0091,-6.65881 2.52341,0.48544 2.77263,0.89556 2.5,4.11395 l -0.30281,3.57475 -10.5,2.62688 c -7.10196,1.77677 -9.85275,2.83288 -8.5,3.26341 1.1,0.35009 43.57864,9.86849 94.39698,21.152 50.81833,11.28352 92.58235,20.70085 92.80891,20.92742 0.22657,0.22657 -2.54183,51.87293 -6.15201,114.76969 -3.61017,62.89676 -6.56168,115.59525 -6.55891,117.10775 0.003,1.5125 -0.33247,2.71941 -0.74497,2.68203 -0.4125,-0.0374 -33.87097,-12.52488 -74.35216,-27.75 z M 218.26604,609.81377 157.78519,576.4373 148.9373,472.305 c -4.86635,-57.27276 -8.6156,-104.3646 -8.33167,-104.64852 0.5357,-0.53571 124.62665,40.46266 125.81221,41.56706 0.53844,0.50158 13.86277,223.79521 13.8364,231.87501 -0.004,1.2375 -0.34485,2.21438 -0.75735,2.17085 -0.4125,-0.0435 -27.96638,-15.09856 -61.23085,-33.45563 z m 299.48085,-13.9023 c -5.5,-2.29276 -17.9875,-7.46213 -27.75,-11.48748 l -17.75,-7.31882 v -12.26565 -12.26565 l 13.53553,-4.75607 c 7.44454,-2.61583 13.38064,-5.22075 13.19132,-5.78871 -0.18932,-0.56795 -8.28652,-4.00963 -17.99378,-7.64817 -9.70726,-3.63854 -17.84108,-6.82182 -18.07516,-7.07395 -0.88946,-0.95804 -2.72173,-77.13031 -2.76525,-114.95842 -0.025,-21.725 -0.27011,-40.87699 -0.54469,-42.55997 l -0.49925,-3.05996 -32.67436,-7.95664 -32.67436,-7.95664 -0.76407,-12.4834 c -0.42024,-6.86586 -0.64524,-13.43062 -0.5,-14.58834 0.25478,-2.03092 2.62899,-1.57637 67.51407,12.9257 l 67.25,15.03065 v 100.43129 c 0,95.24886 0.0903,100.39516 1.75,99.73124 0.9625,-0.38502 7.2541,-2.72821 13.98134,-5.20708 l 12.23134,-4.50703 14.26866,5.17757 c 7.84776,2.84766 14.60884,5.78254 15.02462,6.52194 0.41577,0.73941 2.10327,1.6403 3.75,2.00198 2.61088,0.57344 2.99404,1.09363 2.99404,4.06473 0,2.94863 -0.47098,3.60391 -3.5,4.86951 -3.39076,1.41675 -3.5,1.63188 -3.5,6.89251 v 5.43012 l -25.96847,10.63367 c -14.28266,5.84852 -26.99516,11.01754 -28.25,11.4867 -1.72707,0.64573 -4.71173,-0.16004 -12.28153,-3.31563 z m 146.68002,-259.91975 0.43296,-14.39113 -38.55649,-6.95195 -38.55649,-6.95196 -0.5,7.03296 -0.5,7.03296 -29.5,6.11465 -29.5,6.11464 -7.5,-1.6001 c -7.37759,-1.57398 -7.71217,-1.55564 -20.5,1.12352 l -13,2.72362 -14.5,-3.21409 -14.5,-3.21409 -0.3053,-3.64616 c -0.33456,-3.99553 -0.13759,-4.13451 7.5553,-5.33089 l 4.25,-0.66095 V 307.2797 c 0,-12.57846 0.0549,-12.90338 2.25,-13.31639 1.2375,-0.23284 14.625,-2.4718 29.75,-4.97546 l 27.5,-4.55213 23,3.93295 c 12.65,2.16312 24.0125,4.17708 25.25,4.47547 1.75257,0.42257 2.25,0.10919 2.25,-1.41752 0,-1.07802 0.41883,-2.21889 0.93073,-2.53526 0.90038,-0.55647 133.05568,21.11026 133.89783,21.95242 0.22954,0.22954 0.0924,6.48486 -0.30482,13.90073 l -0.72217,13.48339 -23.15078,5.59718 c -12.73294,3.07845 -23.7702,5.81331 -24.52726,6.07747 -1.13986,0.39773 -1.30204,-1.99342 -0.94351,-13.91083 z m -420.17082,9.60683 c 0.005,-0.9625 -0.73816,-14.01929 -1.65158,-29.01509 -0.91343,-14.9958 -1.40898,-27.51689 -1.10122,-27.82465 0.61877,-0.61876 97.14313,20.6023 99.05018,21.77637 0.78673,0.48435 1.36381,5.34931 1.69342,14.27613 0.275,7.44777 0.5,13.53145 0.5,13.51928 0,-0.0122 -4.21712,-1.10476 -9.37138,-2.42797 l -9.37138,-2.40585 -38.38354,6.92589 c -21.11094,3.80924 -39.05632,6.92589 -39.87861,6.92589 -0.8223,0 -1.49095,-0.7875 -1.48589,-1.75 z m 252.2408,-74.08489 -27.25,-4.61033 v -6.30878 c 0,-7.00304 0.0378,-6.96306 -7.64991,-8.10121 -3.44384,-0.50985 -4.81894,-1.16009 -4.74266,-2.24265 0.0878,-1.24558 -5.95167,-2.43687 -33,-6.50928 l -33.10743,-4.98466 -0.71709,-6.4541 c -0.8242,-7.41807 -6.2711,-196.814413 -5.67607,-197.364734 0.21624,-0.199992 22.89316,-0.865049 50.39316,-1.477906 27.5,-0.612857 59.5625,-1.40188 71.25,-1.753385 l 21.25,-0.639099 V 145.20804 c 0,113.87121 0.005,114.14051 2.02111,114.14051 1.11161,0 13.81352,-1.8 28.22647,-4 14.41296,-2.2 27.00346,-4 27.9789,-4 1.5477,0 1.77352,1.00144 1.77352,7.86487 v 7.86488 l -28.75,4.64807 c -15.8125,2.55644 -30.1,4.59172 -31.75,4.52285 -1.65,-0.0689 -15.2625,-2.19988 -30.25,-4.73556 z"
       id="path943"
       inkscape:connector-curvature="0" />
    <path
       style="fill:#cb6e76"
       d="m 500.42974,588.41955 c -14.47443,-5.97958 -26.44955,-11.02925 -26.61136,-11.22148 -0.16182,-0.19224 -0.56473,-5.63021 -0.89537,-12.0844 -0.70595,-13.78053 -2.40493,-11.81792 15.83045,-18.2868 l 12.42513,-4.40774 13.57798,5.1142 13.57798,5.11421 13.44264,-5.02115 13.44265,-5.02114 13.76353,4.9122 c 7.56993,2.7017 14.21352,5.49594 14.76352,6.20942 0.55,0.71347 2.35,1.74238 4,2.28646 2.33813,0.77099 3.06699,1.66058 3.30366,4.03218 0.27153,2.72098 -0.11987,3.2124 -3.69925,4.64459 -3.94991,1.58044 -4.00689,1.67704 -4.30366,7.29638 l -0.30075,5.69474 -26.43605,10.83367 c -14.53983,5.95851 -27.13983,10.82083 -28,10.80515 -0.86017,-0.0157 -13.40667,-4.9209 -27.8811,-10.90049 z m -36.77005,-99.04194 c -2.0176,-0.81601 -2.10924,-1.72265 -2.74795,-27.18661 -0.98657,-39.3318 -0.83959,-68.84245 0.34287,-68.84245 0.55424,0 6.34862,1.40963 12.8764,3.1325 l 11.86868,3.13251 0.61491,5.11749 c 0.3382,2.81463 0.61882,7.68766 0.6236,10.82896 l 0.009,5.71145 3.75,1.04024 c 2.0625,0.57213 7.575,2.09762 12.25,3.38998 l 8.5,2.34975 0.26919,21.53534 0.26918,21.53533 -2.56232,0.64311 c -1.58756,0.39845 -5.6844,-0.33352 -10.76919,-1.92411 -4.51377,-1.41196 -8.97648,-2.80005 -9.91713,-3.08465 -1.50877,-0.45649 -1.7444,0.51646 -2,8.25839 l -0.28973,8.77584 -10,3.2096 c -11.42909,3.66828 -10.3707,3.47602 -13.0872,2.37733 z m 116.0872,-2.51043 -10,-3.13694 v -41.87713 -41.87712 l 6.8255,-1.72255 c 3.75402,-0.9474 7.06964,-1.9667 7.36805,-2.2651 0.2984,-0.29841 0.77778,-8.37686 1.06528,-17.95212 l 0.52273,-17.40956 13.60922,-3.15999 c 7.48507,-1.73799 15.07172,-3.15057 16.85922,-3.13905 3.02554,0.0195 3.25,0.25584 3.25,3.42215 v 3.40121 l -11.34009,2.7658 -11.34009,2.7658 -0.65991,40.49687 c -0.36295,22.27328 -0.65991,49.36802 -0.65991,60.21054 0,24.81642 0.30375,24.43473 -15.5,19.47719 z m -108.5,-154.41553 -12.5,-2.71006 -0.30458,-3.5994 c -0.29913,-3.53512 -0.22769,-3.61137 4,-4.26957 8.79417,-1.36914 8.17851,-0.16528 7.48621,-14.63874 -0.33899,-7.08693 -0.29353,-12.88604 0.10101,-12.88691 0.39455,-8.7e-4 13.76736,-2.23393 29.71736,-4.96236 l 29,-4.96079 26,4.44522 c 14.3,2.44486 27.51105,4.70743 29.35789,5.02791 l 3.3579,0.58271 -0.71928,13.18444 c -0.39559,7.25145 -0.87535,13.35315 -1.06612,13.55935 -0.19077,0.20619 -13.07815,3.06091 -28.63862,6.34381 l -28.29177,5.96892 -8.5,-1.54884 c -8.26924,-1.50679 -8.79863,-1.48287 -19.5,0.88118 -13.41722,2.96402 -13.93987,2.95664 -29.5,-0.41687 z m 26,-60.98848 -27.5,-4.66875 -0.29445,-6.66833 -0.29444,-6.66832 -4.70556,-0.62926 c -6.08206,-0.81334 -7.20555,-1.19512 -7.20555,-2.44858 0,-1.3696 -2.93754,-1.71861 36.52791,4.33988 l 34.98879,5.37126 28.49165,-4.35139 c 15.67041,-2.39327 28.84808,-4.36033 29.28371,-4.37126 0.43564,-0.0109 0.66064,3.45502 0.5,7.70212 l -0.29206,7.72198 -29,4.7458 c -15.95,2.61019 -29.9,4.71155 -31,4.6697 -1.1,-0.0419 -14.375,-2.17703 -29.5,-4.74485 z"
       id="path941"
       inkscape:connector-curvature="0" />
    <path
       style="fill:#b3636a"
       d="m 500.42974,588.41955 c -14.47443,-5.97958 -26.44955,-11.02925 -26.61136,-11.22148 -0.16182,-0.19224 -0.56473,-5.63021 -0.89537,-12.0844 -0.70595,-13.78053 -2.40493,-11.81792 15.83045,-18.2868 l 12.42513,-4.40774 13.57798,5.1142 13.57798,5.11421 13.44264,-5.02115 13.44265,-5.02114 13.73829,4.9263 c 7.55605,2.70947 14.06464,5.45436 14.46352,6.09977 0.39889,0.64541 2.21025,1.67064 4.02524,2.27828 2.49594,0.83562 3.37813,1.7654 3.62068,3.81596 0.27666,2.33904 -0.23664,2.94529 -3.73983,4.41707 -4.05338,1.70293 -4.06053,1.71568 -4.07068,7.26368 l -0.0102,5.55776 -27.42705,11.19224 c -15.08488,6.15573 -27.79738,11.17941 -28.25,11.16373 -0.45262,-0.0157 -12.66567,-4.9209 -27.1401,-10.90049 z m -36.77005,-99.04194 c -2.0176,-0.81601 -2.10924,-1.72265 -2.74795,-27.18661 -0.97529,-38.88219 -0.83669,-68.84245 0.31847,-68.84245 1.30133,0 23.3535,6.00349 23.8403,6.49029 0.35692,0.35691 -2.09099,1.08057 -12.07362,3.56923 -2.3375,0.58274 -5.0947,1.30622 -6.12712,1.60773 -1.81314,0.52953 -1.85194,1.99308 -1.13854,42.94048 0.40621,23.31575 0.57591,42.36375 0.37711,42.32888 -0.1988,-0.0349 -1.30069,-0.44326 -2.44865,-0.90755 z m 116.0872,-2.54835 -10,-3.09862 -0.26091,-41.61691 -0.26091,-41.61692 5.76091,-1.63074 c 3.1685,-0.89691 6.48427,-1.84024 7.36837,-2.09628 1.94398,-0.56299 2.87489,-8.60556 2.88543,-24.92853 l 0.007,-11.0073 13.75,-3.24611 c 13.44097,-3.17315 19.33736,-3.99609 17.83607,-2.4893 -0.411,0.4125 -6.4485,2.10689 -13.41667,3.76531 l -12.6694,3.01531 -0.27393,17.30939 -0.27394,17.30939 2.77394,-0.3247 c 2.6237,-0.30712 2.77393,-0.10807 2.77393,3.6753 0,3.189 -0.45619,4.20014 -2.25,4.98713 l -2.25,0.98713 -0.11746,32.51287 c -0.0646,17.88208 -0.4021,36.80572 -0.75,42.05253 l -0.63254,9.53967 -10,-3.09862 z m -86,-18.43013 -12,-3.70871 -0.26982,-21.14691 -0.26982,-21.14691 2.62115,-0.65786 c 1.67492,-0.42038 6.93438,0.53683 14.56934,2.65159 11.40718,3.15961 15.36416,4.95822 10.90817,4.95822 -2.01485,0 -2.05902,0.46125 -2.05902,21.5 0,11.825 -0.3375,21.44584 -0.75,21.37965 -0.4125,-0.0662 -6.15,-1.78928 -12.75,-3.82907 z m -22.5,-135.94748 -12.5,-2.71006 -0.30433,-3.59521 -0.30432,-3.59521 4.85215,-0.66734 c 7.81987,-1.07551 7.6567,-0.72876 6.94554,-14.76046 l -0.629,-12.41059 29.38798,-4.98778 29.38798,-4.98779 28.17887,4.73588 c 15.49838,2.60473 28.34013,4.89713 28.53723,5.09423 0.1971,0.1971 -11.43399,2.52273 -25.84687,5.16808 -14.41288,2.64534 -27.21773,5.03927 -28.45523,5.31984 -2.20087,0.49899 -2.25,0.81344 -2.25,14.40172 0,10.45964 -0.30882,13.88555 -1.25,13.86714 -1.10067,-0.0215 -5.10211,-0.82267 -12.5,-2.50269 -1.71586,-0.38966 -2.25,-1.21862 -2.25,-3.49191 0,-1.63952 -0.53144,-2.98095 -1.18097,-2.98095 -0.64953,0 -6.27453,0.99269 -12.5,2.20597 l -11.31903,2.20596 v 3.29404 c 0,3.98675 0.49974,3.97435 -16,0.39713 z m 26,-60.98848 -27.5,-4.66875 -0.29445,-6.66833 -0.29444,-6.66832 -4.70556,-0.62926 c -6.08206,-0.81334 -7.20555,-1.19512 -7.20555,-2.44858 0,-1.3696 -2.93754,-1.71861 36.52791,4.33988 l 34.98879,5.37126 28.49165,-4.35139 c 15.67041,-2.39327 28.84808,-4.36033 29.28371,-4.37126 0.43564,-0.0109 0.66064,3.45502 0.5,7.70212 l -0.29206,7.72198 -29,4.7458 c -15.95,2.61019 -29.9,4.71155 -31,4.6697 -1.1,-0.0419 -14.375,-2.17703 -29.5,-4.74485 z"
       id="path939"
       inkscape:connector-curvature="0" />
    <path
       style="fill:#995359"
       d="m 517.74689,595.51588 c -4.95,-2.07575 -16.9875,-7.06733 -26.75,-11.0924 l -17.75,-7.31831 0.01,-12.12831 0.01,-12.12831 13.72438,-4.91667 c 7.54841,-2.70416 14.18147,-4.9165 14.74014,-4.9163 0.55867,2e-4 6.7743,2.16698 13.81252,4.81507 l 12.79675,4.8147 13.40943,-5.00873 13.40942,-5.00874 14.04382,5.01824 c 7.73314,2.76336 14.04354,5.57129 14.04354,6.24905 0,0.67694 1.575,1.52627 3.5,1.8874 3.17946,0.59647 3.5,0.96589 3.5,4.03374 0,2.9729 -0.41895,3.5154 -3.5,4.53224 -3.45631,1.14068 -3.5,1.22636 -3.5,6.8631 v 5.708 l -27.46123,11.21445 c -15.10368,6.16795 -27.81618,11.20127 -28.25,11.18516 -0.43383,-0.0161 -4.83877,-1.72763 -9.78877,-3.80338 z M 462.64322,488.58324 c -0.75643,-0.50353 -1.3246,-13.897 -1.80583,-42.56877 -0.67108,-39.98294 -0.62236,-41.8187 1.10111,-41.48679 1.36829,0.2635 1.96842,1.67076 2.48797,5.83407 1.15858,9.28423 1.44141,78.98995 0.32042,78.9721 -0.55,-0.009 -1.49665,-0.34653 -2.10367,-0.75061 z m 115.69624,-2.45796 -9.40743,-3.01413 0.60079,-40.99133 c 0.33043,-22.54522 0.79823,-41.18876 1.03954,-41.43008 0.46785,-0.46784 19.52254,4.17349 20.29169,4.94264 0.25079,0.25079 0.14253,19.18953 -0.24058,42.08608 -0.48622,29.05881 -1.02572,41.59851 -1.78657,41.52552 -0.59951,-0.0575 -5.32335,-1.46093 -10.49744,-3.1187 z m -80.09257,-16.9576 c -4.675,-1.57557 -9.81213,-3.09899 -11.41584,-3.38538 -1.60372,-0.28639 -3.23879,-0.7203 -3.6335,-0.96424 -1.06665,-0.65923 -2.3363,-40.49936 -1.31966,-41.40931 0.47795,-0.4278 6.137,0.78747 12.57566,2.70058 l 11.70666,3.47839 0.59343,4.13041 c 0.32638,2.27173 0.45838,11.82177 0.29334,21.22232 l -0.30009,17.09189 z m 88.75,-72.56839 c -1.58619,-0.36019 -1.75,-2.06249 -1.75,-18.18539 v -17.78801 l 2.5,0.47791 2.5,0.4779 v 17.32441 c 0,9.52842 -0.3375,17.49679 -0.75,17.70749 -0.4125,0.21069 -1.5375,0.20425 -2.5,-0.0143 z m -108.25,-62.88427 c -3.3,-0.77659 -9.2625,-2.12192 -13.25,-2.98961 -7.20833,-1.56855 -7.25,-1.5965 -7.25,-4.86231 v -3.28469 l 13.62627,2.90409 c 7.49444,1.59725 14.01944,3.14709 14.5,3.44409 1.37889,0.8522 1.04592,6.43722 -0.37627,6.31119 -0.6875,-0.0609 -3.95,-0.74617 -7.25,-1.52276 z m 47,-0.88208 c -0.55,-0.19674 -3.5875,-0.86812 -6.75,-1.49195 -5.60729,-1.10609 -5.75,-1.21602 -5.75,-4.42961 v -3.29537 l -14.01253,-2.76994 c -13.58848,-2.68611 -19.40471,-2.87705 -26.73747,-0.87773 l -2.25,0.61347 v -13.13568 c 0,-13.10535 0.005,-13.13452 2.25,-12.63004 1.2375,0.27811 13.275,2.54271 26.75,5.03246 13.475,2.48975 25.5125,4.75435 26.75,5.03246 2.20193,0.49484 2.25,0.80432 2.25,14.48659 0,7.68952 -0.3375,13.94542 -0.75,13.902 -0.4125,-0.0434 -1.2,-0.23992 -1.75,-0.43666 z m -28.5,-61.36977 -27.5,-4.66875 -0.29304,-6.60654 c -0.28812,-6.49574 -0.34472,-6.61688 -3.375,-7.22294 -1.69508,-0.33901 -4.12415,-0.61639 -5.39794,-0.61639 -2.26943,0 -4.15219,-1.61517 -3.10428,-2.66308 0.29151,-0.2915 9.22407,0.84711 19.85014,2.53027 10.62607,1.68315 26.66964,4.16314 35.6524,5.5111 l 16.33227,2.45082 25.66773,-3.88441 c 14.11724,-2.13642 27.13022,-4.14336 28.91772,-4.45986 l 3.25,-0.57547 v 7.52626 c 0,6.98565 -0.16162,7.56328 -2.25,8.04161 -4.20323,0.96272 -57.94326,9.52337 -59.09985,9.41445 -0.63258,-0.0596 -13.52515,-2.20925 -28.65015,-4.77707 z"
       id="path937"
       inkscape:connector-curvature="0" />
    <path
       style="fill:#a0444b"
       d="m 500.51288,588.05954 -27.23401,-11.21099 -0.003,-12 -0.003,-12 13.43389,-4.75 c 7.38864,-2.6125 13.99392,-4.75 14.6784,-4.75 0.68448,0 6.82242,2.09847 13.63988,4.66328 l 12.39537,4.66327 4.6637,-1.56206 c 2.56503,-0.85914 8.7534,-3.05112 13.75192,-4.87106 l 9.08822,-3.30899 13.41178,4.79316 c 7.37648,2.63623 13.86178,5.35673 14.41178,6.04555 0.55,0.68881 2.35,1.69755 4,2.24163 2.34845,0.7744 3.0665,1.65749 3.30619,4.06613 0.27278,2.74114 -0.0819,3.20497 -3.25,4.25055 -3.52213,1.1624 -3.55619,1.22827 -3.55619,6.87789 v 5.70424 l -26.25,10.69195 c -14.4375,5.88057 -26.925,10.9112 -27.75,11.17919 -0.825,0.26799 -13.7553,-4.5577 -28.73401,-10.72374 z m 0.73401,-316.26489 c -14.025,-2.38938 -26.9625,-4.61262 -28.75,-4.94053 l -3.25,-0.5962 v -6.43563 c 0,-7.08922 0.56478,-6.54419 -8.25,-7.96144 -2.0625,-0.33161 -3.75,-0.99041 -3.75,-1.46399 0,-0.47359 0.7875,-0.69126 1.75,-0.48372 0.9625,0.20754 16.86233,2.65274 35.33295,5.43379 l 33.58296,5.05643 26.91704,-4.05436 c 14.80438,-2.2299 28.15455,-4.30299 29.66705,-4.60686 l 2.75,-0.5525 v 7.5604 c 0,7.02106 -0.16051,7.59717 -2.25,8.07575 -2.72871,0.625 -57.88743,9.56621 -58.09985,9.41798 -0.0826,-0.0576 -11.62515,-2.05974 -25.65015,-4.44912 z"
       id="path935"
       inkscape:connector-curvature="0" />
    <path
       style="fill:#8d3b42"
       d="m 500.51288,588.01015 -27.23401,-11.1616 -0.003,-12 -0.003,-12 13.43389,-4.75 c 7.38864,-2.6125 13.99392,-4.75 14.6784,-4.75 0.68448,0 6.82242,2.09847 13.63988,4.66328 l 12.39537,4.66327 4.6637,-1.56206 c 2.56503,-0.85914 8.74604,-3.04849 13.73556,-4.86524 l 9.07187,-3.30316 13.67813,4.89521 c 7.52298,2.69236 13.67298,5.14574 13.66668,5.45195 -0.006,0.30621 -12.14348,5.25241 -26.9715,10.99154 l -26.96005,10.43479 -0.27849,12.22681 -0.2785,12.2268 -27.23401,-11.16159 z m 83.29194,-28.437 c -0.30686,-0.30686 -0.55793,-1.43172 -0.55793,-2.49967 0,-1.61625 0.46099,-1.8279 2.75,-1.26258 4.14863,1.0246 4.53746,1.99067 1.29397,3.21495 -1.61046,0.60788 -3.17917,0.85417 -3.48604,0.5473 z m -82.55793,-287.7785 c -14.025,-2.38938 -26.9625,-4.61262 -28.75,-4.94053 l -3.25,-0.5962 v -6.43563 c 0,-7.08922 0.56478,-6.54419 -8.25,-7.96144 -2.0625,-0.33161 -3.75,-0.96296 -3.75,-1.403 0,-0.98603 25.83006,2.61552 28.23643,3.93707 0.95504,0.5245 3.49489,0.95363 5.64412,0.95363 2.14923,0 11.20299,1.125 20.11945,2.5 8.91646,1.375 16.38911,2.5 16.60588,2.5 0.21676,0 0.39412,3.6 0.39412,8 0,4.4 -0.3375,7.95285 -0.75,7.89522 -0.4125,-0.0576 -12.225,-2.05974 -26.25,-4.44912 z"
       id="path933"
       inkscape:connector-curvature="0" />
    <path
       style="fill:#793339"
       d="m 500.51288,588.01025 -27.23401,-11.1617 -0.016,-11.75 c -0.009,-6.4625 0.19594,-11.75 0.45496,-11.75 0.72473,0 53.70884,20.84646 54.17895,21.31657 0.2276,0.2276 0.28698,5.83475 0.13196,12.46032 l -0.28185,12.04651 z m 0.73401,-316.2156 c -14.025,-2.38938 -26.9625,-4.61262 -28.75,-4.94053 l -3.25,-0.5962 v -6.43563 c 0,-7.08922 0.56478,-6.54419 -8.25,-7.96144 -2.0625,-0.33161 -3.75,-0.95928 -3.75,-1.39482 0,-1.29391 27.98457,3.23374 28.87101,4.67107 0.54056,0.87651 2.04726,1.09875 4.71183,0.695 2.27791,-0.34516 10.76176,0.47567 20.27304,1.96145 8.99573,1.40525 16.53323,2.555 16.75,2.555 0.21676,0 0.39412,3.6 0.39412,8 0,4.4 -0.3375,7.95285 -0.75,7.89522 -0.4125,-0.0576 -12.225,-2.05974 -26.25,-4.44912 z"
       id="path931"
       inkscape:connector-curvature="0" />
  </g>
</svg>
