<?xml version="1.0" encoding="UTF-8" standalone="no"?>
<!-- Created with Inkscape (http://www.inkscape.org/) -->

<svg
   xmlns:dc="http://purl.org/dc/elements/1.1/"
   xmlns:cc="http://creativecommons.org/ns#"
   xmlns:rdf="http://www.w3.org/1999/02/22-rdf-syntax-ns#"
   xmlns:svg="http://www.w3.org/2000/svg"
   xmlns="http://www.w3.org/2000/svg"
   xmlns:sodipodi="http://sodipodi.sourceforge.net/DTD/sodipodi-0.dtd"
   xmlns:inkscape="http://www.inkscape.org/namespaces/inkscape"
   width="2.7474909mm"
   height="2.7474909mm"
   viewBox="0 0 2.7474909 2.7474909"
   version="1.1"
   id="svg10434"
   inkscape:version="0.92.4 (5da689c313, 2019-01-14)"
   sodipodi:docname="search.svg">
  <defs
     id="defs10428" />
  <sodipodi:namedview
     id="base"
     pagecolor="#ffffff"
     bordercolor="#666666"
     borderopacity="1.0"
     inkscape:pageopacity="0.0"
     inkscape:pageshadow="2"
     inkscape:zoom="31.678384"
     inkscape:cx="-0.57984929"
     inkscape:cy="8.2872036"
     inkscape:document-units="mm"
     inkscape:current-layer="layer1"
     showgrid="false"
     fit-margin-top="0"
     fit-margin-left="0"
     fit-margin-right="0"
     fit-margin-bottom="0"
     inkscape:window-width="1600"
     inkscape:window-height="836"
     inkscape:window-x="0"
     inkscape:window-y="27"
     inkscape:window-maximized="1" />
  <metadata
     id="metadata10431">
    <rdf:RDF>
      <cc:Work
         rdf:about="">
        <dc:format>image/svg+xml</dc:format>
        <dc:type
           rdf:resource="http://purl.org/dc/dcmitype/StillImage" />
        <dc:title></dc:title>
      </cc:Work>
    </rdf:RDF>
  </metadata>
  <g
     inkscape:label="Layer 1"
     inkscape:groupmode="layer"
     id="layer1"
     transform="translate(-113.62688,-158.84933)">
    <g
       id="use9386"
       transform="matrix(0.17186475,0,0,0.17186475,113.62688,161.42462)">
      <path
         inkscape:connector-curvature="0"
         id="path11036"
         d="m 15.484375,-1.390625 -3.78125,-3.21875 C 11.503906,-4.785156 11.300781,-4.914062 11.09375,-5 c -0.199219,-0.082031 -0.382812,-0.117188 -0.546875,-0.109375 0.445313,-0.519531 0.796875,-1.113281 1.046875,-1.78125 0.257812,-0.664063 0.390625,-1.363281 0.390625,-2.09375 0,-0.832031 -0.15625,-1.609375 -0.46875,-2.328125 -0.3125,-0.726562 -0.746094,-1.363281 -1.296875,-1.90625 -0.542969,-0.550781 -1.179688,-0.984375 -1.90625,-1.296875 -0.710938,-0.3125 -1.480469,-0.46875 -2.3125,-0.46875 -0.835938,0 -1.609375,0.15625 -2.328125,0.46875 -0.730469,0.3125 -1.371094,0.746094 -1.921875,1.296875 -0.542969,0.542969 -0.96875,1.179688 -1.28125,1.90625 C 0.15625,-10.59375 0,-9.816406 0,-8.984375 c 0,0.824219 0.15625,1.59375 0.46875,2.3125 C 0.78125,-5.941406 1.207031,-5.300781 1.75,-4.75 2.300781,-4.207031 2.941406,-3.78125 3.671875,-3.46875 4.390625,-3.15625 5.164062,-3 6,-3 6.738281,-3 7.4375,-3.125 8.09375,-3.375 8.757812,-3.632812 9.351562,-3.988281 9.875,-4.4375 c -0.011719,0.167969 0.023438,0.355469 0.109375,0.5625 0.082031,0.199219 0.210937,0.398438 0.390625,0.59375 L 13.59375,0.5 c 0.28125,0.3125 0.613281,0.476562 1,0.5 0.394531,0.019531 0.734375,-0.105469 1.015625,-0.375 0.269531,-0.28125 0.394531,-0.6171875 0.375,-1 -0.02344,-0.394531 -0.1875,-0.734375 -0.5,-1.015625 z M 6,-5 C 5.445312,-5 4.925781,-5.101562 4.4375,-5.3125 3.957031,-5.519531 3.535156,-5.804688 3.171875,-6.171875 2.804688,-6.535156 2.519531,-6.957031 2.3125,-7.4375 2.101562,-7.914062 2,-8.429688 2,-8.984375 c 0,-0.550781 0.101562,-1.070313 0.3125,-1.5625 0.207031,-0.476563 0.492188,-0.898437 0.859375,-1.265625 0.363281,-0.363281 0.785156,-0.648438 1.265625,-0.859375 0.488281,-0.207031 1.007812,-0.3125 1.5625,-0.3125 0.550781,0 1.070312,0.105469 1.5625,0.3125 0.46875,0.210937 0.882812,0.496094 1.25,0.859375 0.363281,0.367188 0.648438,0.789062 0.859375,1.265625 0.207031,0.492187 0.3125,1.011719 0.3125,1.5625 0,0.554687 -0.105469,1.070313 -0.3125,1.546875 C 9.460938,-6.957031 9.175781,-6.535156 8.8125,-6.171875 8.445312,-5.804688 8.03125,-5.519531 7.5625,-5.3125 7.070312,-5.101562 6.550781,-5 6,-5 Z m 0,0"
         style="stroke:none" />
    </g>
  </g>
</svg>
