<?xml version="1.0" encoding="UTF-8" standalone="no"?>
<!-- Created with Inkscape (http://www.inkscape.org/) -->

<svg
   xmlns:dc="http://purl.org/dc/elements/1.1/"
   xmlns:cc="http://creativecommons.org/ns#"
   xmlns:rdf="http://www.w3.org/1999/02/22-rdf-syntax-ns#"
   xmlns:svg="http://www.w3.org/2000/svg"
   xmlns="http://www.w3.org/2000/svg"
   xmlns:sodipodi="http://sodipodi.sourceforge.net/DTD/sodipodi-0.dtd"
   xmlns:inkscape="http://www.inkscape.org/namespaces/inkscape"
   version="1.1"
   id="svg2"
   xml:space="preserve"
   width="377.95999"
   height="377.94666"
   viewBox="0 0 377.95999 377.94666"
   sodipodi:docname="logo.svg"
   inkscape:version="0.92.3 (2405546, 2018-03-11)"><metadata
     id="metadata8"><rdf:RDF><cc:Work
         rdf:about=""><dc:format>image/svg+xml</dc:format><dc:type
           rdf:resource="http://purl.org/dc/dcmitype/StillImage" /><dc:title></dc:title></cc:Work></rdf:RDF></metadata><defs
     id="defs6" /><sodipodi:namedview
     pagecolor="#ffffff"
     bordercolor="#666666"
     borderopacity="1"
     objecttolerance="10"
     gridtolerance="10"
     guidetolerance="10"
     inkscape:pageopacity="0"
     inkscape:pageshadow="2"
     inkscape:window-width="1920"
     inkscape:window-height="1145"
     id="namedview4"
     showgrid="false"
     inkscape:zoom="2"
     inkscape:cx="290.82875"
     inkscape:cy="221.13716"
     inkscape:window-x="1280"
     inkscape:window-y="27"
     inkscape:window-maximized="1"
     inkscape:current-layer="g10" /><g
     id="g10"
     inkscape:groupmode="layer"
     inkscape:label="ink_ext_XXXXXX"
     transform="matrix(1.3333333,0,0,-1.3333333,0,377.94667)"><g
       id="g12"
       transform="scale(0.1)"><path
         d="M 2834.67,0 H 0 V 2834.64 H 2834.67 V 0"
         style="fill:#0f1f47;fill-opacity:1;fill-rule:nonzero;stroke:none"
         id="path14"
         inkscape:connector-curvature="0" /><path
         d="m 561.02,476.59 c 0,98.91 -47.969,167.93 -128.868,167.93 -87.949,0 -128.964,-82.879 -128.964,-167.93 0,-98.871 47.988,-167.828 128.964,-167.828 87.93,0 128.868,82.867 128.868,167.828 v 0 z m 60,1.961 c 0,-108.789 -83.965,-187.77 -188.868,-187.77 -106.953,0 -188.906,79.867 -188.906,183.879 0,108.86 83.945,187.852 188.906,187.852 106.934,0 188.868,-79.973 188.868,-183.961 v 0 0"
         style="fill:#ffffff;fill-opacity:1;fill-rule:nonzero;stroke:none"
         id="path16"
         inkscape:connector-curvature="0" /><path
         d="m 1714.35,476.59 c 0,98.91 -48.01,167.93 -128.93,167.93 -87.94,0 -128.9,-82.879 -128.9,-167.93 0,-98.871 47.97,-167.828 128.9,-167.828 87.93,0 128.93,82.867 128.93,167.828 v 0 z m 59.94,1.961 c 0,-108.789 -83.94,-187.77 -188.87,-187.77 -106.95,0 -188.91,79.867 -188.91,183.879 0,108.86 83.97,187.852 188.91,187.852 106.94,0 188.87,-79.973 188.87,-183.961 v 0 0"
         style="fill:#ffffff;fill-opacity:1;fill-rule:nonzero;stroke:none"
         id="path18"
         inkscape:connector-curvature="0" /><path
         d="m 2003.16,416.719 c -21,29.98 -29,40.91 -54.96,40.91 h -28.01 V 335.711 c 0,-10 4,-14.91 15.02,-16.949 l 40.96,-8.992 v -13.051 h -160.9 v 13.051 l 36.99,8.992 c 10.96,2.949 14.96,6.949 14.96,16.949 v 281.84 c 0,10.008 -4,13.98 -14.96,16.961 l -36.99,9 v 13.039 h 156.89 c 33.01,0 55.98,-3.039 74.96,-9.981 38.99,-15.039 60.96,-52.07 60.96,-86.949 0,-44.043 -32.97,-81.07 -87.95,-93.922 v -2 c 11.02,-5.097 16.99,-12.051 55.98,-63.09 l 48.96,-64.898 c 7,-10 16,-15.941 27,-17.992 l 35.97,-7.949 v -13.051 h -85.94 c -10,0 -15,3.051 -23.98,15.082 l -74.96,104.918 z m -82.97,57.941 h 44.98 c 67.97,0 82.97,42.899 82.97,83.942 0,30.976 -14,59.968 -45.98,73.918 -16.99,7.019 -32.99,7.019 -54.98,7.019 h -26.99 v -164.879 0"
         style="fill:#ffffff;fill-opacity:1;fill-rule:nonzero;stroke:none"
         id="path20"
         inkscape:connector-curvature="0" /><path
         d="m 1298.58,533.621 h 15 V 413.66 h -15 l -9,35.961 c -3.01,13.039 -11,18 -22.97,18 h -86.98 v -131.91 c 0,-10 4.01,-14.91 15,-16.949 l 40.98,-8.992 v -13.051 h -160.88 v 13.051 l 36.97,8.992 c 11,2.949 15,6.949 15,16.949 v 281.84 c 0,10.008 -4,13.98 -15,16.961 l -36.97,9 v 13.039 h 271.82 v -90.039 h -15 l -16.97,54.039 c -4.01,13.961 -10,18.988 -22,18.988 H 1179.63 V 484.648 h 86.98 c 11.97,0 18.96,4.93 22.97,17.993 l 9,30.98 v 0"
         style="fill:#ffffff;fill-opacity:1;fill-rule:nonzero;stroke:none"
         id="path22"
         inkscape:connector-curvature="0" /><path
         d="M 2321.95,639.539 V 329.781 c 0,-13.062 2.99,-16.121 15.99,-16.121 h 43.97 c 41.97,0 72.95,6.11 94.94,22.051 36.97,26.949 53.97,75.93 53.97,137.93 0,60.961 -17,120.859 -66.96,149.859 -20.97,12.031 -47.97,16.039 -89.96,16.039 h -51.95 z m -104.94,-342.82 v 13.051 l 36.97,8.992 c 11.02,2.949 15,6.949 15,16.949 v 281.84 c 0,10.008 -3.98,13.98 -15,16.961 l -36.97,9 v 13.039 h 168.9 c 45.96,0 78.95,-6.012 105.94,-18 67.95,-31 98.95,-97.93 98.95,-163.891 0,-64.051 -24.01,-123.93 -84.97,-155.898 -27.96,-15.082 -66.95,-22.043 -117.91,-22.043 h -170.91 v 0"
         style="fill:#ffffff;fill-opacity:1;fill-rule:nonzero;stroke:none"
         id="path24"
         inkscape:connector-curvature="0" /><path
         d="M 761.938,309.77 V 296.719 H 635.023 v 13.051 l 31.934,7.949 c 12.051,3.082 20,6.972 27.988,15.961 L 804.906,471.609 694.945,617.551 c -6.972,10.008 -15.937,14.969 -26.972,17.98 l -30,7.981 v 13.039 h 157.91 v -13.039 l -33.945,-6.961 c -12.032,-2.039 -9.024,-7 -3.047,-15.02 l 80.957,-115.929 h 1.992 l 82.969,115.929 c 5.996,8.02 8.007,10.989 -2.989,14 l -31.992,7.981 v 13.039 h 126.932 v -13.039 l -31.99,-7.981 C 972.797,632.52 964.789,628.559 956.781,619.57 L 852.855,488.559 968.773,335.711 c 7.032,-10 15.997,-14.91 26.993,-17.992 l 30.004,-7.949 V 296.719 H 867.855 v 13.051 l 33.965,6.949 c 12.012,2.043 10,5.929 4.004,14.09 l -87.949,123.89 h -1.992 L 726.957,331.648 c -6.016,-7.968 -8.008,-10.847 2.969,-13.929 l 32.012,-7.949 v 0"
         style="fill:#ffffff;fill-opacity:1;fill-rule:nonzero;stroke:none"
         id="path26"
         inkscape:connector-curvature="0" /><path
         d="m 383.375,825.871 c -9.937,-9.941 -24.852,-16.582 -45.645,-16.582 -18.14,0 -34.941,5.723 -46.316,17.09 -15.519,15.519 -14.812,35.32 -14.812,56.492 v 100.07 h 20.406 v -107.5 c 0,-13.613 -0.41,-26.863 10.094,-37.382 7.289,-7.27 18.488,-11.207 31.398,-11.207 12.617,0 22.734,4.359 29.055,10.679 11.699,11.688 10.957,24.43 10.957,55.219 v 90.191 h 20.097 v -84.902 c 0,-32.25 1.309,-55.629 -15.234,-72.168"
         style="fill:#ffffff;fill-opacity:1;fill-rule:nonzero;stroke:none"
         id="path28"
         inkscape:connector-curvature="0" /><path
         d="m 564.477,812.5 -82.11,139.711 0.508,-139.711 h -18.75 v 170.449 h 20.93 l 82.39,-140.488 -0.507,140.488 h 18.75 V 812.5 h -21.211"
         style="fill:#ffffff;fill-opacity:1;fill-rule:nonzero;stroke:none"
         id="path30"
         inkscape:connector-curvature="0" /><path
         d="m 656.758,812.52 v 170.421 h 20.508 V 812.52 h -20.508"
         style="fill:#ffffff;fill-opacity:1;fill-rule:nonzero;stroke:none"
         id="path32"
         inkscape:connector-curvature="0" /><path
         d="m 804.77,812.52 h -23.477 l -58.77,170.421 h 21.368 l 49.726,-150.461 51.196,150.461 h 19.839 L 804.77,812.52"
         style="fill:#ffffff;fill-opacity:1;fill-rule:nonzero;stroke:none"
         id="path34"
         inkscape:connector-curvature="0" /><path
         d="m 911.051,812.52 v 170.421 h 92.649 v -17 h -72.563 v -56.242 h 68.121 v -16.57 h -68.121 v -63.098 h 74.603 V 812.52 h -94.689"
         style="fill:#ffffff;fill-opacity:1;fill-rule:nonzero;stroke:none"
         id="path36"
         inkscape:connector-curvature="0" /><path
         d="m 1153.92,812.52 -19.58,44.171 c -12.13,27.168 -17.66,29.957 -42.37,29.957 h -11.89 V 812.52 h -20.09 v 170.421 h 36.76 c 22.75,0 39.9,0.149 53.31,-13.261 8.53,-8.52 13.29,-19.86 13.29,-34.078 0,-11.84 -3.44,-21.704 -10.58,-29.293 -6.14,-6.528 -16.29,-12.25 -27.34,-13.438 6.01,-0.34 10.96,-3.57 14.18,-6.801 4.64,-4.64 8.02,-11.66 13.01,-22.8 l 22.64,-50.75 z m -18.62,144.769 c -9.77,9.781 -22.45,9.332 -36.34,9.332 h -18.88 v -63.652 h 6.78 c 17.21,0 35.73,-0.891 47.42,10.801 5.66,5.64 8.81,13.57 8.81,22.21 0,9.59 -3.76,17.29 -7.79,21.309"
         style="fill:#ffffff;fill-opacity:1;fill-rule:nonzero;stroke:none"
         id="path38"
         inkscape:connector-curvature="0" /><path
         d="m 1374.35,812.52 v 170.421 h 20.5 V 812.52 h -20.5"
         style="fill:#ffffff;fill-opacity:1;fill-rule:nonzero;stroke:none"
         id="path40"
         inkscape:connector-curvature="0" /><path
         d="M 1511.88,965.941 V 812.52 h -20.5 v 153.421 h -50.65 v 17 h 121.65 v -17 h -50.5"
         style="fill:#ffffff;fill-opacity:1;fill-rule:nonzero;stroke:none"
         id="path42"
         inkscape:connector-curvature="0" /><path
         d="M 1660.48,879.871 V 812.52 h -20.25 v 67.351 l -54.1,103.07 h 23.44 l 42,-79.929 40.8,79.937 22.21,-0.008 -54.1,-103.07"
         style="fill:#ffffff;fill-opacity:1;fill-rule:nonzero;stroke:none"
         id="path44"
         inkscape:connector-curvature="0" /><path
         d="m 1905.83,809.289 c -44.11,0 -76.36,36.441 -76.36,87.672 0,52.641 31.9,89.211 77.93,89.211 44.62,0 76.11,-36.192 76.11,-87.652 0,-52.75 -31.56,-89.231 -77.68,-89.231 z m -0.06,159.461 c -33.41,0 -55.09,-28.199 -55.09,-70.711 0,-42.34 24.14,-71.187 56.17,-71.187 35.62,0 55.44,30.308 55.44,72.539 0,41.57 -23.4,69.359 -56.52,69.359"
         style="fill:#ffffff;fill-opacity:1;fill-rule:nonzero;stroke:none"
         id="path46"
         inkscape:connector-curvature="0" /><path
         d="m 2059.9,965.941 v -56.242 h 65.9 v -16.57 h -65.9 V 812.52 h -20.34 v 170.421 h 90.51 v -17 h -70.17"
         style="fill:#ffffff;fill-opacity:1;fill-rule:nonzero;stroke:none"
         id="path48"
         inkscape:connector-curvature="0" /><path
         d="m 1216.58,941.359 c 0,26.192 21.07,44.84 51.85,44.84 31.16,0 46.11,-16.097 47.64,-17.758 l -10,-12.113 c -3.82,2.942 -17.46,12.973 -36.29,12.973 -21.75,0 -33.79,-11.36 -33.79,-26.781 0,-7.469 3.06,-12.848 7.99,-17.258 5.84,-5.242 14.37,-9.121 23.55,-13.352 11.43,-5.25 27.09,-11.16 37.57,-22.051 7.27,-7.519 12.76,-17.308 12.76,-30.738 0,-28.351 -19.67,-49.93 -55.05,-49.93 -30.14,0 -49.17,16.598 -50.96,18.258 l 9.4,13.832 c 4.84,-3.601 23.76,-14.801 41.06,-14.801 25.64,0 35.24,14.04 35.24,30.981 0,7.867 -3.58,14.199 -8.88,19.277 -7.96,7.672 -19.99,12.793 -31.52,18.063 -11.46,5.238 -22.48,10.711 -30.29,18.918 -5.15,5.41 -10.28,14.25 -10.28,27.64"
         style="fill:#ffffff;fill-opacity:1;fill-rule:nonzero;stroke:none"
         id="path50"
         inkscape:connector-curvature="0" /><path
         d="m 1999.5,2135.99 c 0,21.41 -7.25,38.69 -22.93,47.9 -9.83,5.77 -23.14,7.65 -39.53,7.65 l -119.34,0.02 V 1950.6 h 129.88 c 29.93,0 47.54,-6.74 49.08,-33.6 h 2.86 l -0.02,218.99"
         style="fill:#ffffff;fill-opacity:1;fill-rule:nonzero;stroke:none"
         id="path52"
         inkscape:connector-curvature="0" /><path
         d="m 2016.18,2135.99 c 0,21.41 7.24,38.69 22.93,47.9 9.83,5.77 23.13,7.65 39.54,7.65 l 120.16,0.02 V 1950.6 H 2068.1 c -29.94,0 -47.55,-6.74 -49.08,-33.6 h -2.86 l 0.02,218.99"
         style="fill:#ffffff;fill-opacity:1;fill-rule:nonzero;stroke:none"
         id="path54"
         inkscape:connector-curvature="0" /><path
         d="m 2223.75,2173.74 c 0,0 0,-239.1 0,-254.72 -15.18,0 -184.51,0 -184.51,0 l -2.1,-5.21 c -3.22,-7.95 -8.97,-15.3 -29.12,-15.3 -20.12,0 -25.88,7.35 -29.09,15.3 l -2.11,5.21 c 0,0 -169.02,0 -184.21,0 0,15.62 0,254.72 0,254.72 h -16.66 v -7.76 l -15.97,4.91 c -1.86,6.29 -7.61,10.91 -14.5,10.91 -8.36,0 -15.17,-6.79 -15.17,-15.17 0,-8.39 6.81,-15.18 15.17,-15.18 3.67,0 6.99,1.35 9.6,3.51 l 20.87,-6.41 v -20.48 l -15.68,2.82 c -2.32,5.41 -7.7,9.21 -13.96,9.21 -8.36,0 -15.16,-6.79 -15.16,-15.18 0,-8.38 6.8,-15.17 15.16,-15.17 4.33,0 8.22,1.84 10.98,4.74 l 18.66,-3.34 v -20.88 l -16.38,0.72 c -2.66,4.42 -7.45,7.41 -12.97,7.41 -8.37,0 -15.18,-6.8 -15.18,-15.17 0,-8.39 6.81,-15.18 15.18,-15.18 5.05,0 9.5,2.5 12.25,6.3 l 17.1,-0.76 v -22.68 l -16.75,-0.6 c -2.75,3.85 -7.23,6.39 -12.33,6.39 -8.36,0 -15.18,-6.8 -15.18,-15.18 0,-8.38 6.82,-15.17 15.18,-15.17 5.49,0 10.25,2.94 12.92,7.3 l 16.16,0.58 v -20.9 l -18.32,-3.15 c -2.77,2.95 -6.68,4.82 -11.03,4.82 -8.37,0 -15.18,-6.8 -15.18,-15.18 0,-8.38 6.81,-15.17 15.18,-15.17 6.22,0 11.56,3.76 13.89,9.12 l 15.46,2.65 v -20.52 l -20.03,-6.12 c -2.62,2.17 -5.94,3.52 -9.61,3.52 -8.36,0 -15.16,-6.8 -15.16,-15.18 0,-8.38 6.8,-15.17 15.16,-15.17 6.89,0 12.64,4.62 14.5,10.91 l 15.14,4.62 v -19.85 l -22.13,-9.55 c -2.39,1.58 -5.25,2.51 -8.34,2.51 -8.36,0 -15.17,-6.79 -15.17,-15.17 0,-8.38 6.81,-15.18 15.17,-15.18 7.47,0 13.66,5.42 14.91,12.53 l 15.56,6.72 v -18.13 c 0,0 181.78,0 190.61,0 7.74,-13.52 21.14,-20.51 41.46,-20.51 20.34,0 33.74,6.99 41.49,20.51 8.82,0 190.91,0 190.91,0 v 271.38 h -16.67"
         style="fill:#ffffff;fill-opacity:1;fill-rule:nonzero;stroke:none"
         id="path56"
         inkscape:connector-curvature="0" /><path
         d="m 1882.63,2258.69 c -38.52,0 -69.75,-5.99 -69.75,-13.38 0,-7.4 31.23,-13.38 69.75,-13.38 38.52,0 69.75,5.98 69.75,13.38 0,7.39 -31.23,13.38 -69.75,13.38"
         style="fill:#ffffff;fill-opacity:1;fill-rule:nonzero;stroke:none"
         id="path58"
         inkscape:connector-curvature="0" /><path
         d="m 1978.68,2342.26 -40.28,-28.3 -0.34,-2.87 9.57,-4.3 c 1.9,-0.95 1.92,-2.47 0.95,-3.39 l -25.3,-21.35 -2.41,0.21 -17.91,26.41 c -1.24,1.72 -0.79,3.42 1.37,3.78 l 12.03,1.96 v 3.04 l -31.18,44.05 h -5.13 l -31.17,-44.05 v -3.04 l 12.03,-1.96 c 2.15,-0.36 2.6,-2.06 1.37,-3.78 l -17.93,-26.41 -2.4,-0.21 -23.62,21.35 c -0.96,0.92 -0.94,2.44 0.94,3.39 l 9.58,4.3 -0.35,2.87 -41.94,28.3 -3.4,-1.33 24.63,-75.25 c 12.5,5.62 41.21,9.57 74.82,9.73 33.63,-0.16 62.34,-4.11 74.84,-9.73 l 24.63,75.25 -3.4,1.33"
         style="fill:#ffffff;fill-opacity:1;fill-rule:nonzero;stroke:none"
         id="path60"
         inkscape:connector-curvature="0" /><path
         d="m 2007.74,1754.12 c -38.54,0 -69.76,-5.99 -69.76,-13.38 0,-7.39 31.22,-13.38 69.76,-13.38 38.51,0 69.74,5.99 69.74,13.38 0,7.39 -31.23,13.38 -69.74,13.38"
         style="fill:#ffffff;fill-opacity:1;fill-rule:nonzero;stroke:none"
         id="path62"
         inkscape:connector-curvature="0" /><path
         d="m 2103.77,1837.69 -40.27,-28.3 -0.34,-2.87 9.57,-4.3 c 1.89,-0.94 1.91,-2.47 0.95,-3.39 l -25.3,-21.35 -2.4,0.22 -17.92,26.41 c -1.23,1.71 -0.79,3.42 1.38,3.78 l 12.02,1.96 v 3.03 l -31.17,44.06 h -5.14 l -31.17,-44.06 v -3.03 l 12.03,-1.96 c 2.16,-0.36 2.61,-2.07 1.37,-3.78 l -17.92,-26.41 -2.4,-0.22 -23.63,21.35 c -0.96,0.92 -0.94,2.45 0.94,3.39 l 9.58,4.3 -0.35,2.87 -41.93,28.3 -3.4,-1.33 24.62,-75.25 c 12.5,5.62 41.21,9.57 74.83,9.73 33.62,-0.16 62.33,-4.11 74.83,-9.73 l 24.62,75.25 -3.4,1.33"
         style="fill:#ffffff;fill-opacity:1;fill-rule:nonzero;stroke:none"
         id="path64"
         inkscape:connector-curvature="0" /><path
         d="m 2132.53,2258.69 c -38.52,0 -69.75,-5.99 -69.75,-13.38 0,-7.4 31.23,-13.38 69.75,-13.38 38.52,0 69.74,5.98 69.74,13.38 0,7.39 -31.22,13.38 -69.74,13.38"
         style="fill:#ffffff;fill-opacity:1;fill-rule:nonzero;stroke:none"
         id="path66"
         inkscape:connector-curvature="0" /><path
         d="m 2228.57,2342.26 -40.26,-28.3 -0.36,-2.87 9.57,-4.3 c 1.9,-0.95 1.92,-2.47 0.95,-3.39 l -25.29,-21.35 -2.4,0.21 -17.91,26.41 c -1.24,1.72 -0.8,3.42 1.36,3.78 l 12.03,1.96 v 3.04 l -31.18,44.05 h -5.12 l -31.18,-44.05 v -3.04 l 12.04,-1.96 c 2.14,-0.36 2.59,-2.06 1.36,-3.78 l -17.93,-26.41 -2.4,-0.21 -23.61,21.63 c -0.97,0.92 -0.96,2.44 0.93,3.39 l 9.58,4.02 -0.36,2.87 -41.93,28.3 -3.4,-1.33 24.63,-75.25 c 12.49,5.62 41.2,9.57 74.82,9.73 33.63,-0.16 62.34,-4.11 74.84,-9.73 l 24.62,75.25 -3.4,1.33"
         style="fill:#ffffff;fill-opacity:1;fill-rule:nonzero;stroke:none"
         id="path68"
         inkscape:connector-curvature="0" /><path
         d="m 1845.91,2127.24 c 0,-4.72 1.17,-5.63 3.71,-5.63 4.58,0 9.2,5.05 9.2,14.46 0,11.41 -5.79,14.6 -10.3,14.6 -1.23,0 -1.91,-0.17 -2.29,-0.38 -0.27,-0.1 -0.32,-1.33 -0.32,-2.65 z m 2.61,26.09 c 6.53,0 11.95,-1.28 15.5,-4.73 2.5,-2.39 4.58,-6.32 4.58,-10.89 0,-13.23 -10.04,-18.91 -22.32,-18.91 h -13.7 v 2.07 c 3.88,0.32 4.3,0.69 4.3,6.43 v 17.53 c 0,5.73 -0.42,6.11 -3.88,6.42 v 2.08 h 15.52"
         style="fill:#0f1f47;fill-opacity:1;fill-rule:nonzero;stroke:none"
         id="path70"
         inkscape:connector-curvature="0" /><path
         d="m 1883.09,2137.39 c 0,-9.62 3.61,-16.63 8.82,-16.63 4.57,0 7.06,4.41 7.06,14.03 0,10.67 -3.82,16.57 -8.39,16.57 -4.09,0 -7.49,-4.67 -7.49,-13.97 z m 25.77,-0.91 c 0,-11.37 -7.76,-18.48 -17.96,-18.48 -10.72,0 -17.68,7.82 -17.68,17.59 0,8.6 5.73,18.53 18.43,18.53 9.71,0 17.21,-7.12 17.21,-17.64"
         style="fill:#0f1f47;fill-opacity:1;fill-rule:nonzero;stroke:none"
         id="path72"
         inkscape:connector-curvature="0" /><path
         d="m 1955.77,2153.33 v -2.08 c -4.05,-0.37 -4.26,-0.58 -4.1,-6.16 l 0.53,-17.79 c 0.16,-5.9 0.26,-6.06 4.08,-6.43 v -2.07 h -16.62 v 2.07 c 3.99,0.37 4.15,0.53 4.09,6.43 l -0.15,18.7 h -0.23 l -10.24,-26.62 h -2.86 l -9.73,24.75 h -0.11 l -0.37,-11.79 c -0.16,-4.57 -0.1,-7.11 0.11,-8.75 0.21,-1.98 1.38,-2.46 4.83,-2.72 v -2.07 h -13.12 v 2.07 c 2.56,0.22 3.56,0.74 3.88,2.72 0.27,1.64 0.58,4.45 0.85,9.29 l 0.58,10.73 c 0.37,6.68 -0.05,7.27 -4.25,7.64 v 2.08 h 12.49 l 9.3,-21.04 8.13,21.04 h 12.91"
         style="fill:#0f1f47;fill-opacity:1;fill-rule:nonzero;stroke:none"
         id="path74"
         inkscape:connector-curvature="0" /><path
         d="m 1973.01,2127.3 c 0,-5.74 0.43,-6.11 4.09,-6.43 v -2.07 h -17.2 v 2.07 c 3.66,0.32 4.08,0.69 4.08,6.43 v 17.53 c 0,5.73 -0.42,6.11 -4.08,6.42 v 2.08 h 17.2 v -2.08 c -3.66,-0.31 -4.09,-0.69 -4.09,-6.42 v -17.53"
         style="fill:#0f1f47;fill-opacity:1;fill-rule:nonzero;stroke:none"
         id="path76"
         inkscape:connector-curvature="0" /><path
         d="m 1887.47,2054.69 h -4.56 l -19.65,25.07 h -0.12 v -9.77 c 0,-5.58 0.22,-8.5 0.43,-10.15 0.27,-1.86 1.7,-2.55 5.2,-2.71 v -2.07 h -13.22 v 2.07 c 2.34,0.11 3.71,0.85 3.99,2.71 0.2,1.65 0.42,4.57 0.42,10.15 v 9.77 c 0,3.93 -0.11,4.63 -1.18,6.11 -0.79,1.12 -2.11,1.48 -4.02,1.65 v 2.07 h 11.73 l 17.68,-22.05 h 0.11 v 7.12 c 0,5.58 -0.21,8.5 -0.42,10.14 -0.27,1.86 -1.71,2.55 -5.2,2.72 v 2.07 h 13.53 v -2.07 c -2.64,-0.11 -4.03,-0.86 -4.29,-2.72 -0.21,-1.64 -0.43,-4.56 -0.43,-10.14 v -19.97"
         style="fill:#0f1f47;fill-opacity:1;fill-rule:nonzero;stroke:none"
         id="path78"
         inkscape:connector-curvature="0" /><path
         d="m 1908.98,2054.69 c -3.66,9.56 -8.65,22.68 -10.57,27.67 -1.74,4.57 -2.81,4.84 -5.36,5.16 v 2.07 h 17.16 v -2.07 l -1.81,-0.22 c -1.96,-0.21 -1.96,-0.69 -1.38,-2.55 0.95,-2.96 5.15,-13.44 7.13,-18.64 1.64,4.51 5.03,14.66 5.88,17.15 1.12,3.25 0.8,3.83 -1.59,4.09 l -1.59,0.17 v 2.07 h 12.85 v -2.07 c -3.03,-0.38 -3.77,-0.65 -5.85,-5.48 -0.31,-0.74 -6.79,-16.52 -10.77,-27.35 h -4.1"
         style="fill:#0f1f47;fill-opacity:1;fill-rule:nonzero;stroke:none"
         id="path80"
         inkscape:connector-curvature="0" /><path
         d="m 1932.94,2066 c 1.12,-3.08 4.25,-8.98 9.46,-8.98 2.76,0 4.88,1.82 4.88,5.27 0,3.13 -2.06,4.88 -5.31,6.37 l -0.79,0.38 c -4.36,2.01 -9.3,4.77 -9.3,10.45 0,6 4.36,10.9 12.7,10.9 1.64,0 3.34,-0.21 4.89,-0.65 1.21,-0.31 2.06,-0.52 2.75,-0.74 0.22,-2.07 0.59,-4.67 1.17,-8.28 l -2.34,-0.37 c -1.16,3.5 -3.02,7.27 -7.23,7.27 -2.7,0 -4.62,-2.07 -4.62,-4.62 0,-2.65 2.08,-4.2 5.48,-5.74 l 1.16,-0.53 c 4.9,-2.23 9.09,-4.94 9.09,-11.15 0,-6.54 -5.26,-11.31 -13.49,-11.31 -2.12,0 -4.31,0.42 -5.74,0.9 -1.58,0.53 -2.71,0.96 -3.34,1.27 -0.43,2.45 -1.11,5.31 -1.76,8.87 l 2.34,0.69"
         style="fill:#0f1f47;fill-opacity:1;fill-rule:nonzero;stroke:none"
         id="path82"
         inkscape:connector-curvature="0" /><path
         d="m 1863.85,1999.82 c 0,-5.73 0.42,-6.1 4.08,-6.43 v -2.07 h -17.2 v 2.07 c 3.66,0.33 4.09,0.7 4.09,6.43 v 17.54 c 0,5.73 -0.43,6.1 -4.09,6.42 v 2.07 h 17.2 v -2.07 c -3.66,-0.32 -4.08,-0.69 -4.08,-6.42 v -17.54"
         style="fill:#0f1f47;fill-opacity:1;fill-rule:nonzero;stroke:none"
         id="path84"
         inkscape:connector-curvature="0" /><path
         d="m 1884.89,1999.13 c 0,-2.76 0.1,-4.08 1.05,-4.56 0.86,-0.43 2.07,-0.48 3.72,-0.48 1.7,0 3.99,0.15 5.1,1.54 0.85,1 1.75,2.44 2.61,5.26 l 2.28,-0.38 c -0.32,-2.02 -1.43,-7.54 -1.91,-9.19 h -26.35 v 2.07 c 4.03,0.33 4.46,0.7 4.46,6.43 v 17.54 c 0,5.73 -0.43,6.1 -3.98,6.42 v 2.07 h 17.27 v -2.07 c -3.83,-0.32 -4.25,-0.69 -4.25,-6.42 v -18.23"
         style="fill:#0f1f47;fill-opacity:1;fill-rule:nonzero;stroke:none"
         id="path86"
         inkscape:connector-curvature="0" /><path
         d="m 1914.53,1999.13 c 0,-2.76 0.1,-4.08 1.06,-4.56 0.85,-0.43 2.06,-0.48 3.71,-0.48 1.7,0 3.99,0.15 5.1,1.54 0.85,1 1.75,2.44 2.61,5.26 l 2.28,-0.38 c -0.31,-2.02 -1.43,-7.54 -1.91,-9.19 h -26.35 v 2.07 c 4.03,0.33 4.46,0.7 4.46,6.43 v 17.54 c 0,5.73 -0.43,6.1 -3.98,6.42 v 2.07 h 17.26 v -2.07 c -3.82,-0.32 -4.24,-0.69 -4.24,-6.42 v -18.23"
         style="fill:#0f1f47;fill-opacity:1;fill-rule:nonzero;stroke:none"
         id="path88"
         inkscape:connector-curvature="0" /><path
         d="m 1939.91,1990.95 c -3.67,9.56 -8.66,22.68 -10.57,27.68 -1.76,4.56 -2.81,4.83 -5.37,5.15 v 2.07 h 17.16 v -2.07 l -1.81,-0.21 c -1.96,-0.21 -1.96,-0.69 -1.38,-2.56 0.96,-2.97 5.15,-13.44 7.12,-18.64 1.64,4.52 5.04,14.66 5.9,17.16 1.11,3.24 0.79,3.83 -1.6,4.08 l -1.59,0.17 v 2.07 h 12.85 v -2.07 c -3.03,-0.37 -3.77,-0.64 -5.84,-5.48 -0.32,-0.73 -6.8,-16.51 -10.78,-27.35 h -4.09"
         style="fill:#0f1f47;fill-opacity:1;fill-rule:nonzero;stroke:none"
         id="path90"
         inkscape:connector-curvature="0" /><path
         d="m 2082.58,2153.33 v -2.08 c -4.04,-0.37 -4.25,-0.58 -4.1,-6.16 l 0.54,-17.79 c 0.15,-5.9 0.25,-6.06 4.08,-6.43 v -2.07 h -16.62 v 2.07 c 3.98,0.37 4.15,0.53 4.09,6.43 l -0.15,18.7 h -0.23 l -10.24,-26.62 h -2.87 l -9.72,24.75 h -0.11 l -0.37,-11.79 c -0.17,-4.57 -0.11,-7.11 0.11,-8.75 0.2,-1.98 1.37,-2.46 4.83,-2.72 v -2.07 h -13.12 v 2.07 c 2.55,0.22 3.56,0.74 3.87,2.72 0.28,1.64 0.59,4.45 0.85,9.29 l 0.59,10.73 c 0.37,6.68 -0.05,7.27 -4.25,7.64 v 2.08 h 12.48 l 9.3,-21.04 8.13,21.04 h 12.91"
         style="fill:#0f1f47;fill-opacity:1;fill-rule:nonzero;stroke:none"
         id="path92"
         inkscape:connector-curvature="0" /><path
         d="m 2099.83,2127.3 c 0,-5.74 0.43,-6.11 4.09,-6.43 v -2.07 h -17.21 v 2.07 c 3.67,0.32 4.09,0.69 4.09,6.43 v 17.53 c 0,5.73 -0.42,6.11 -4.09,6.42 v 2.08 h 17.21 v -2.08 c -3.66,-0.31 -4.09,-0.69 -4.09,-6.42 v -17.53"
         style="fill:#0f1f47;fill-opacity:1;fill-rule:nonzero;stroke:none"
         id="path94"
         inkscape:connector-curvature="0" /><path
         d="m 2139.35,2118.43 h -4.57 l -19.65,25.07 h -0.11 v -9.77 c 0,-5.58 0.22,-8.5 0.43,-10.14 0.27,-1.87 1.69,-2.56 5.21,-2.72 v -2.07 h -13.22 v 2.07 c 2.33,0.11 3.71,0.85 3.97,2.72 0.22,1.64 0.42,4.56 0.42,10.14 v 9.77 c 0,3.92 -0.1,4.62 -1.16,6.11 -0.8,1.11 -2.13,1.48 -4.03,1.64 v 2.08 h 11.73 l 17.69,-22.05 h 0.11 v 7.12 c 0,5.58 -0.22,8.49 -0.43,10.15 -0.27,1.85 -1.7,2.54 -5.21,2.7 v 2.08 h 13.55 v -2.08 c -2.65,-0.1 -4.05,-0.85 -4.3,-2.7 -0.21,-1.66 -0.43,-4.57 -0.43,-10.15 v -19.97"
         style="fill:#0f1f47;fill-opacity:1;fill-rule:nonzero;stroke:none"
         id="path96"
         inkscape:connector-curvature="0" /><path
         d="m 2154.81,2132.4 h 6.8 l -3.35,10.15 h -0.16 z m 6.74,-11.53 1.6,0.22 c 1.96,0.25 2.07,0.79 1.38,2.71 l -1.92,5.41 h -8.71 l -1.59,-5.1 c -0.69,-2.29 -0.69,-2.81 1.75,-3.08 l 1.54,-0.16 v -2.07 h -12.37 v 2.07 c 2.7,0.37 3.5,0.59 5.26,5.05 l 10.63,27.46 3.66,0.74 3.6,-10.04 c 2.3,-6.32 4.57,-12.59 6.59,-18.01 1.7,-4.61 2.66,-4.88 5.27,-5.2 v -2.07 h -16.69 v 2.07"
         style="fill:#0f1f47;fill-opacity:1;fill-rule:nonzero;stroke:none"
         id="path98"
         inkscape:connector-curvature="0" /><path
         d="m 2082.15,2063.56 c 0,-5.73 0.43,-6.11 4.89,-6.43 v -2.07 h -18.59 v 2.07 c 4.25,0.32 4.67,0.7 4.67,6.43 v 23.27 h -0.9 c -3.55,0 -4.99,-0.65 -5.85,-1.6 -0.62,-0.8 -1.27,-2.18 -1.96,-5.15 h -2.23 c 0.22,4.46 0.53,8.12 0.64,10.83 h 1.64 c 0.81,-1.21 1.34,-1.32 2.77,-1.32 h 21.18 c 1.39,0 1.65,0.32 2.5,1.32 h 1.65 c 0.06,-2.23 0.33,-6.74 0.58,-10.67 l -2.33,-0.16 c -0.8,3.18 -1.38,4.56 -2.17,5.47 -0.91,0.96 -2.67,1.28 -5.21,1.28 h -1.28 v -23.27"
         style="fill:#0f1f47;fill-opacity:1;fill-rule:nonzero;stroke:none"
         id="path100"
         inkscape:connector-curvature="0" /><path
         d="m 2109.97,2063.56 c 0,-5.73 0.42,-6.11 4.09,-6.43 v -2.07 h -17.21 v 2.07 c 3.66,0.32 4.08,0.7 4.08,6.43 v 17.53 c 0,5.74 -0.42,6.11 -4.08,6.43 v 2.07 h 17.21 v -2.07 c -3.67,-0.32 -4.09,-0.69 -4.09,-6.43 v -17.53"
         style="fill:#0f1f47;fill-opacity:1;fill-rule:nonzero;stroke:none"
         id="path102"
         inkscape:connector-curvature="0" /><path
         d="m 2128.37,2073.66 c 0,-9.62 3.61,-16.64 8.81,-16.64 4.58,0 7.07,4.42 7.07,14.03 0,10.68 -3.82,16.57 -8.4,16.57 -4.08,0 -7.48,-4.67 -7.48,-13.96 z m 25.77,-0.91 c 0,-11.37 -7.77,-18.48 -17.95,-18.48 -10.74,0 -17.7,7.81 -17.7,17.58 0,8.6 5.73,18.54 18.43,18.54 9.73,0 17.22,-7.13 17.22,-17.64"
         style="fill:#0f1f47;fill-opacity:1;fill-rule:nonzero;stroke:none"
         id="path104"
         inkscape:connector-curvature="0" /><path
         d="m 2097.84,2025.85 v -2.07 c -4.05,-0.37 -4.25,-0.59 -4.1,-6.17 l 0.53,-17.79 c 0.16,-5.89 0.27,-6.06 4.09,-6.43 v -2.07 h -16.63 v 2.07 c 3.99,0.37 4.15,0.54 4.1,6.43 l -0.16,18.7 h -0.22 l -10.25,-26.61 h -2.86 l -9.73,24.75 h -0.11 l -0.37,-11.8 c -0.15,-4.56 -0.1,-7.11 0.11,-8.75 0.22,-1.97 1.38,-2.45 4.84,-2.72 v -2.07 h -13.13 v 2.07 c 2.56,0.22 3.56,0.75 3.88,2.72 0.27,1.64 0.58,4.46 0.85,9.29 l 0.58,10.73 c 0.37,6.69 -0.05,7.28 -4.25,7.65 v 2.07 h 12.49 l 9.3,-21.03 8.13,21.03 h 12.91"
         style="fill:#0f1f47;fill-opacity:1;fill-rule:nonzero;stroke:none"
         id="path106"
         inkscape:connector-curvature="0" /><path
         d="m 2106.05,2017.36 c 0,5.73 -0.42,6.1 -3.97,6.42 v 2.07 h 25.17 c 0.05,-0.91 0.32,-4.78 0.59,-8.76 l -2.34,-0.16 c -0.53,2.6 -1.12,4.08 -1.97,4.93 -0.84,0.91 -2.61,1.23 -5.42,1.23 h -0.9 c -2.02,0 -2.12,0 -2.12,-1.86 v -10.25 h 2.65 c 4.57,0 4.73,0.32 5.26,4.35 h 2.34 V 2002.8 H 2123 c -0.53,4.67 -0.69,4.99 -5.26,4.99 h -2.65 v -8.66 c 0,-2.76 0.1,-4.08 1.06,-4.56 0.86,-0.43 2.07,-0.48 3.72,-0.48 2.12,0 4.46,0.32 5.63,1.59 0.9,0.95 1.8,2.91 2.6,5.47 l 2.34,-0.37 c -0.27,-2.6 -1.38,-8.02 -1.86,-9.46 h -27.03 v 2.07 c 4.08,0.33 4.5,0.7 4.5,6.43 v 17.54"
         style="fill:#0f1f47;fill-opacity:1;fill-rule:nonzero;stroke:none"
         id="path108"
         inkscape:connector-curvature="0" /><path
         d="m 2142.34,2004.92 h 6.8 l -3.35,10.15 h -0.16 z m 6.75,-11.53 1.59,0.22 c 1.96,0.26 2.07,0.8 1.38,2.71 l -1.92,5.41 h -8.7 l -1.6,-5.1 c -0.69,-2.28 -0.69,-2.81 1.75,-3.08 l 1.54,-0.16 v -2.07 h -12.37 v 2.07 c 2.7,0.37 3.51,0.59 5.26,5.06 l 10.63,27.45 3.66,0.75 3.6,-10.04 c 2.3,-6.33 4.57,-12.59 6.59,-18.02 1.7,-4.61 2.66,-4.87 5.27,-5.2 v -2.07 h -16.68 v 2.07"
         style="fill:#0f1f47;fill-opacity:1;fill-rule:nonzero;stroke:none"
         id="path110"
         inkscape:connector-curvature="0" /><path
         d="m 1959.83,1563.99 c 0,-7.68 -6.22,-13.9 -13.9,-13.9 -7.66,0 -13.88,6.22 -13.88,13.9 0,7.67 6.22,13.89 13.88,13.89 7.68,0 13.9,-6.22 13.9,-13.89"
         style="fill:#ffffff;fill-opacity:1;fill-rule:nonzero;stroke:none"
         id="path112"
         inkscape:connector-curvature="0" /><path
         d="m 2100.7,1540.88 c 0,-7.68 -6.22,-13.89 -13.89,-13.89 -7.66,0 -13.89,6.21 -13.89,13.89 0,7.67 6.23,13.88 13.89,13.88 7.67,0 13.89,-6.21 13.89,-13.88"
         style="fill:#ffffff;fill-opacity:1;fill-rule:nonzero;stroke:none"
         id="path114"
         inkscape:connector-curvature="0" /><path
         d="m 1560.89,2321.52 v 0 0"
         style="fill:#ffffff;fill-opacity:1;fill-rule:nonzero;stroke:none"
         id="path116"
         inkscape:connector-curvature="0" /><path
         d="m 2144.59,2572.57 v 0 0"
         style="fill:#ffffff;fill-opacity:1;fill-rule:nonzero;stroke:none"
         id="path118"
         inkscape:connector-curvature="0" /><path
         d="m 2368.75,2296.54 v 0 0"
         style="fill:#ffffff;fill-opacity:1;fill-rule:nonzero;stroke:none"
         id="path120"
         inkscape:connector-curvature="0" /><path
         d="m 2476.77,1844.78 v 0 0"
         style="fill:#ffffff;fill-opacity:1;fill-rule:nonzero;stroke:none"
         id="path122"
         inkscape:connector-curvature="0" /><path
         d="m 2021.08,2544.79 c 0,-7.67 -6.22,-13.88 -13.89,-13.88 -7.67,0 -13.89,6.21 -13.89,13.88 0,7.68 6.22,13.89 13.89,13.89 7.67,0 13.89,-6.21 13.89,-13.89"
         style="fill:#ffffff;fill-opacity:1;fill-rule:nonzero;stroke:none"
         id="path124"
         inkscape:connector-curvature="0" /><path
         d="m 2351.66,2414.76 c -0.34,-7.66 -6.8,-13.61 -14.47,-13.28 -7.66,0.31 -13.61,6.8 -13.29,14.46 0.31,7.65 6.8,13.6 14.45,13.27 7.67,-0.32 13.63,-6.79 13.31,-14.45"
         style="fill:#ffffff;fill-opacity:1;fill-rule:nonzero;stroke:none"
         id="path126"
         inkscape:connector-curvature="0" /><path
         d="m 1654.98,1818.47 c 5.33,-7.68 8.02,-15.9 8.01,-24.41 -0.02,-9.71 -3.27,-17.58 -20.63,-29.61 l -50.16,-35.75 -9.24,13.29 c 0,0 51.39,36.59 52.23,37.17 8.86,6.12 12.64,10.6 12.66,17.62 0,4.45 -1.63,9.3 -4.85,13.92 -5.02,7.24 -11.46,9.55 -17.15,9.56 -5.15,0 -10.71,-3.61 -20.58,-10.5 l -47.18,-32 -9.05,13.04 44.88,30.41 c 12.49,8.77 22.44,14.79 31.68,14.77 13.49,-0.02 23.33,-8.8 29.38,-17.51"
         style="fill:#ffffff;fill-opacity:1;fill-rule:nonzero;stroke:none"
         id="path128"
         inkscape:connector-curvature="0" /><path
         d="m 1494.68,1916.41 95.44,33.46 5.28,-14.46 -54.6,-66.7 68.99,27.29 5.14,-14.08 -94.33,-36.23 -5.27,14.46 54.86,66.78 -70.37,-24.62 -5.14,14.1"
         style="fill:#ffffff;fill-opacity:1;fill-rule:nonzero;stroke:none"
         id="path130"
         inkscape:connector-curvature="0" /><path
         d="m 1480.41,1992.39 99.89,14.82 2.36,-16 -99.89,-14.81 -2.36,15.99"
         style="fill:#ffffff;fill-opacity:1;fill-rule:nonzero;stroke:none"
         id="path132"
         inkscape:connector-curvature="0" /><path
         d="m 1477.45,2112.82 0.39,16.76 99.68,-40.51 -0.7,-16.63 -102.37,-30.53 0.11,16.79 83,23.26 -80.11,30.86"
         style="fill:#ffffff;fill-opacity:1;fill-rule:nonzero;stroke:none"
         id="path134"
         inkscape:connector-curvature="0" /><path
         d="m 1550.64,2308.15 c 5.92,10.77 10.14,14.85 16.4,14.82 2.32,0 5.24,-0.58 8.19,-2.2 3.78,-2.1 6.68,-5.59 7.75,-9.34 0.42,-1.46 0.61,-2.91 0.59,-4.36 -0.05,-6 -3.39,-12.03 -6.9,-18.34 l -2.06,-3.74 -28.45,15.28 z m 17.96,30.6 c -14.27,-0.02 -20.87,-8.19 -29.98,-24.65 l -11.86,-21.25 88.96,-48.27 7.68,13.89 -36.97,20.17 2.16,4 c 6.22,11.25 8.37,12.96 24.24,11.62 l 28.81,-2.56 8.23,14.93 -33.2,2.83 c -6.67,0.62 -11.94,1.11 -16.2,-0.13 -1.42,-0.41 -3.13,-1.28 -4.77,-2.44 0.38,1.81 1.06,3.56 1.08,5.39 0.02,2.85 -0.39,5.66 -1.24,8.23 -1.93,5.93 -6.16,10.73 -12.56,14.28 -4.77,2.63 -9.55,3.97 -14.38,3.96"
         style="fill:#ffffff;fill-opacity:1;fill-rule:nonzero;stroke:none"
         id="path136"
         inkscape:connector-curvature="0" /><path
         d="m 1679.12,2481.46 12.86,9.81 61.28,-80.26 -12.85,-9.81 -61.29,80.26"
         style="fill:#ffffff;fill-opacity:1;fill-rule:nonzero;stroke:none"
         id="path138"
         inkscape:connector-curvature="0" /><path
         d="m 1734.58,2520.84 65.32,34 6.37,-12.25 -25.42,-13.24 40.26,-77.33 -14.34,-7.46 -40.26,77.32 -25.56,-13.31 -6.37,12.27"
         style="fill:#ffffff;fill-opacity:1;fill-rule:nonzero;stroke:none"
         id="path140"
         inkscape:connector-curvature="0" /><path
         d="m 1897.53,2585.56 17.04,4.75 -13.73,-67.56 11.11,-38.36 -15.4,-4.44 -10.85,38.07 -47.94,50.03 16.59,4.81 34.51,-35.95 8.67,48.65"
         style="fill:#ffffff;fill-opacity:1;fill-rule:nonzero;stroke:none"
         id="path142"
         inkscape:connector-curvature="0" /><path
         d="m 2205.66,2447.51 51.28,86.99 48.24,-28.41 -7.01,-11.91 -34.45,20.3 -14.18,-24.07 32.43,-19.1 -6.86,-11.65 -32.43,19.11 -23.2,-39.4 -13.82,8.14"
         style="fill:#ffffff;fill-opacity:1;fill-rule:nonzero;stroke:none"
         id="path144"
         inkscape:connector-curvature="0" /><path
         d="m 2465.14,2222.55 36.76,44 5.73,-17.42 -27.38,-31.33 40.67,-9.13 5.39,-16.41 -55.63,13.46 -39.52,-47.36 -5.63,17.12 29.83,34.77 -44.6,10.17 -5.43,16.57 59.81,-14.44"
         style="fill:#ffffff;fill-opacity:1;fill-rule:nonzero;stroke:none"
         id="path146"
         inkscape:connector-curvature="0" /><path
         d="m 2436.26,2123.33 100.67,8.21 4.56,-55.83 -13.79,-1.12 -3.24,39.85 -27.84,-2.27 3.05,-37.51 -13.46,-1.1 -3.07,37.51 -45.57,-3.71 -1.31,15.97"
         style="fill:#ffffff;fill-opacity:1;fill-rule:nonzero;stroke:none"
         id="path148"
         inkscape:connector-curvature="0" /><path
         d="m 2488.73,1956.34 c -19.66,0 -42.64,10.72 -42.64,30.55 0,7.18 2.49,16.83 11.38,23.28 5.99,4.36 13.78,6.68 22.51,6.68 10.02,0 28.08,-2.83 37.56,-15.9 3.26,-4.5 4.93,-9.72 4.91,-15.31 0,-7.73 -3.16,-16.92 -11.45,-22.93 -5.87,-4.25 -13.59,-6.37 -22.27,-6.37 z m -7.95,76.95 c -11.67,0 -22.4,-3.15 -30.87,-9.31 -15.25,-11.04 -18.02,-26.91 -18.02,-36.19 0,-34.14 32.08,-47.79 56.17,-47.79 11.57,-0.02 22.16,3.13 30.51,9.18 17.01,12.32 17.94,30.83 17.94,36.79 0,29.79 -27.39,47.32 -55.73,47.32"
         style="fill:#ffffff;fill-opacity:1;fill-rule:nonzero;stroke:none"
         id="path150"
         inkscape:connector-curvature="0" /><path
         d="m 2406.44,2287.18 c -9.06,0 -17.25,3.8 -22.89,12.71 -2.88,4.53 -4.28,9.42 -4.3,14.38 -0.05,11.41 7.18,23.13 20.42,31.55 8.77,5.56 17.38,8.29 25.08,8.26 9.73,0 17.66,-4.29 22.95,-12.63 3.12,-4.91 4.54,-10.15 4.54,-15.38 0,-11.15 -7.06,-22.08 -19.85,-30.19 -8.98,-5.69 -18.01,-8.7 -25.95,-8.7 z m 15.72,82.27 c -10.2,0 -21.07,-3.24 -31.55,-9.88 -19.4,-12.32 -26.47,-29.94 -26.47,-42.81 0,-8.33 2.29,-16.51 7.05,-24.01 10.77,-17 26.93,-21.15 37.85,-21.1 10.43,0.05 21.42,3.5 31.79,10.09 12.5,7.92 26.39,22.64 26.39,42.57 0,8.28 -2.36,16.42 -7.13,23.96 -8.84,13.93 -22.69,21.18 -37.93,21.18"
         style="fill:#ffffff;fill-opacity:1;fill-rule:nonzero;stroke:none"
         id="path152"
         inkscape:connector-curvature="0" /><path
         d="m 2141.46,2487.38 c -7.3,0 -17.87,3.57 -23.77,14.35 -2.85,5.22 -4.13,11.56 -4.13,18.11 0,18.09 12.05,43.46 34.06,43.46 12.35,0 27.87,-9.2 27.87,-32.03 0,-14.56 -10.25,-43.89 -34.03,-43.89 z m 5.2,90.06 c -21.05,0 -39.37,-14.17 -46.76,-39.35 -1.64,-5.58 -2.68,-11.13 -2.68,-16.49 0,-10.09 1.7,-18.07 5.82,-25.62 9.35,-17.09 26.45,-22.91 39.45,-22.91 7.33,0 14.41,1.68 20.89,5.22 17.04,9.32 28.29,30.94 28.29,51.64 0,8.98 -1.74,17.45 -5.73,24.69 -8.2,14.9 -23.39,22.82 -39.28,22.82"
         style="fill:#ffffff;fill-opacity:1;fill-rule:nonzero;stroke:none"
         id="path154"
         inkscape:connector-curvature="0" /><path
         d="m 1587.32,2211.21 13.56,-3.83 -15.31,-55.47 -97.72,26.79 16.69,56.12 13.28,-3.76 -12.26,-40.43 26.94,-7.4 10.4,36.73 12.99,-3.69 -10.35,-36.61 30.48,-8.37 11.3,39.92"
         style="fill:#ffffff;fill-opacity:1;fill-rule:nonzero;stroke:none"
         id="path156"
         inkscape:connector-curvature="0" /><path
         d="m 1612.94,2422.19 c 14.04,15.72 28.38,14.64 28.38,14.64 l 2.45,-13.32 c 0,0 -11.06,-0.36 -19.72,-10.06 -3.77,-4.23 -5.67,-8.65 -5.67,-12.61 0,-3.28 1.27,-6.14 3.84,-8.43 7,-6.23 18.95,0.7 26.44,3.7 5.75,2.38 13.92,5.71 22.1,5.71 6.1,0 12.4,-1.73 18.17,-6.88 6.72,-6.01 10.09,-13.54 10.09,-21.46 0,-8.58 -3.33,-16.2 -10.04,-23.71 -12.88,-14.43 -30.2,-16 -30.2,-16 l -3.44,13.51 c 10.21,2.36 17.93,6.28 22.61,11.54 3.69,4.12 5.5,8.74 5.5,12.8 0,3.81 -1.59,7.36 -4.71,10.15 -2.52,2.25 -5.6,3.06 -8.94,2.99 -6.49,0 -14.26,-3.71 -20.67,-6.38 -12.27,-5.06 -25.21,-9.15 -36.79,1.2 -5.9,5.26 -9.03,11.88 -9.03,19.24 0,7.77 3.07,16.02 9.63,23.37"
         style="fill:#ffffff;fill-opacity:1;fill-rule:nonzero;stroke:none"
         id="path158"
         inkscape:connector-curvature="0" /><path
         d="m 2469.07,1842.73 c -4.56,-0.02 -12.29,2.61 -15.21,10.14 -0.74,1.91 -1.04,3.84 -1.02,5.81 0.05,5.52 2.67,11.27 5.36,17.31 l 1.72,3.89 29.11,-13.08 -3.22,-7.8 c -5.44,-12.34 -8.96,-16.26 -16.74,-16.27 z m -59.62,59.88 38.16,-17.27 -1.88,-4.3 c -5.2,-11.75 -7.19,-13.66 -23.11,-13.73 l -28.91,-0.02 -6.9,-15.59 33.33,0.11 c 6.75,0 12,-0.01 16.11,1.57 1.33,0.52 2.86,1.36 4.25,2.5 -0.08,-0.87 -0.38,-1.71 -0.39,-2.57 -0.03,-3.71 0.66,-7.39 2.05,-10.61 4.56,-10.67 17.01,-15.89 26.11,-15.87 16.07,0.02 22.21,9.63 30.02,27.31 0.29,0.66 9.38,21.64 9.38,21.64 l -91.82,41.36 -6.4,-14.53"
         style="fill:#ffffff;fill-opacity:1;fill-rule:nonzero;stroke:none"
         id="path160"
         inkscape:connector-curvature="0" /><path
         d="m 2392.25,1731.05 c -8.03,0 -15.56,3.09 -23.4,9.35 -7.95,6.35 -16.37,16.24 -16.37,28.86 0,8.77 4.76,17.13 12.08,26.31 l 6.69,8.38 57.67,-46.03 -4.4,-5.52 c -10.72,-13.42 -18.02,-21.35 -32.27,-21.35 z m -35.99,76.03 c -10.47,-13.11 -18.41,-24.83 -18.41,-39.98 0,-12.85 5.84,-27.47 20.6,-39.26 9.79,-7.82 20.86,-12.06 32.27,-12.06 14.05,0 25.32,4.22 42.81,26.15 l 15.96,20.06 -78.92,63.01 -14.31,-17.92"
         style="fill:#ffffff;fill-opacity:1;fill-rule:nonzero;stroke:none"
         id="path162"
         inkscape:connector-curvature="0" /><path
         d="m 2346.87,1614.98 c -93.98,-33.25 -181.71,-30.97 -256.53,-14.25 2.45,33.42 16.26,69.14 37.42,75.78 164.81,51.12 284.85,204.78 284.85,385.88 0,222.76 -181.57,403.98 -404.73,403.98 -223.18,0 -404.74,-181.22 -404.74,-403.98 0,-123.92 57.88,-241.63 155.31,-317.96 -23.13,-10.17 -42.87,-26.61 -57.14,-47.09 -7.39,5.03 -14.51,10.25 -21.1,15.66 l -3.68,-3.69 c 4.41,-5.32 11.24,-12.35 19.46,-20.22 -12,-20.18 -18.94,-43.67 -18.94,-68.79 0,-3.91 0.26,-7.76 0.58,-11.59 -145,105.68 -231.15,273.67 -231.15,453.68 0,309.54 251.85,561.36 561.4,561.36 309.55,0 561.39,-251.82 561.39,-561.36 0,-177.3 -81.06,-340.19 -222.4,-447.41 z m -325.68,-132.51 c -77.57,0 -174.38,26.37 -240.9,65.61 -20.16,11.89 -44.18,34 -44.18,71.81 0,10.2 2,19.94 5.54,28.9 24.82,-20.53 50.49,-39.77 66.59,-48.58 3.7,-2.03 5.84,-3.02 10.15,-3.02 10.33,0 18.7,8.41 18.7,18.78 0,7.93 -4.29,14.36 -11.4,17.46 -13.75,6.02 -42.55,17.92 -73.55,33.99 14.33,18.92 36.92,31.21 62.36,31.21 11.63,0 22.83,-2.49 33.27,-7.42 l 21.26,-12.39 c 67.6,-41.29 241.51,-147.17 451.49,-88.99 -79.7,-71.92 -177.87,-107.36 -299.33,-107.36 z m 66.48,-47.25 c -21.33,0 -38.83,-15.1 -38.83,-38.27 0,-22.67 17.74,-38.26 38.83,-38.26 3.21,0 6.27,0.54 9.24,1.32 -4.45,-32.08 -41.81,-67.99 -90,-84.12 -47.81,15.99 -85.16,52.17 -90.1,84.08 2.95,-0.75 6,-1.28 9.19,-1.28 23,0 38.82,16.1 38.82,38.26 0,21.13 -16.59,37.71 -37.99,38.18 6.53,11.94 12.79,24.62 17.42,38.24 26.52,-4.61 52.64,-7.14 76.94,-7.14 19.91,0 39.25,1.08 58.14,3 2.5,-10.95 6.23,-22.39 10.6,-34.21 -0.76,0.04 -1.49,0.2 -2.26,0.2 z m -274.4,304.54 c 39.9,0 77.24,-20.47 99.14,-53.26 -19.17,4.86 -38,11.19 -56.37,19.02 l -0.06,-0.11 -0.59,0.34 c -12.85,6.05 -26.6,9.12 -40.89,9.12 -31.8,0 -59.93,-15.59 -77.31,-39.43 -7.32,4.05 -14.63,8.31 -21.8,12.77 21.52,31.1 57.34,51.55 97.88,51.55 z m 157.98,-79.64 c -4.94,-3.67 -8.9,-8.06 -11.72,-12.89 -14.64,7.1 -33.04,16.27 -45.06,23 17.03,-3.77 39.28,-8.55 56.78,-10.11 z m 122.87,7.62 c -11.62,-16.58 -18.54,-39.64 -20.6,-62.98 -36.69,9.46 -69.98,22.16 -99.01,35.4 5.51,10.69 21.32,18.25 33.37,18.25 29.6,0 58.42,3.28 86.24,9.33 z m -86.24,6.91 c -24.79,0 -49.2,2.39 -73.13,6.96 -23.08,45.26 -70.38,74.39 -121.48,74.39 -12.56,0 -24.66,-1.84 -36.21,-5.02 -98.23,72.99 -156.81,189.06 -156.81,311.41 0,213.8 173.89,387.74 387.63,387.74 213.73,0 387.62,-173.94 387.62,-387.74 0,-213.8 -173.89,-387.74 -387.62,-387.74 z m -194.61,-173.79 c -65.69,0 -119.11,53.57 -119.11,119.44 0,20.63 5.24,40.06 14.47,57.02 6.13,-5.57 12.68,-11.35 19.49,-17.18 -5.79,-12.24 -9.12,-25.85 -9.12,-40.25 0,-35.83 18.08,-65.43 52.26,-85.6 19.63,-11.58 41.86,-22.03 65.4,-31.13 -7.65,-1.52 -15.46,-2.3 -23.39,-2.3 z m 773.11,561.53 c 0,318.49 -259.52,577.6 -578.5,577.6 -318.99,0 -578.51,-259.11 -578.51,-577.6 0,-191.07 94.35,-369.16 252.43,-477.08 15.55,-57.88 68.51,-100.69 131.47,-100.69 17.02,0 33.52,3.21 49.21,9.28 21.17,-6.99 43.03,-12.78 64.84,-17.27 -6.13,-17.54 -15.11,-34.17 -23.64,-48.55 0,0 0.18,0.04 0.47,0.1 -0.16,-0.11 -0.34,-0.19 -0.49,-0.3 l 12.05,-12.05 c 3.07,1.68 6.54,2.73 10.29,2.73 11.91,0 21.59,-9.69 21.59,-21.61 0,-11.9 -9.68,-21.6 -21.59,-21.6 -10.4,0 -19.52,6.67 -24.3,13.79 0,0 -2.81,-9.71 -2.81,-22.52 -0.08,-41.5 45.21,-88.89 108.02,-108.88 62.75,19.53 108.05,67.28 108.02,108.81 0,14.29 -2.82,22.59 -2.82,22.59 -4.83,-5.8 -12.64,-13.79 -24.44,-13.79 -11.91,0 -21.6,9.7 -21.6,21.6 0,11.92 9.69,21.61 21.6,21.61 4.17,0 8.04,-1.25 11.35,-3.31 l 11.69,11.69 c 0.27,-0.07 0.44,-0.11 0.44,-0.11 -6.61,15.81 -11.44,30.35 -14.73,44.31 104.02,14.01 191.78,58.03 261.57,131.4 l -0.06,0.07 c 145.19,110.32 228.45,277.68 228.45,459.78"
         style="fill:#ffffff;fill-opacity:1;fill-rule:nonzero;stroke:none"
         id="path164"
         inkscape:connector-curvature="0" /></g></g></svg>